<svg version="1.1" id="Layer_1" xmlns="http://www.w3.org/2000/svg" xmlns:xlink="http://www.w3.org/1999/xlink" x="0px" y="0px"
	 width="100%" viewBox="0 0 517 399" enable-background="new 0 0 517 399" xml:space="preserve">
<path fill="#F6F7F7" opacity="1.000000" stroke="none" 
	d="
M377.000000,400.000000 
	C252.833328,400.000000 129.166656,399.980286 5.500087,400.094360 
	C1.750496,400.097809 0.902495,399.249481 0.905755,395.499908 
	C1.018786,265.500031 1.018786,135.499985 0.905755,5.500082 
	C0.902495,1.750530 1.750679,0.903786 5.500060,0.906183 
	C174.833313,1.014452 344.166656,1.014452 513.499939,0.906183 
	C517.249329,0.903786 518.097534,1.750530 518.094299,5.500082 
	C517.981262,135.499985 517.981201,265.500031 518.094238,395.499908 
	C518.097473,399.249481 517.251038,400.109741 513.499695,400.097321 
	C468.166840,399.947113 422.833344,400.000000 377.000000,400.000000 
z"/>
<path fill="#182F6C" opacity="1.000000" stroke="none" 
	d="
M350.568359,280.468506 
	C340.335480,295.942963 323.280914,301.253479 307.774963,294.048828 
	C292.955078,287.162994 285.481720,270.722839 289.939453,254.813751 
	C293.847412,240.866623 306.811737,230.829422 321.465088,231.017593 
	C325.769928,231.072876 329.251862,229.907806 332.587830,227.580872 
	C341.816925,221.143326 349.683014,213.315933 356.471954,204.352692 
	C357.814697,202.579910 357.945251,200.859634 357.747925,198.776352 
	C355.914703,179.422424 369.612183,163.310562 388.854767,162.080139 
	C407.166351,160.909271 423.007965,175.528275 423.795746,194.324463 
	C424.613007,213.824722 407.868408,229.579254 387.620758,228.049225 
	C384.143494,227.786469 381.585327,228.627563 379.003387,230.716629 
	C370.538513,237.565628 362.913147,245.160187 357.075348,254.428955 
	C355.440735,257.024261 354.597870,259.667175 354.832336,262.884857 
	C355.277344,268.991913 353.641754,274.754913 350.568359,280.468506 
z"/>
<path fill="#05BBEC" opacity="1.000000" stroke="none" 
	d="
M170.727921,105.829109 
	C178.364838,93.670029 189.197021,87.992867 202.986877,89.517296 
	C217.450333,91.116196 227.085449,99.452560 231.225708,113.477280 
	C237.678925,135.336853 219.778351,157.083176 196.990875,155.144440 
	C193.237610,154.825119 190.328384,155.630966 187.401413,158.050323 
	C179.262955,164.777405 171.934738,172.180313 166.138733,181.056290 
	C164.336777,183.815796 163.609970,186.663193 163.703354,189.993958 
	C164.127487,205.125351 154.383774,218.573196 140.140503,222.835541 
	C125.974030,227.074905 110.183968,221.185638 102.641777,208.849548 
	C94.611038,195.714386 96.087593,179.305527 106.662514,168.245453 
	C113.157837,161.452148 121.348206,157.887451 130.816132,158.089508 
	C134.898453,158.176636 138.247711,157.015030 141.494247,154.741623 
	C150.583542,148.376785 158.274292,140.602386 165.119873,131.919540 
	C166.585815,130.060165 166.861511,128.187439 166.615311,125.884018 
	C165.872284,118.932167 167.028046,112.285713 170.727921,105.829109 
z"/>
<path fill="#04AAE7" opacity="1.000000" stroke="none" 
	d="
M255.474777,158.375793 
	C262.915802,156.709976 267.815521,151.808395 272.985840,147.426773 
	C275.895782,144.960693 278.461884,142.085037 281.148468,139.359985 
	C286.132782,134.304276 289.194122,129.096298 289.094666,121.107002 
	C288.865753,102.720428 304.571228,88.626930 322.871979,89.171585 
	C341.281921,89.719490 355.483734,105.044899 354.878723,123.710541 
	C354.295624,141.699997 339.343231,155.948318 321.053192,155.131088 
	C315.526367,154.884125 311.520081,156.402725 307.623749,159.882614 
	C302.273071,164.661438 297.196838,169.679565 292.678955,175.249741 
	C288.416992,180.504379 285.915405,186.004684 285.791351,193.300598 
	C285.496582,210.638428 269.848206,225.892365 249.535477,223.834808 
	C252.319366,220.498886 252.424026,216.482590 252.396042,212.276199 
	C252.293106,196.817001 252.290283,181.356216 252.411499,165.897095 
	C252.432251,163.247650 251.612885,160.059616 255.474777,158.375793 
z"/>
<path fill="#264282" opacity="1.000000" stroke="none" 
	d="
M252.406586,354.007660 
	C238.073898,350.250610 228.590729,336.264526 229.831406,320.760437 
	C230.155380,316.711914 229.092682,313.770294 226.634506,310.831512 
	C221.274353,304.423431 215.511429,298.438873 208.860916,293.369965 
	C204.084457,289.729401 199.249176,287.309631 192.618149,287.217499 
	C173.834503,286.956512 160.216705,271.598938 160.866776,252.732697 
	C161.477325,235.013580 176.399963,220.932526 194.299850,221.185104 
	C212.563492,221.442810 227.014252,236.175125 226.835938,254.646011 
	C226.800034,258.364288 227.798309,261.437317 229.799927,264.422668 
	C236.270584,274.073456 244.431671,282.076782 253.759064,289.388977 
	C255.316162,291.258881 255.669525,293.193390 255.676971,295.225830 
	C255.741302,312.809845 255.797913,330.394104 255.630585,347.977509 
	C255.608841,350.263092 255.555908,352.736237 252.406586,354.007660 
z"/>
<path fill="#18306C" opacity="1.000000" stroke="none" 
	d="
M252.219238,354.368652 
	C253.827744,352.649902 254.045685,350.653503 254.036316,348.384491 
	C253.956863,329.141510 253.972214,309.898132 253.938034,290.157959 
	C255.627167,290.536713 257.407227,290.344208 259.257629,290.224426 
	C273.767700,289.285217 285.092529,294.850861 291.869995,307.794189 
	C298.418488,320.300201 297.085510,332.653687 288.429138,343.842468 
	C280.005524,354.730347 266.503174,358.596954 252.219238,354.368652 
z"/>
<path fill="#18306C" opacity="1.000000" stroke="none" 
	d="
M253.639893,35.202034 
	C266.346832,31.474047 280.034271,36.433163 287.909454,47.123623 
	C295.895172,57.964119 296.508820,72.829704 289.443665,84.291275 
	C282.460663,95.619537 268.728210,101.881462 256.001740,99.507942 
	C254.532745,99.233971 253.096573,98.784019 251.319611,98.202789 
	C252.839859,91.510506 252.290070,84.867180 252.310242,78.268486 
	C252.346298,66.479370 252.298843,54.690010 252.337006,42.900887 
	C252.345001,40.432621 252.047806,37.893368 253.639893,35.202034 
z"/>
<path fill="#05BBEC" opacity="1.000000" stroke="none" 
	d="
M255.474487,158.174881 
	C253.640823,159.613373 253.994019,161.850998 253.995224,163.998901 
	C254.005508,182.136246 253.904892,200.274536 254.085251,218.410080 
	C254.119476,221.851746 253.024689,223.315506 249.405945,223.483383 
	C235.865417,222.366989 226.933334,214.981461 222.221603,203.016373 
	C217.469269,190.948212 219.603180,179.455505 228.071228,169.475296 
	C235.093597,161.198929 244.235168,157.603760 255.474487,158.174881 
z"/>
<path fill="#264382" opacity="1.000000" stroke="none" 
	d="
M253.511459,34.792694 
	C253.929611,54.283035 253.939651,73.765770 254.028992,93.248138 
	C254.038345,95.290413 253.714218,96.854500 251.252228,97.711044 
	C238.622620,94.798607 229.080475,82.692146 228.103851,68.948364 
	C227.113693,55.014389 235.735580,41.321308 248.836670,36.091640 
	C250.219940,35.539467 251.694138,35.215057 253.511459,34.792694 
z"/>
</svg>