<svg version="1.1" id="Layer_1" xmlns="http://www.w3.org/2000/svg" xmlns:xlink="http://www.w3.org/1999/xlink" x="0px" y="0px"
	 width="100%" viewBox="0 0 345 289" enable-background="new 0 0 345 289" xml:space="preserve">
<path fill="#F6F7F7" opacity="1.000000" stroke="none" 
	d="
M212.000000,290.000000 
	C141.333359,290.000000 71.166718,290.000000 1.000057,290.000000 
	C1.000038,193.666733 1.000038,97.333450 1.000019,1.000134 
	C115.999901,1.000089 230.999802,1.000089 345.999756,1.000045 
	C345.999847,97.333199 345.999847,193.666397 345.999939,289.999817 
	C301.500000,290.000000 257.000000,290.000000 212.000000,290.000000 
M202.299240,250.768524 
	C202.532471,250.512604 202.765701,250.256668 203.000000,250.000000 
	C203.000000,250.000000 203.001221,249.999390 203.696793,250.028015 
	C204.469406,249.387131 205.242004,248.746246 206.275604,247.854019 
	C206.275604,247.854019 206.637573,247.837799 207.375824,247.897293 
	C207.870804,247.446884 208.365784,246.996475 209.137512,246.174622 
	C209.568939,246.043564 210.000351,245.912506 211.078873,245.749084 
	C211.359406,245.444397 211.639938,245.139709 211.953415,244.936630 
	C211.953415,244.936630 211.863358,244.879166 212.587997,244.961609 
	C213.392197,244.312607 214.196396,243.663589 215.197205,242.777512 
	C215.197205,242.777512 215.504715,242.794815 216.319931,242.910187 
	C220.546967,241.168106 224.815826,239.515274 228.951080,237.577377 
	C229.503494,237.318497 229.379547,235.616364 229.622955,234.677002 
	C229.622955,234.677002 229.650894,234.571823 230.372406,234.793289 
	C231.580933,233.866623 232.789444,232.939972 234.336868,231.526535 
	C234.882141,231.324692 235.427429,231.122849 236.375183,231.462112 
	C237.913361,230.301666 239.451538,229.141220 241.297119,227.498901 
	C241.826309,227.314606 242.355515,227.130310 243.674118,227.001083 
	C246.782867,225.011154 249.891602,223.021240 253.184860,220.794098 
	C253.184860,220.794098 253.484375,220.818573 254.105164,220.775589 
	C254.394547,220.498505 254.683929,220.221420 254.991150,220.003296 
	C254.991150,220.003296 254.949539,219.957596 255.717850,220.005234 
	C257.144928,219.005768 258.572021,218.006317 260.207764,216.771927 
	C260.207764,216.771927 260.520660,216.800827 261.318817,216.914886 
	C262.182373,216.231049 263.045959,215.547211 263.993103,214.956055 
	C263.993103,214.956055 263.881927,214.899368 264.636719,214.969833 
	C266.087006,213.949921 267.537262,212.930023 269.162201,211.708160 
	C269.162201,211.708160 269.416107,211.790695 270.067719,211.746979 
	C270.354431,211.442505 270.641174,211.138031 270.931030,210.929977 
	C270.931030,210.929977 270.853760,210.872253 271.680420,210.966553 
	C277.716888,211.719223 280.656372,206.729904 284.575287,203.763321 
	C287.828064,201.301025 289.553314,197.739182 289.033630,193.359680 
	C288.589935,189.620575 288.379822,185.853760 288.590118,181.437897 
	C288.392548,175.626511 288.195007,169.815140 287.998505,163.275574 
	C287.674622,162.183456 287.350769,161.091339 287.098297,159.580460 
	C287.098297,159.580460 287.194183,159.166626 287.600800,158.804611 
	C287.692871,158.463715 287.784912,158.122818 287.799835,157.372528 
	C287.799835,157.372528 287.953796,156.985382 288.650452,156.925507 
	C289.229797,156.112442 290.348328,155.257004 290.288361,154.494202 
	C290.101166,152.112045 289.119598,149.771912 289.071777,147.402878 
	C288.907074,139.241364 288.842865,131.069565 289.084900,122.911903 
	C289.189850,119.373497 290.022308,115.837227 290.734711,112.342880 
	C291.240021,109.864143 290.378204,108.874672 287.785431,108.318680 
	C287.821716,107.611122 287.857971,106.903564 287.905640,105.715431 
	C287.822906,105.385666 287.630493,105.142914 287.128113,104.944496 
	C287.128113,104.944496 286.989960,104.793320 286.372559,104.289001 
	C283.262604,104.175514 280.152679,104.062019 276.632019,103.493279 
	C275.740936,103.645798 274.849884,103.798325 273.026703,103.953941 
	C242.028885,103.958832 211.031067,103.963722 179.826019,103.659996 
	C179.538910,103.762253 179.251816,103.864510 178.477127,103.967796 
	C178.477127,103.967796 177.989685,103.980515 177.306946,104.101028 
	C176.132431,104.967331 174.957916,105.833641 173.521637,106.893028 
	C173.521637,103.264938 173.521637,100.335274 173.521637,97.245636 
	C175.390091,97.932945 176.736938,98.428375 178.028275,99.000893 
	C178.028275,99.000893 178.050980,98.908691 178.319687,99.565903 
	C182.770721,100.041748 187.219101,100.897758 191.673218,100.928642 
	C212.668655,101.074242 233.665665,100.994011 254.662109,100.993767 
	C263.827209,100.993660 272.996826,101.146561 282.154236,100.880943 
	C284.396820,100.815887 287.645782,100.026138 288.620148,98.449669 
	C291.301819,94.110863 288.511139,83.141319 284.229858,80.212173 
	C279.251465,76.806076 274.007233,73.760201 268.717804,70.849831 
	C266.340424,69.541756 263.573151,68.942307 261.000000,68.000000 
	C261.000000,68.000000 260.979706,68.019875 260.904663,67.252739 
	C259.402100,66.597977 257.899536,65.943214 256.150055,65.320442 
	C256.150055,65.320442 256.002625,65.119812 255.673447,64.574150 
	C255.278473,64.449623 254.883499,64.325089 254.189423,64.222847 
	C254.189423,64.222847 253.991272,63.997700 253.911514,63.337009 
	C252.272385,62.564831 250.633270,61.792652 248.406754,60.976562 
	C247.940887,60.642609 247.475037,60.308651 246.919312,59.225559 
	C245.453537,58.555500 243.987778,57.885445 242.203964,57.215073 
	C242.203964,57.215073 241.999084,56.971828 241.908096,56.294514 
	C234.332184,51.558830 226.829895,46.698368 219.137939,42.159348 
	C216.654007,40.693584 213.671616,40.072517 210.995667,39.010674 
	C210.995667,39.010674 210.942017,39.089603 210.913513,38.351646 
	C208.585709,37.252808 206.257889,36.153965 203.996338,35.003944 
	C203.996338,35.003944 203.951889,35.074894 203.902863,34.379063 
	C199.518677,31.625595 195.404007,28.119286 190.644104,26.415390 
	C188.003845,25.470261 183.557220,23.895990 180.791977,28.256453 
	C180.791977,28.256453 180.496918,28.253305 179.665909,28.109663 
	C173.215195,29.402981 167.878693,32.484097 163.710266,38.107410 
	C163.710266,38.107410 163.356995,38.153534 162.784134,38.215271 
	C162.526443,38.484039 162.268753,38.752811 162.001175,38.998875 
	C162.001175,38.998875 162.019958,39.016842 161.247894,38.994934 
	C158.386993,40.206295 155.419479,41.216537 152.684738,42.665916 
	C143.713043,47.420780 134.694031,52.112804 125.965469,57.288147 
	C121.989021,59.645870 118.650620,63.079693 115.000298,66.000298 
	C115.000298,66.000298 115.021156,66.024277 114.253777,65.987625 
	C112.846176,67.008224 111.438576,68.028824 110.001045,68.999771 
	C110.001045,68.999771 110.046318,69.036095 109.259186,68.989243 
	C105.839844,69.587769 102.382362,70.125160 100.993515,74.024139 
	C100.993515,74.024139 101.086189,74.074806 100.339050,74.020348 
	C98.895439,75.022438 97.451828,76.024529 95.774734,77.221313 
	C95.774734,77.221313 95.470909,77.231804 94.704193,77.134338 
	C93.471535,78.101601 92.238869,79.068863 90.784714,80.233551 
	C90.784714,80.233551 90.488037,80.237801 89.710571,80.132591 
	C87.807945,82.410141 84.757050,84.455460 84.239777,87.013176 
	C83.135117,92.475334 83.120178,98.202019 83.097404,103.822113 
	C83.083954,107.142746 81.914108,108.034973 78.722107,108.108231 
	C74.782318,108.198654 70.791199,108.732269 66.946365,109.614967 
	C61.912521,110.770653 58.223164,115.769867 58.074970,120.833748 
	C57.902054,126.742432 61.121483,132.558884 66.211281,133.778275 
	C70.495529,134.804642 75.061584,134.760071 79.513016,134.942902 
	C82.094833,135.048950 83.698807,135.772827 83.603821,138.640488 
	C83.400536,144.777161 82.929245,150.922806 83.115089,157.048172 
	C83.237434,161.080688 81.865005,162.103745 77.980743,162.107803 
	C68.695496,162.117508 59.412598,162.788132 50.125214,162.901260 
	C43.835567,162.977859 40.519825,169.241150 40.082657,175.134155 
	C39.597744,181.670761 43.280460,187.256973 49.394463,187.896484 
	C58.445713,188.843216 67.630188,189.155930 76.723785,188.818375 
	C82.182716,188.615753 83.721916,190.919769 83.994484,195.519592 
	C84.163864,198.378128 84.277260,201.327347 88.464058,202.180573 
	C88.743805,202.370392 88.931702,202.627365 89.070450,203.658463 
	C92.642769,208.524078 97.849762,210.498520 103.758987,211.795547 
	C103.758987,211.795547 104.001854,211.994476 104.082924,212.730484 
	C105.739983,213.471390 107.397041,214.212280 108.995804,214.992950 
	C108.995804,214.992950 109.042725,214.939178 109.087814,215.660019 
	C111.546425,217.427139 113.858582,219.460983 116.493217,220.907501 
	C122.525185,224.219254 127.672691,229.394653 134.998169,229.997498 
	C134.998169,229.997498 135.032150,229.951187 135.083710,230.681061 
	C137.398315,231.780518 139.712921,232.879974 142.000198,234.000702 
	C142.000198,234.000702 142.017868,233.971329 142.019516,234.728516 
	C146.201675,237.637650 149.554626,242.126038 155.761993,241.791809 
	C155.761993,241.791809 156.006912,241.990875 156.104523,242.692307 
	C158.205734,243.724869 160.306961,244.757446 162.740540,245.804840 
	C162.740540,245.804840 163.003601,246.008514 163.103210,246.695709 
	C169.050598,250.454178 174.822342,254.540390 181.007614,257.854950 
	C185.076874,260.035614 189.527481,259.889465 192.956680,255.944839 
	C192.956680,255.944839 192.873474,255.893845 193.617859,255.921707 
	C195.056259,254.913132 196.494644,253.904556 197.997818,252.979706 
	C197.997818,252.979706 197.908005,252.923691 198.549301,252.953735 
	C199.006760,252.574799 199.464233,252.195847 199.940170,251.914597 
	C199.940170,251.914597 199.853409,251.866074 200.512573,251.923096 
	C200.957733,251.519287 201.402893,251.115494 201.880524,250.826324 
	C201.880524,250.826324 201.763718,250.802689 202.299240,250.768524 
M26.238768,158.271759 
	C31.077314,157.900314 34.339878,155.362701 35.732586,150.788391 
	C36.987434,146.666901 36.005161,142.897385 32.842442,139.856079 
	C29.535189,136.675797 24.268042,135.910492 20.403751,138.211029 
	C16.144299,140.746811 14.232700,144.585678 14.959886,149.550415 
	C15.678624,154.457458 19.231249,157.359634 26.238768,158.271759 
z"/>
<path fill="#2FC9ED" opacity="1.000000" stroke="none" 
	d="
M163.003601,246.008514 
	C163.003601,246.008514 162.740540,245.804840 162.361755,245.522156 
	C159.990952,244.156616 157.998932,243.073746 156.006912,241.990875 
	C156.006912,241.990875 155.761993,241.791809 155.424728,241.487732 
	C150.730927,238.779541 146.374405,236.375443 142.017868,233.971329 
	C142.017868,233.971329 142.000198,234.000702 141.842743,233.700287 
	C139.467560,232.250305 137.249863,231.100754 135.032150,229.951187 
	C135.032150,229.951187 134.998169,229.997498 134.855530,229.685455 
	C126.156174,224.562012 117.599449,219.750595 109.042725,214.939178 
	C109.042725,214.939178 108.995804,214.992950 108.856979,214.687408 
	C107.146057,213.586075 105.573959,212.790268 104.001862,211.994476 
	C104.001854,211.994476 103.758987,211.795547 103.422791,211.491974 
	C98.400314,208.442764 93.714035,205.697128 89.027756,202.951508 
	C88.931702,202.627365 88.743805,202.370392 88.180305,201.718796 
	C86.946198,197.948135 85.483421,194.683395 85.193604,191.317627 
	C84.919006,188.128510 84.084251,186.935410 80.793137,187.021317 
	C73.299179,187.216949 65.796669,187.085648 58.297638,187.086197 
	C56.797840,187.086304 55.296822,187.120682 53.798458,187.073151 
	C46.921196,186.855011 42.145195,182.347458 42.038521,176.002441 
	C41.927792,169.416214 46.709846,164.234940 53.535305,164.080460 
	C62.696297,163.873123 71.865334,163.962738 81.030235,164.025299 
	C83.546562,164.042480 85.128204,163.645706 85.069359,160.531967 
	C84.918259,152.535980 84.964516,144.534714 85.048630,136.536789 
	C85.075272,134.004242 84.181534,132.892776 81.555771,132.989380 
	C78.061508,133.117889 74.541298,133.213928 71.061966,132.942612 
	C62.321297,132.261047 57.349625,123.899818 61.302513,116.381363 
	C63.784824,111.659973 68.091080,109.962265 73.387825,109.998169 
	C85.051308,110.077232 85.190323,109.975655 84.980591,98.212730 
	C84.861580,91.538109 85.310181,85.209641 90.488037,80.237801 
	C90.488037,80.237801 90.784714,80.233551 91.235718,80.102386 
	C92.948112,79.058075 94.209511,78.144943 95.470909,77.231804 
	C95.470909,77.231804 95.774734,77.221313 96.231537,77.103256 
	C98.154297,76.015076 99.620239,75.044937 101.086189,74.074806 
	C101.086189,74.074806 100.993515,74.024139 101.384369,74.021408 
	C104.532249,72.357819 107.289284,70.696953 110.046318,69.036095 
	C110.046318,69.036095 110.001045,68.999771 110.352402,68.992523 
	C112.142891,67.998268 113.582024,67.011269 115.021156,66.024277 
	C115.021156,66.024277 115.000298,66.000298 115.369888,65.988129 
	C121.514381,62.741943 127.342285,59.598385 133.052368,56.253681 
	C142.747330,50.574821 152.368042,44.769188 162.019958,39.016838 
	C162.019958,39.016842 162.001175,38.998875 162.281311,38.958107 
	C162.826630,38.662739 163.091812,38.408134 163.356995,38.153534 
	C163.356995,38.153534 163.710266,38.107410 164.196716,37.970909 
	C169.954422,34.640705 175.225677,31.447004 180.496918,28.253305 
	C180.496918,28.253305 180.791977,28.256453 181.312454,28.157894 
	C183.180328,27.981972 184.527710,27.904610 185.916229,28.305130 
	C185.972458,49.569496 185.988235,70.355980 186.002304,91.142464 
	C186.006943,97.983727 186.004913,97.982170 192.615402,97.990562 
	C224.043503,98.030457 255.471619,98.071266 286.638855,98.424500 
	C284.722656,98.821190 283.067261,98.978813 281.411957,98.978218 
	C246.958298,98.965820 212.504639,98.935486 178.050980,98.908691 
	C178.050980,98.908691 178.028275,99.000893 177.963623,98.630493 
	C177.199661,97.128036 176.606903,95.910782 175.782043,94.879105 
	C172.688614,91.010086 168.676117,89.620422 163.820053,90.656929 
	C158.799545,91.728539 156.028198,95.127731 155.110840,99.861465 
	C154.169312,104.719810 156.094757,108.793625 160.178513,111.527573 
	C165.807571,115.296066 174.626343,113.935959 178.493652,105.069641 
	C188.585052,105.033478 198.210052,104.964195 207.835159,104.942207 
	C234.220062,104.881950 260.605011,104.841576 286.989960,104.793320 
	C286.989960,104.793320 287.128113,104.944496 287.178070,105.173759 
	C287.228027,105.403023 287.104980,105.813126 286.632812,105.869370 
	C254.903259,105.947861 223.645844,105.970299 192.388428,105.992203 
	C186.009354,105.996674 186.010086,105.995773 186.003510,112.570679 
	C185.993683,122.380180 185.982712,132.189682 185.512085,142.079422 
	C174.013962,142.176987 162.975952,142.194321 151.857635,141.968353 
	C151.552948,141.472015 151.328583,141.218948 151.088074,140.664825 
	C150.709793,139.917557 150.347656,139.471313 149.993286,139.012238 
	C150.001053,138.999390 149.974426,139.013000 149.928772,138.689575 
	C148.914841,137.624634 147.946548,136.883118 146.766357,136.003723 
	C146.227264,135.804642 145.900055,135.743439 145.333191,135.374161 
	C141.940445,135.316025 138.787384,135.565964 135.461853,135.828140 
	C135.289398,135.840378 135.006287,136.038895 134.672150,136.066986 
	C133.252014,137.400955 132.166000,138.706818 130.979431,140.167725 
	C130.878876,140.322784 130.840500,140.690369 130.599060,140.914581 
	C130.201157,141.763016 130.044708,142.387222 129.802002,143.228607 
	C129.715759,143.445786 129.731354,143.912857 129.536377,144.201599 
	C129.827515,146.461655 130.313614,148.432983 130.808960,150.568542 
	C130.818222,150.732788 131.013626,150.997452 131.046539,151.305420 
	C131.655655,152.142639 132.231888,152.671875 132.863220,153.190704 
	C132.918335,153.180298 132.814682,153.137375 132.887054,153.397003 
	C133.258545,153.834717 133.557663,154.012787 133.829666,154.148346 
	C133.802551,154.105850 133.789551,154.205841 133.880875,154.496552 
	C134.655670,155.132812 135.339157,155.478378 136.315125,156.026947 
	C137.750549,156.425613 138.893478,156.621292 140.432892,156.919403 
	C143.300781,156.055084 145.772171,155.088318 148.446533,154.040588 
	C148.904709,153.786163 149.062180,153.548065 149.425323,153.104767 
	C150.222748,151.999756 150.716766,151.035294 151.552155,149.837311 
	C163.254501,149.416412 174.615509,149.229034 185.991745,149.506622 
	C186.004639,157.300583 185.888397,164.632751 186.091599,171.956055 
	C186.134659,173.508286 187.344238,175.028168 187.781952,176.733398 
	C187.383163,177.005432 187.218796,177.107025 186.667160,177.192810 
	C185.798538,177.347366 185.317169,177.517746 184.715179,177.617004 
	C184.371918,177.604980 184.280807,177.748230 184.168640,178.098907 
	C184.016083,178.222168 183.862946,178.583282 183.599548,178.740768 
	C183.097351,179.225601 182.858551,179.552948 182.358597,179.988007 
	C181.775558,180.736115 181.453659,181.376495 181.014511,182.249893 
	C180.891052,182.656738 180.884857,182.830536 180.814117,183.152924 
	C180.749573,183.301498 180.833786,183.614349 180.629150,183.876648 
	C180.582779,185.126419 180.741028,186.113922 180.923401,187.059021 
	C180.947495,187.016617 180.856110,187.050705 180.842850,187.387329 
	C181.157120,188.289322 181.484634,188.854706 181.833847,189.582611 
	C181.855530,189.745148 182.069916,189.993317 182.124908,190.318085 
	C183.078796,191.165726 183.977707,191.688614 184.904327,192.133530 
	C184.932053,192.055557 184.828552,192.184708 184.924026,192.418106 
	C185.351959,193.022476 185.684418,193.393433 186.014496,194.247803 
	C186.015839,215.380600 186.019577,236.029953 185.659882,256.758728 
	C181.865082,255.387573 178.360748,254.085861 175.020996,252.448441 
	C170.942993,250.449066 167.003189,248.167847 163.003601,246.008514 
z"/>
<path fill="#03AFE4" opacity="1.000000" stroke="none" 
	d="
M185.972229,141.999191 
	C185.982712,132.189682 185.993683,122.380180 186.003510,112.570679 
	C186.010086,105.995773 186.009354,105.996674 192.388428,105.992203 
	C223.645844,105.970299 254.903259,105.947861 286.822205,105.981941 
	C287.483765,106.038277 287.894257,106.196007 287.894257,106.196007 
	C287.857971,106.903564 287.821716,107.611122 287.758331,109.121002 
	C287.805420,125.610680 287.879608,141.298035 287.953796,156.985382 
	C287.953796,156.985382 287.799835,157.372528 287.613953,157.659363 
	C287.428070,157.946213 286.990570,158.140244 286.526917,158.078308 
	C272.677094,158.095306 259.290985,158.174240 245.581406,158.134003 
	C244.222336,157.534058 243.186707,157.053268 242.020126,156.395508 
	C241.889160,156.218536 241.474091,156.071503 241.341995,155.824463 
	C240.521164,155.294342 239.832413,155.011246 239.132629,154.782623 
	C239.121597,154.837082 239.227692,154.803955 239.114197,154.563446 
	C238.672241,154.252243 238.343796,154.181549 237.741516,153.973907 
	C236.746216,153.513016 236.024734,153.189102 235.180481,152.613098 
	C234.728439,152.201431 234.399139,152.041824 234.061218,151.936295 
	C234.052582,151.990372 234.114029,151.899704 234.044556,151.585999 
	C232.980545,150.551804 231.985977,149.831299 230.884308,148.982361 
	C230.777206,148.853897 230.447372,148.798279 230.270126,148.501251 
	C225.000809,143.781082 219.345581,141.752945 212.356155,142.166245 
	C203.595444,142.684296 194.769836,142.104904 185.972229,141.999191 
z"/>
<path fill="#04B0E3" opacity="1.000000" stroke="none" 
	d="
M286.899719,98.111755 
	C255.471619,98.071266 224.043503,98.030457 192.615402,97.990562 
	C186.004913,97.982170 186.006943,97.983727 186.002304,91.142464 
	C185.988235,70.355980 185.972458,49.569496 186.330261,28.199318 
	C189.005753,28.296505 191.418716,28.733406 193.585938,29.713587 
	C197.125504,31.314426 200.504913,33.269352 203.951889,35.074894 
	C203.951889,35.074894 203.996338,35.003944 204.123627,35.326214 
	C206.481293,36.795525 208.711655,37.942566 210.942017,39.089607 
	C210.942017,39.089603 210.995667,39.010674 211.119232,39.337761 
	C221.494888,45.433842 231.746994,51.202835 241.999084,56.971828 
	C241.999084,56.971828 242.203964,57.215073 242.564667,57.493095 
	C244.286636,58.505646 245.647903,59.240173 247.009171,59.974697 
	C247.475037,60.308651 247.940887,60.642609 248.864685,61.282539 
	C250.878845,62.391579 252.435059,63.194637 253.991272,63.997700 
	C253.991272,63.997700 254.189423,64.222847 254.519714,64.468033 
	C255.234207,64.848747 255.618423,64.984283 256.002625,65.119812 
	C256.002625,65.119812 256.150055,65.320442 256.463989,65.590729 
	C258.178528,66.580643 259.579132,67.300255 260.979706,68.019875 
	C260.979706,68.019875 261.000000,68.000000 261.161896,68.301384 
	C267.048645,71.943954 272.790436,75.256538 278.494354,78.633064 
	C286.895660,83.606354 288.909912,88.324181 286.899719,98.111755 
z"/>
<path fill="#07B0E3" opacity="1.000000" stroke="none" 
	d="
M186.023300,256.679321 
	C186.019577,236.029953 186.015839,215.380600 186.395523,194.241943 
	C187.526810,193.680405 188.274689,193.608170 189.364120,193.595505 
	C190.130081,193.496109 190.554489,193.337158 191.233490,193.250366 
	C192.039886,192.923431 192.591675,192.524323 193.102142,192.098663 
	C193.060806,192.072128 193.074326,192.169449 193.364594,192.142181 
	C194.037567,191.713638 194.420303,191.312378 194.864105,190.918030 
	C194.925186,190.924927 194.911453,190.802765 195.182892,190.699921 
	C195.715591,190.096878 195.976883,189.596649 196.597015,188.913116 
	C198.751846,188.559753 200.547699,188.243500 202.343887,188.241608 
	C228.247787,188.214294 254.151749,188.228317 280.055695,188.234589 
	C288.225098,188.236557 289.997833,190.782928 286.282715,198.237885 
	C284.964630,200.882797 282.352844,203.041397 279.955109,204.948639 
	C277.135040,207.191849 273.905670,208.920486 270.853760,210.872253 
	C270.853760,210.872253 270.931030,210.929977 270.616821,210.928970 
	C270.007080,211.215546 269.711578,211.503113 269.416107,211.790680 
	C269.416107,211.790695 269.162201,211.708160 268.732544,211.829926 
	C266.829224,212.934235 265.355591,213.916809 263.881927,214.899384 
	C263.881927,214.899368 263.993103,214.956055 263.620483,214.940659 
	C262.338776,215.550446 261.429718,216.175644 260.520660,216.800827 
	C260.520660,216.800827 260.207764,216.771927 259.767853,216.904114 
	C257.868469,218.010071 256.408997,218.983826 254.949539,219.957596 
	C254.949539,219.957596 254.991150,220.003296 254.678696,220.006973 
	C254.072281,220.279953 253.778336,220.549271 253.484375,220.818573 
	C253.484375,220.818573 253.184860,220.794098 252.744614,220.944031 
	C249.164474,223.044632 246.024582,224.995316 242.884705,226.946014 
	C242.355515,227.130310 241.826309,227.314606 240.807602,227.759308 
	C238.869614,228.986816 237.421158,229.953903 235.972702,230.920990 
	C235.427429,231.122849 234.882141,231.324692 233.834534,231.788803 
	C232.105103,232.891327 230.877991,233.731567 229.650894,234.571808 
	C229.650894,234.571823 229.622955,234.677002 229.261078,234.693390 
	C224.434372,237.404785 219.969543,240.099808 215.504715,242.794815 
	C215.504715,242.794815 215.197205,242.777512 214.780243,242.907654 
	C213.529984,243.651581 212.696671,244.265381 211.863358,244.879166 
	C211.863358,244.879166 211.953415,244.936630 211.629089,244.933212 
	C211.013763,245.213684 210.722763,245.497559 210.431763,245.781433 
	C210.000351,245.912506 209.568939,246.043564 208.670410,246.418060 
	C207.681381,247.053589 207.159485,247.445694 206.637573,247.837799 
	C206.637573,247.837799 206.275604,247.854019 205.834976,248.002350 
	C204.596634,248.766907 203.798935,249.383163 203.001221,249.999390 
	C203.001221,249.999390 203.000000,250.000000 202.729523,250.016968 
	C202.227264,250.290192 201.995483,250.546432 201.763702,250.802673 
	C201.763718,250.802689 201.880524,250.826324 201.556122,250.783478 
	C200.772293,251.115784 200.312851,251.490936 199.853409,251.866074 
	C199.853409,251.866074 199.940170,251.914597 199.622726,251.872375 
	C198.839523,252.194656 198.373764,252.559174 197.908005,252.923691 
	C197.908005,252.923691 197.997818,252.979706 197.626770,252.957458 
	C195.794983,253.921402 194.334229,254.907623 192.873474,255.893829 
	C192.873474,255.893845 192.956680,255.944839 192.555084,255.906204 
	C190.110092,256.138153 188.066696,256.408752 186.023300,256.679321 
z"/>
<path fill="#E8F6F7" opacity="1.000000" stroke="none" 
	d="
M230.447372,148.798279 
	C230.447372,148.798279 230.777206,148.853897 230.923203,149.318451 
	C232.084152,150.488571 233.099091,151.194138 234.114029,151.899704 
	C234.114029,151.899704 234.052582,151.990372 234.181183,152.192474 
	C234.640945,152.551437 234.972092,152.708298 235.303253,152.865173 
	C236.024734,153.189102 236.746216,153.513016 237.881836,154.180603 
	C238.606537,154.617493 238.917114,154.710724 239.227692,154.803955 
	C239.227692,154.803955 239.121597,154.837082 239.219971,155.073563 
	C240.036942,155.563858 240.755508,155.817688 241.474091,156.071503 
	C241.474091,156.071503 241.889160,156.218536 242.100555,156.787445 
	C244.444397,158.238998 246.563293,159.845245 248.711487,159.885437 
	C261.479523,160.124374 274.254364,160.000916 287.026917,159.999222 
	C287.350769,161.091339 287.674622,162.183456 287.529602,163.634964 
	C272.585846,164.068710 258.110931,164.143051 243.378342,164.170044 
	C242.730026,163.794449 242.339401,163.466232 241.810730,162.864929 
	C241.300766,162.450897 240.928848,162.309937 240.284348,162.130829 
	C239.292297,161.545654 238.572815,160.998627 237.768921,160.123718 
	C237.092560,159.555542 236.500610,159.315247 235.942383,159.043854 
	C235.976105,159.012772 235.952927,159.101517 235.810303,158.835052 
	C235.298645,158.434021 234.929626,158.299438 234.312988,158.116028 
	C233.700455,157.738174 233.335556,157.409149 232.856323,156.833374 
	C232.417145,156.453827 232.092331,156.321045 231.822433,156.183197 
	C231.877350,156.178116 231.832626,156.278931 231.750854,155.919769 
	C230.631439,155.106033 229.593796,154.651474 228.306152,154.150665 
	C227.682266,153.782349 227.308426,153.460297 226.909851,152.782501 
	C224.885406,151.316711 222.885681,150.206665 220.934494,149.064240 
	C220.983017,149.031860 220.921280,149.130859 220.895493,148.949799 
	C220.588760,148.757004 220.307816,148.745239 219.647247,148.747559 
	C218.521362,148.650391 217.775070,148.539154 216.859848,148.096924 
	C206.859070,147.575287 197.027435,147.366898 187.194717,147.253128 
	C186.760223,147.248093 186.315735,148.106766 185.914246,148.679993 
	C185.952591,148.796860 185.976517,149.041672 185.976517,149.041672 
	C174.615509,149.229034 163.254501,149.416412 151.217484,149.945526 
	C150.068283,151.273300 149.595093,152.259323 149.121918,153.245346 
	C149.062180,153.548065 148.904709,153.786163 148.053101,154.004410 
	C144.983246,154.971786 142.509811,155.894363 140.036392,156.816956 
	C138.893478,156.621292 137.750549,156.425613 136.251892,155.713867 
	C135.193939,154.867157 134.491745,154.536499 133.789551,154.205841 
	C133.789551,154.205841 133.802551,154.105850 133.761414,153.884705 
	C133.418396,153.488159 133.116547,153.312775 132.814682,153.137375 
	C132.814682,153.137375 132.918335,153.180298 132.892319,152.852356 
	C132.248749,152.015411 131.631195,151.506424 131.013626,150.997452 
	C131.013626,150.997452 130.818222,150.732788 130.868713,150.119781 
	C130.523254,147.642120 130.127304,145.777496 129.731354,143.912857 
	C129.731354,143.912857 129.715759,143.445786 130.082031,143.035767 
	C130.579025,141.980637 130.709763,141.335495 130.840500,140.690369 
	C130.840500,140.690369 130.878876,140.322784 131.313248,140.126831 
	C132.833847,138.633545 133.920059,137.336212 135.006287,136.038895 
	C135.006287,136.038895 135.289398,135.840378 135.878189,135.880066 
	C139.502274,135.840591 142.537552,135.761414 145.572845,135.682220 
	C145.900055,135.743439 146.227264,135.804642 146.808868,136.328857 
	C148.033646,137.532257 149.004028,138.272629 149.974426,139.013000 
	C149.974426,139.013000 150.001053,138.999390 150.013824,139.314224 
	C150.385788,140.074661 150.745010,140.520279 151.104218,140.965881 
	C151.328583,141.218948 151.552948,141.472015 151.987488,142.338043 
	C153.908112,143.295425 155.617310,143.932022 157.329178,143.939270 
	C175.149017,144.014648 192.969513,144.039368 210.789322,143.962341 
	C216.618301,143.937164 222.435059,143.462845 227.170135,147.982635 
	C227.877533,148.657883 229.336227,148.546021 230.447372,148.798279 
M135.660614,144.088455 
	C134.913940,147.612167 136.394455,150.354843 139.739975,150.698013 
	C141.634232,150.892319 145.048172,149.184433 145.461624,147.691803 
	C146.000076,145.747849 144.916580,142.304871 143.319290,141.052704 
	C140.575607,138.901825 137.708221,140.357101 135.660614,144.088455 
z"/>
<path fill="#E0F4F7" opacity="1.000000" stroke="none" 
	d="
M190.978882,193.178223 
	C190.554489,193.337158 190.130081,193.496109 189.242889,193.277771 
	C187.462921,192.661896 186.145737,192.423294 184.828552,192.184708 
	C184.828552,192.184708 184.932053,192.055557 184.823090,191.812592 
	C183.832733,191.044205 182.951324,190.518768 182.069916,189.993317 
	C182.069916,189.993317 181.855530,189.745148 181.868622,189.229568 
	C181.539856,188.159561 181.197983,187.605133 180.856110,187.050705 
	C180.856110,187.050705 180.947495,187.016617 180.962418,186.625031 
	C180.929489,185.360397 180.881638,184.487381 180.833771,183.614349 
	C180.833786,183.614349 180.749573,183.301498 180.992447,183.089813 
	C181.320526,182.789307 181.494537,182.665054 181.475662,182.617783 
	C181.390991,182.405518 181.251480,182.215134 181.131744,182.016861 
	C181.453659,181.376495 181.775558,180.736115 182.676254,179.897202 
	C183.457672,179.326874 183.660309,178.955078 183.862946,178.583282 
	C183.862946,178.583282 184.016083,178.222168 184.261398,178.066254 
	C184.506714,177.910339 184.835815,177.688126 184.835815,177.688126 
	C185.317169,177.517746 185.798538,177.347366 186.895035,177.407349 
	C188.682968,177.495911 189.855743,177.354095 190.998413,177.096161 
	C190.968277,176.980042 190.975784,176.740234 191.203384,176.873901 
	C191.606842,177.001526 191.782715,176.995483 192.151184,177.141663 
	C192.633942,177.466934 192.851532,177.706039 193.031036,178.348236 
	C194.034363,179.459396 195.003189,180.233505 196.343567,181.211960 
	C198.163910,181.637787 199.612549,182.051392 201.061478,182.052399 
	C229.769012,182.072144 258.476562,182.044128 287.404785,182.042969 
	C287.625458,182.060120 288.066406,182.099197 288.066406,182.099197 
	C288.379822,185.853760 288.589935,189.620575 289.033630,193.359680 
	C289.553314,197.739182 287.828064,201.301025 284.575287,203.763321 
	C280.656372,206.729904 277.716888,211.719223 271.267090,210.919403 
	C273.905670,208.920486 277.135040,207.191849 279.955109,204.948639 
	C282.352844,203.041397 284.964630,200.882797 286.282715,198.237885 
	C289.997833,190.782928 288.225098,188.236557 280.055695,188.234589 
	C254.151749,188.228317 228.247787,188.214294 202.343887,188.241608 
	C200.547699,188.243500 198.751846,188.559753 196.319366,189.007126 
	C195.425735,189.790543 195.168579,190.296646 194.911438,190.802765 
	C194.911453,190.802765 194.925186,190.924927 194.580048,190.969818 
	C193.848038,191.399628 193.461182,191.784546 193.074326,192.169449 
	C193.074326,192.169449 193.060806,192.072128 192.832169,192.069061 
	C192.061981,192.436722 191.520432,192.807465 190.978882,193.178223 
z"/>
<path fill="#DAF6F8" opacity="1.000000" stroke="none" 
	d="
M90.099304,80.185196 
	C85.310181,85.209641 84.861580,91.538109 84.980591,98.212730 
	C85.190323,109.975655 85.051308,110.077232 73.387825,109.998169 
	C68.091080,109.962265 63.784824,111.659973 61.302513,116.381363 
	C57.349625,123.899818 62.321297,132.261047 71.061966,132.942612 
	C74.541298,133.213928 78.061508,133.117889 81.555771,132.989380 
	C84.181534,132.892776 85.075272,134.004242 85.048630,136.536789 
	C84.964516,144.534714 84.918259,152.535980 85.069359,160.531967 
	C85.128204,163.645706 83.546562,164.042480 81.030235,164.025299 
	C71.865334,163.962738 62.696297,163.873123 53.535305,164.080460 
	C46.709846,164.234940 41.927792,169.416214 42.038521,176.002441 
	C42.145195,182.347458 46.921196,186.855011 53.798458,187.073151 
	C55.296822,187.120682 56.797840,187.086304 58.297638,187.086197 
	C65.796669,187.085648 73.299179,187.216949 80.793137,187.021317 
	C84.084251,186.935410 84.919006,188.128510 85.193604,191.317627 
	C85.483421,194.683395 86.946198,197.948135 87.957024,201.623993 
	C84.277260,201.327347 84.163864,198.378128 83.994484,195.519592 
	C83.721916,190.919769 82.182716,188.615753 76.723785,188.818375 
	C67.630188,189.155930 58.445713,188.843216 49.394463,187.896484 
	C43.280460,187.256973 39.597744,181.670761 40.082657,175.134155 
	C40.519825,169.241150 43.835567,162.977859 50.125214,162.901260 
	C59.412598,162.788132 68.695496,162.117508 77.980743,162.107803 
	C81.865005,162.103745 83.237434,161.080688 83.115089,157.048172 
	C82.929245,150.922806 83.400536,144.777161 83.603821,138.640488 
	C83.698807,135.772827 82.094833,135.048950 79.513016,134.942902 
	C75.061584,134.760071 70.495529,134.804642 66.211281,133.778275 
	C61.121483,132.558884 57.902054,126.742432 58.074970,120.833748 
	C58.223164,115.769867 61.912521,110.770653 66.946365,109.614967 
	C70.791199,108.732269 74.782318,108.198654 78.722107,108.108231 
	C81.914108,108.034973 83.083954,107.142746 83.097404,103.822113 
	C83.120178,98.202019 83.135117,92.475334 84.239777,87.013176 
	C84.757050,84.455460 87.807945,82.410141 90.099304,80.185196 
z"/>
<path fill="#2B4580" opacity="1.000000" stroke="none" 
	d="
M25.869762,158.299393 
	C19.231249,157.359634 15.678624,154.457458 14.959886,149.550415 
	C14.232700,144.585678 16.144299,140.746811 20.403751,138.211029 
	C24.268042,135.910492 29.535189,136.675797 32.842442,139.856079 
	C36.005161,142.897385 36.987434,146.666901 35.732586,150.788391 
	C34.339878,155.362701 31.077314,157.900314 25.869762,158.299393 
z"/>
<path fill="#DAF6F8" opacity="1.000000" stroke="none" 
	d="
M178.027313,105.058113 
	C174.626343,113.935959 165.807571,115.296066 160.178513,111.527573 
	C156.094757,108.793625 154.169312,104.719810 155.110840,99.861465 
	C156.028198,95.127731 158.799545,91.728539 163.820053,90.656929 
	C168.676117,89.620422 172.688614,91.010086 175.782043,94.879105 
	C176.606903,95.910782 177.199661,97.128036 177.991394,98.591949 
	C176.736938,98.428375 175.390091,97.932945 173.521637,97.245636 
	C173.521637,100.335274 173.521637,103.264938 173.521637,106.893028 
	C174.957916,105.833641 176.132431,104.967331 177.655212,104.310379 
	C178.011429,104.699188 178.019379,104.878647 178.027313,105.058113 
M171.900925,101.542358 
	C171.335175,100.365807 170.933014,98.317291 170.173248,98.174728 
	C167.809158,97.731163 164.558487,97.091927 163.092987,98.290634 
	C161.854477,99.303711 161.651718,103.596176 162.776550,104.921989 
	C163.912384,106.260757 167.286530,106.100273 169.595459,105.841515 
	C170.482376,105.742119 171.135574,103.557304 171.900925,101.542358 
z"/>
<path fill="#DAF6F8" opacity="1.000000" stroke="none" 
	d="
M286.638855,98.424500 
	C288.909912,88.324181 286.895660,83.606354 278.494354,78.633064 
	C272.790436,75.256538 267.048645,71.943954 261.153320,68.312042 
	C263.573151,68.942307 266.340424,69.541756 268.717804,70.849831 
	C274.007233,73.760201 279.251465,76.806076 284.229858,80.212173 
	C288.511139,83.141319 291.301819,94.110863 288.620148,98.449669 
	C287.645782,100.026138 284.396820,100.815887 282.154236,100.880943 
	C272.996826,101.146561 263.827209,100.993660 254.662109,100.993767 
	C233.665665,100.994011 212.668655,101.074242 191.673218,100.928642 
	C187.219101,100.897758 182.770721,100.041748 178.185333,99.237297 
	C212.504639,98.935486 246.958298,98.965820 281.411957,98.978218 
	C283.067261,98.978813 284.722656,98.821190 286.638855,98.424500 
z"/>
<path fill="#DAF6F8" opacity="1.000000" stroke="none" 
	d="
M161.633926,39.005886 
	C152.368042,44.769188 142.747330,50.574821 133.052368,56.253681 
	C127.342285,59.598385 121.514381,62.741943 115.381142,66.000694 
	C118.650620,63.079693 121.989021,59.645870 125.965469,57.288147 
	C134.694031,52.112804 143.713043,47.420780 152.684738,42.665916 
	C155.419479,41.216537 158.386993,40.206295 161.633926,39.005886 
z"/>
<path fill="#CFF2F6" opacity="1.000000" stroke="none" 
	d="
M178.493652,105.069641 
	C178.019379,104.878647 178.011429,104.699188 177.996582,104.250122 
	C177.989685,103.980515 178.477127,103.967796 178.988205,103.975311 
	C179.677277,103.978096 179.855255,103.973351 180.033249,103.968613 
	C211.031067,103.963722 242.028885,103.958832 273.878357,103.968552 
	C275.500885,103.971611 276.271820,103.960068 277.042725,103.948524 
	C280.152679,104.062019 283.262604,104.175514 286.681274,104.541161 
	C260.605011,104.841576 234.220062,104.881950 207.835159,104.942207 
	C198.210052,104.964195 188.585052,105.033478 178.493652,105.069641 
z"/>
<path fill="#CFF2F6" opacity="1.000000" stroke="none" 
	d="
M288.328247,181.768555 
	C288.066406,182.099197 287.625458,182.060120 287.446320,181.574966 
	C287.267181,175.884628 287.267181,170.679443 287.267181,165.052246 
	C274.119293,165.052246 261.745209,165.087753 249.371750,165.014938 
	C247.458344,165.003662 245.547882,164.495697 243.636047,164.217407 
	C258.110931,164.143051 272.585846,164.068710 287.529114,163.999054 
	C288.195007,169.815140 288.392548,175.626511 288.328247,181.768555 
z"/>
<path fill="#DAF6F8" opacity="1.000000" stroke="none" 
	d="
M241.953583,56.633171 
	C231.746994,51.202835 221.494888,45.433842 211.080017,39.364944 
	C213.671616,40.072517 216.654007,40.693584 219.137939,42.159348 
	C226.829895,46.698368 234.332184,51.558830 241.953583,56.633171 
z"/>
<path fill="#DAF6F8" opacity="1.000000" stroke="none" 
	d="
M185.659882,256.758728 
	C188.066696,256.408752 190.110092,256.138153 192.543793,255.858734 
	C189.527481,259.889465 185.076874,260.035614 181.007614,257.854950 
	C174.822342,254.540390 169.050598,250.454178 163.053406,246.352112 
	C167.003189,248.167847 170.942993,250.449066 175.020996,252.448441 
	C178.360748,254.085861 181.865082,255.387573 185.659882,256.758728 
z"/>
<path fill="#DAF6F8" opacity="1.000000" stroke="none" 
	d="
M109.065262,215.299606 
	C117.599449,219.750595 126.156174,224.562012 134.878632,229.668732 
	C127.672691,229.394653 122.525185,224.219254 116.493217,220.907501 
	C113.858582,219.460983 111.546425,217.427139 109.065262,215.299606 
z"/>
<path fill="#DAF6F8" opacity="1.000000" stroke="none" 
	d="
M288.302124,156.955444 
	C287.879608,141.298035 287.805420,125.610680 287.843567,109.466454 
	C290.378204,108.874672 291.240021,109.864143 290.734711,112.342880 
	C290.022308,115.837227 289.189850,119.373497 289.084900,122.911903 
	C288.842865,131.069565 288.907074,139.241364 289.071777,147.402878 
	C289.119598,149.771912 290.101166,152.112045 290.288361,154.494202 
	C290.348328,155.257004 289.229797,156.112442 288.302124,156.955444 
z"/>
<path fill="#DAF6F8" opacity="1.000000" stroke="none" 
	d="
M203.927368,34.726978 
	C200.504913,33.269352 197.125504,31.314426 193.585938,29.713587 
	C191.418716,28.733406 189.005753,28.296505 186.289124,27.721436 
	C184.527710,27.904610 183.180328,27.981972 181.425232,28.062778 
	C183.557220,23.895990 188.003845,25.470261 190.644104,26.415390 
	C195.404007,28.119286 199.518677,31.625595 203.927368,34.726978 
z"/>
<path fill="#CFF2F6" opacity="1.000000" stroke="none" 
	d="
M287.062622,159.789841 
	C274.254364,160.000916 261.479523,160.124374 248.711487,159.885437 
	C246.563293,159.845245 244.444397,158.238998 242.231537,156.964417 
	C243.186707,157.053268 244.222336,157.534058 245.905823,158.393127 
	C260.028412,158.838989 273.503143,158.906540 287.031189,159.023056 
	C287.084534,159.072021 287.194183,159.166626 287.194183,159.166626 
	C287.194183,159.166626 287.098297,159.580460 287.062622,159.789841 
z"/>
<path fill="#DAF6F8" opacity="1.000000" stroke="none" 
	d="
M180.081421,28.181484 
	C175.225677,31.447004 169.954422,34.640705 164.334625,37.858170 
	C167.878693,32.484097 173.215195,29.402981 180.081421,28.181484 
z"/>
<path fill="#E0F4F7" opacity="1.000000" stroke="none" 
	d="
M215.912323,242.852509 
	C219.969543,240.099808 224.434372,237.404785 229.234009,234.646179 
	C229.379547,235.616364 229.503494,237.318497 228.951080,237.577377 
	C224.815826,239.515274 220.546967,241.168106 215.912323,242.852509 
z"/>
<path fill="#DAF6F8" opacity="1.000000" stroke="none" 
	d="
M142.018692,234.349915 
	C146.374405,236.375443 150.730927,238.779541 155.267059,241.481201 
	C149.554626,242.126038 146.201675,237.637650 142.018692,234.349915 
z"/>
<path fill="#DAF6F8" opacity="1.000000" stroke="none" 
	d="
M89.049103,203.304977 
	C93.714035,205.697128 98.400314,208.442764 103.265900,211.487152 
	C97.849762,210.498520 92.642769,208.524078 89.049103,203.304977 
z"/>
<path fill="#E0F4F7" opacity="1.000000" stroke="none" 
	d="
M243.279419,226.973541 
	C246.024582,224.995316 249.164474,223.044632 252.652359,221.062622 
	C249.891602,223.021240 246.782867,225.011154 243.279419,226.973541 
z"/>
<path fill="#DAF6F8" opacity="1.000000" stroke="none" 
	d="
M109.652756,69.012665 
	C107.289284,70.696953 104.532249,72.357819 101.421852,74.058731 
	C102.382362,70.125160 105.839844,69.587769 109.652756,69.012665 
z"/>
<path fill="#DAF6F8" opacity="1.000000" stroke="none" 
	d="
M210.927765,38.720627 
	C208.711655,37.942566 206.481293,36.795525 204.090515,35.351803 
	C206.257889,36.153965 208.585709,37.252808 210.927765,38.720627 
z"/>
<path fill="#DAF6F8" opacity="1.000000" stroke="none" 
	d="
M135.057922,230.316132 
	C137.249863,231.100754 139.467560,232.250305 141.856400,233.689651 
	C139.712921,232.879974 137.398315,231.780518 135.057922,230.316132 
z"/>
<path fill="#E0F4F7" opacity="1.000000" stroke="none" 
	d="
M236.173950,231.191559 
	C237.421158,229.953903 238.869614,228.986816 240.653900,228.000244 
	C239.451538,229.141220 237.913361,230.301666 236.173950,231.191559 
z"/>
<path fill="#DAF6F8" opacity="1.000000" stroke="none" 
	d="
M156.055725,242.341583 
	C157.998932,243.073746 159.990952,244.156616 162.195572,245.514755 
	C160.306961,244.757446 158.205734,243.724869 156.055725,242.341583 
z"/>
<path fill="#DAF6F8" opacity="1.000000" stroke="none" 
	d="
M253.951385,63.667355 
	C252.435059,63.194637 250.878845,62.391579 249.158386,61.304497 
	C250.633270,61.792652 252.272385,62.564831 253.951385,63.667355 
z"/>
<path fill="#DAF6F8" opacity="1.000000" stroke="none" 
	d="
M114.637466,66.005951 
	C113.582024,67.011269 112.142891,67.998268 110.367371,69.017349 
	C111.438576,68.028824 112.846176,67.008224 114.637466,66.005951 
z"/>
<path fill="#DAF6F8" opacity="1.000000" stroke="none" 
	d="
M104.042389,212.362473 
	C105.573959,212.790268 107.146057,213.586075 108.886139,214.667526 
	C107.397041,214.212280 105.739983,213.471390 104.042389,212.362473 
z"/>
<path fill="#E0F4F7" opacity="1.000000" stroke="none" 
	d="
M264.259338,214.934601 
	C265.355591,213.916809 266.829224,212.934235 268.645203,211.930893 
	C267.537262,212.930023 266.087006,213.949921 264.259338,214.934601 
z"/>
<path fill="#E0F4F7" opacity="1.000000" stroke="none" 
	d="
M255.333694,219.981415 
	C256.408997,218.983826 257.868469,218.010071 259.663513,217.021576 
	C258.572021,218.006317 257.144928,219.005768 255.333694,219.981415 
z"/>
<path fill="#DAF6F8" opacity="1.000000" stroke="none" 
	d="
M100.712616,74.047577 
	C99.620239,75.044937 98.154297,76.015076 96.348282,77.005913 
	C97.451828,76.024529 98.895439,75.022438 100.712616,74.047577 
z"/>
<path fill="#DAF6F8" opacity="1.000000" stroke="none" 
	d="
M260.942200,67.636307 
	C259.579132,67.300255 258.178528,66.580643 256.587463,65.574738 
	C257.899536,65.943214 259.402100,66.597977 260.942200,67.636307 
z"/>
<path fill="#DAF6F8" opacity="1.000000" stroke="none" 
	d="
M95.087555,77.183075 
	C94.209511,78.144943 92.948112,79.058075 91.346458,80.003662 
	C92.238869,79.068863 93.471535,78.101601 95.087555,77.183075 
z"/>
<path fill="#DAF6F8" opacity="1.000000" stroke="none" 
	d="
M193.245667,255.907776 
	C194.334229,254.907623 195.794983,253.921402 197.594391,252.915588 
	C196.494644,253.904556 195.056259,254.913132 193.245667,255.907776 
z"/>
<path fill="#DAF6F8" opacity="1.000000" stroke="none" 
	d="
M246.964233,59.600128 
	C245.647903,59.240173 244.286636,58.505646 242.723694,57.493256 
	C243.987778,57.885445 245.453537,58.555500 246.964233,59.600128 
z"/>
<path fill="#E0F4F7" opacity="1.000000" stroke="none" 
	d="
M230.011658,234.682556 
	C230.877991,233.731567 232.105103,232.891327 233.665100,232.032196 
	C232.789444,232.939972 231.580933,233.866623 230.011658,234.682556 
z"/>
<path fill="#E0F4F7" opacity="1.000000" stroke="none" 
	d="
M260.919739,216.857849 
	C261.429718,216.175644 262.338776,215.550446 263.578674,214.894318 
	C263.045959,215.547211 262.182373,216.231049 260.919739,216.857849 
z"/>
<path fill="#E0F4F7" opacity="1.000000" stroke="none" 
	d="
M212.225677,244.920380 
	C212.696671,244.265381 213.529984,243.651581 214.681946,243.026184 
	C214.196396,243.663589 213.392197,244.312607 212.225677,244.920380 
z"/>
<path fill="#DAF6F8" opacity="1.000000" stroke="none" 
	d="
M203.349014,250.013702 
	C203.798935,249.383163 204.596634,248.766907 205.704468,248.128006 
	C205.242004,248.746246 204.469406,249.387131 203.349014,250.013702 
z"/>
<path fill="#DAF6F8" opacity="1.000000" stroke="none" 
	d="
M276.837372,103.720901 
	C276.271820,103.960068 275.500885,103.971611 274.344391,103.966995 
	C274.849884,103.798325 275.740936,103.645798 276.837372,103.720901 
z"/>
<path fill="#DAF6F8" opacity="1.000000" stroke="none" 
	d="
M207.006699,247.867554 
	C207.159485,247.445694 207.681381,247.053589 208.532043,246.603760 
	C208.365784,246.996475 207.870804,247.446884 207.006699,247.867554 
z"/>
<path fill="#DAF6F8" opacity="1.000000" stroke="none" 
	d="
M200.182983,251.894592 
	C200.312851,251.490936 200.772293,251.115784 201.539886,250.726166 
	C201.402893,251.115494 200.957733,251.519287 200.182983,251.894592 
z"/>
<path fill="#DAF6F8" opacity="1.000000" stroke="none" 
	d="
M198.228653,252.938721 
	C198.373764,252.559174 198.839523,252.194656 199.613495,251.823517 
	C199.464233,252.195847 199.006760,252.574799 198.228653,252.938721 
z"/>
<path fill="#DAF6F8" opacity="1.000000" stroke="none" 
	d="
M202.031464,250.785599 
	C201.995483,250.546432 202.227264,250.290192 202.728973,250.017349 
	C202.765701,250.256668 202.532471,250.512604 202.031464,250.785599 
z"/>
<path fill="#DAF6F8" opacity="1.000000" stroke="none" 
	d="
M210.755310,245.765259 
	C210.722763,245.497559 211.013763,245.213684 211.612610,244.882416 
	C211.639938,245.139709 211.359406,245.444397 210.755310,245.765259 
z"/>
<path fill="#DAF6F8" opacity="1.000000" stroke="none" 
	d="
M179.929626,103.814301 
	C179.855255,103.973351 179.677277,103.978096 179.231995,103.974800 
	C179.251816,103.864510 179.538910,103.762253 179.929626,103.814301 
z"/>
<path fill="#CFF2F6" opacity="1.000000" stroke="none" 
	d="
M287.899963,105.955719 
	C287.894257,106.196007 287.483765,106.038277 287.294373,105.925705 
	C287.104980,105.813126 287.228027,105.403023 287.278198,105.195091 
	C287.630493,105.142914 287.822906,105.385666 287.899963,105.955719 
z"/>
<path fill="#DAF6F8" opacity="1.000000" stroke="none" 
	d="
M255.838043,64.846985 
	C255.618423,64.984283 255.234207,64.848747 254.669266,64.456886 
	C254.883499,64.325089 255.278473,64.449623 255.838043,64.846985 
z"/>
<path fill="#E0F4F7" opacity="1.000000" stroke="none" 
	d="
M253.794769,220.797089 
	C253.778336,220.549271 254.072281,220.279953 254.669769,219.977493 
	C254.683929,220.221420 254.394547,220.498505 253.794769,220.797089 
z"/>
<path fill="#CFF2F6" opacity="1.000000" stroke="none" 
	d="
M286.990570,158.140244 
	C286.990570,158.140244 287.428070,157.946213 287.652527,157.864075 
	C287.784912,158.122818 287.692871,158.463715 287.397491,158.985626 
	C287.194183,159.166626 287.084534,159.072021 287.079590,158.815323 
	C287.074677,158.558624 286.990570,158.140244 286.990570,158.140244 
z"/>
<path fill="#DAF6F8" opacity="1.000000" stroke="none" 
	d="
M163.070557,38.184402 
	C163.091812,38.408134 162.826630,38.662739 162.286255,38.969463 
	C162.268753,38.752811 162.526443,38.484039 163.070557,38.184402 
z"/>
<path fill="#E0F4F7" opacity="1.000000" stroke="none" 
	d="
M269.741913,211.768829 
	C269.711578,211.503113 270.007080,211.215546 270.615234,210.880768 
	C270.641174,211.138031 270.354431,211.442505 269.741913,211.768829 
z"/>
<path fill="#08AFE2" opacity="1.000000" stroke="none" 
	d="
M243.378342,164.170044 
	C245.547882,164.495697 247.458344,165.003662 249.371750,165.014938 
	C261.745209,165.087753 274.119293,165.052246 287.267181,165.052246 
	C287.267181,170.679443 287.267181,175.884628 287.225647,181.557800 
	C258.476562,182.044128 229.769012,182.072144 201.061478,182.052399 
	C199.612549,182.051392 198.163910,181.637787 196.282074,180.895294 
	C194.898178,179.586594 193.947357,178.798904 192.996536,178.011200 
	C192.851532,177.706039 192.633942,177.466934 192.095856,176.971832 
	C191.557220,176.679947 191.266495,176.710083 190.975784,176.740234 
	C190.975784,176.740234 190.968277,176.980042 190.644562,176.937103 
	C189.552704,176.783752 188.784531,176.673340 188.016373,176.562943 
	C187.344238,175.028168 186.134659,173.508286 186.091599,171.956055 
	C185.888397,164.632751 186.004639,157.300583 185.991745,149.506622 
	C185.976517,149.041672 185.952591,148.796860 186.382263,148.780914 
	C196.884216,148.652634 206.956512,148.540268 217.028793,148.427917 
	C217.775070,148.539154 218.521362,148.650391 219.846207,148.902374 
	C220.590271,149.072372 220.755768,149.101608 220.921280,149.130859 
	C220.921280,149.130859 220.983017,149.031860 221.084259,149.362762 
	C223.101837,150.841873 225.018204,151.990051 226.934570,153.138229 
	C227.308426,153.460297 227.682266,153.782349 228.478058,154.445007 
	C229.877533,155.283386 230.855072,155.781158 231.832626,156.278931 
	C231.832626,156.278931 231.877350,156.178116 231.932175,156.431915 
	C232.314896,156.817184 232.642776,156.948654 232.970673,157.080124 
	C233.335556,157.409149 233.700455,157.738174 234.473022,158.365860 
	C235.238098,158.810181 235.595520,158.955841 235.952927,159.101517 
	C235.952927,159.101517 235.976105,159.012772 236.091461,159.316620 
	C236.755646,159.897507 237.304489,160.174545 237.853333,160.451599 
	C238.572815,160.998627 239.292297,161.545654 240.446747,162.381149 
	C241.237396,162.825745 241.593094,162.981873 241.948776,163.138016 
	C242.339401,163.466232 242.730026,163.794449 243.378342,164.170044 
z"/>
<path fill="#CFF2F6" opacity="1.000000" stroke="none" 
	d="
M230.270126,148.501251 
	C229.336227,148.546021 227.877533,148.657883 227.170135,147.982635 
	C222.435059,143.462845 216.618301,143.937164 210.789322,143.962341 
	C192.969513,144.039368 175.149017,144.014648 157.329178,143.939270 
	C155.617310,143.932022 153.908112,143.295425 152.067810,142.581314 
	C162.975952,142.194321 174.013962,142.176987 185.512085,142.079422 
	C194.769836,142.104904 203.595444,142.684296 212.356155,142.166245 
	C219.345581,141.752945 225.000809,143.781082 230.270126,148.501251 
z"/>
<path fill="#CFF2F6" opacity="1.000000" stroke="none" 
	d="
M145.333191,135.374146 
	C142.537552,135.761414 139.502274,135.840591 136.050644,135.867828 
	C138.787384,135.565964 141.940445,135.316025 145.333191,135.374146 
z"/>
<path fill="#CFF2F6" opacity="1.000000" stroke="none" 
	d="
M140.432892,156.919403 
	C142.509811,155.894363 144.983246,154.971786 147.850128,154.085388 
	C145.772171,155.088318 143.300781,156.055084 140.432892,156.919403 
z"/>
<path fill="#CFF2F6" opacity="1.000000" stroke="none" 
	d="
M129.536377,144.201599 
	C130.127304,145.777496 130.523254,147.642120 130.859467,149.955536 
	C130.313614,148.432983 129.827515,146.461655 129.536377,144.201599 
z"/>
<path fill="#CFF2F6" opacity="1.000000" stroke="none" 
	d="
M134.672150,136.066986 
	C133.920059,137.336212 132.833847,138.633545 131.413803,139.971771 
	C132.166000,138.706818 133.252014,137.400955 134.672150,136.066986 
z"/>
<path fill="#CFF2F6" opacity="1.000000" stroke="none" 
	d="
M149.928772,138.689575 
	C149.004028,138.272629 148.033646,137.532257 147.020752,136.466736 
	C147.946548,136.883118 148.914841,137.624634 149.928772,138.689575 
z"/>
<path fill="#CFF2F6" opacity="1.000000" stroke="none" 
	d="
M184.924026,192.418106 
	C186.145737,192.423294 187.462921,192.661896 188.901337,193.218201 
	C188.274689,193.608170 187.526810,193.680405 186.397919,193.758514 
	C185.684418,193.393433 185.351959,193.022476 184.924026,192.418106 
z"/>
<path fill="#CFF2F6" opacity="1.000000" stroke="none" 
	d="
M149.425308,153.104767 
	C149.595093,152.259323 150.068283,151.273300 150.876129,150.179062 
	C150.716766,151.035294 150.222748,151.999756 149.425308,153.104767 
z"/>
<path fill="#CFF2F6" opacity="1.000000" stroke="none" 
	d="
M182.124908,190.318085 
	C182.951324,190.518768 183.832733,191.044205 184.795380,191.890564 
	C183.977707,191.688614 183.078796,191.165726 182.124908,190.318085 
z"/>
<path fill="#CFF2F6" opacity="1.000000" stroke="none" 
	d="
M187.781952,176.733398 
	C188.784531,176.673340 189.552704,176.783752 190.674698,177.053223 
	C189.855743,177.354095 188.682968,177.495911 187.282303,177.423172 
	C187.218796,177.107025 187.383163,177.005432 187.781952,176.733398 
z"/>
<path fill="#CFF2F6" opacity="1.000000" stroke="none" 
	d="
M133.880875,154.496552 
	C134.491745,154.536499 135.193939,154.867157 135.959381,155.510864 
	C135.339157,155.478378 134.655670,155.132812 133.880875,154.496552 
z"/>
<path fill="#CFF2F6" opacity="1.000000" stroke="none" 
	d="
M131.046539,151.305420 
	C131.631195,151.506424 132.248749,152.015411 132.837204,152.862762 
	C132.231888,152.671875 131.655655,152.142639 131.046539,151.305420 
z"/>
<path fill="#CFF2F6" opacity="1.000000" stroke="none" 
	d="
M180.629150,183.876648 
	C180.881638,184.487381 180.929489,185.360397 180.938324,186.667419 
	C180.741028,186.113922 180.582779,185.126419 180.629150,183.876648 
z"/>
<path fill="#CFF2F6" opacity="1.000000" stroke="none" 
	d="
M151.088074,140.664825 
	C150.745010,140.520279 150.385788,140.074661 150.006042,139.327072 
	C150.347656,139.471313 150.709793,139.917557 151.088074,140.664825 
z"/>
<path fill="#CFF2F6" opacity="1.000000" stroke="none" 
	d="
M180.842850,187.387329 
	C181.197983,187.605133 181.539856,188.159561 181.846939,189.067047 
	C181.484634,188.854706 181.157120,188.289322 180.842850,187.387329 
z"/>
<path fill="#CFF2F6" opacity="1.000000" stroke="none" 
	d="
M130.599060,140.914581 
	C130.709763,141.335495 130.579025,141.980637 130.168274,142.818604 
	C130.044708,142.387222 130.201157,141.763016 130.599060,140.914581 
z"/>
<path fill="#CFF2F6" opacity="1.000000" stroke="none" 
	d="
M132.887054,153.397003 
	C133.116547,153.312775 133.418396,153.488159 133.788513,153.927216 
	C133.557663,154.012787 133.258545,153.834717 132.887054,153.397003 
z"/>
<path fill="#CFF2F6" opacity="1.000000" stroke="none" 
	d="
M184.715179,177.617004 
	C184.835815,177.688126 184.506714,177.910339 184.413940,177.942993 
	C184.280807,177.748230 184.371918,177.604980 184.715179,177.617004 
z"/>
<path fill="#CFF2F6" opacity="1.000000" stroke="none" 
	d="
M183.599548,178.740768 
	C183.660309,178.955078 183.457672,179.326874 182.937393,179.789490 
	C182.858551,179.552948 183.097351,179.225601 183.599548,178.740768 
z"/>
<path fill="#CFF2F6" opacity="1.000000" stroke="none" 
	d="
M181.014496,182.249893 
	C181.251480,182.215134 181.390991,182.405518 181.475662,182.617783 
	C181.494537,182.665054 181.320526,182.789307 181.056992,182.941223 
	C180.884857,182.830536 180.891052,182.656738 181.014496,182.249893 
z"/>
<path fill="#2FC9ED" opacity="1.000000" stroke="none" 
	d="
M286.526917,158.078308 
	C286.990570,158.140244 287.074677,158.558624 287.026276,158.766357 
	C273.503143,158.906540 260.028412,158.838989 246.229279,158.512299 
	C259.290985,158.174240 272.677094,158.095306 286.526917,158.078308 
z"/>
<path fill="#CFF2F6" opacity="1.000000" stroke="none" 
	d="
M234.044556,151.585999 
	C233.099091,151.194138 232.084152,150.488571 231.030304,149.446915 
	C231.985977,149.831299 232.980545,150.551804 234.044556,151.585999 
z"/>
<path fill="#CFF2F6" opacity="1.000000" stroke="none" 
	d="
M241.341995,155.824463 
	C240.755508,155.817688 240.036942,155.563858 239.231018,155.019104 
	C239.832413,155.011246 240.521164,155.294342 241.341995,155.824463 
z"/>
<path fill="#CFF2F6" opacity="1.000000" stroke="none" 
	d="
M235.180481,152.613098 
	C234.972092,152.708298 234.640945,152.551437 234.189819,152.138397 
	C234.399139,152.041824 234.728439,152.201431 235.180481,152.613098 
z"/>
<path fill="#CFF2F6" opacity="1.000000" stroke="none" 
	d="
M239.114197,154.563446 
	C238.917114,154.710724 238.606537,154.617493 238.155640,154.317566 
	C238.343796,154.181549 238.672241,154.252243 239.114197,154.563446 
z"/>
<path fill="#CFF2F6" opacity="1.000000" stroke="none" 
	d="
M191.233490,193.250381 
	C191.520432,192.807465 192.061981,192.436722 192.873505,192.095596 
	C192.591675,192.524323 192.039886,192.923431 191.233490,193.250381 
z"/>
<path fill="#CFF2F6" opacity="1.000000" stroke="none" 
	d="
M193.364594,192.142181 
	C193.461182,191.784546 193.848038,191.399628 194.518967,190.962921 
	C194.420303,191.312378 194.037567,191.713638 193.364594,192.142181 
z"/>
<path fill="#CFF2F6" opacity="1.000000" stroke="none" 
	d="
M195.182877,190.699921 
	C195.168579,190.296646 195.425735,189.790543 195.960526,189.190430 
	C195.976883,189.596649 195.715591,190.096878 195.182877,190.699921 
z"/>
<path fill="#45C7E3" opacity="1.000000" stroke="none" 
	d="
M135.801041,143.745972 
	C137.708221,140.357101 140.575607,138.901825 143.319290,141.052704 
	C144.916580,142.304871 146.000076,145.747849 145.461624,147.691803 
	C145.048172,149.184433 141.634232,150.892319 139.739975,150.698013 
	C136.394455,150.354843 134.913940,147.612167 135.801041,143.745972 
z"/>
<path fill="#CFF2F6" opacity="1.000000" stroke="none" 
	d="
M216.859848,148.096909 
	C206.956512,148.540268 196.884216,148.652634 186.343903,148.664062 
	C186.315735,148.106766 186.760223,147.248093 187.194717,147.253128 
	C197.027435,147.366898 206.859070,147.575287 216.859848,148.096909 
z"/>
<path fill="#CFF2F6" opacity="1.000000" stroke="none" 
	d="
M226.909851,152.782501 
	C225.018204,151.990051 223.101837,150.841873 221.035736,149.395142 
	C222.885681,150.206665 224.885406,151.316711 226.909851,152.782501 
z"/>
<path fill="#CFF2F6" opacity="1.000000" stroke="none" 
	d="
M231.750854,155.919769 
	C230.855072,155.781158 229.877533,155.283386 228.728073,154.491272 
	C229.593796,154.651474 230.631439,155.106033 231.750854,155.919769 
z"/>
<path fill="#CFF2F6" opacity="1.000000" stroke="none" 
	d="
M237.768921,160.123718 
	C237.304489,160.174545 236.755646,159.897507 236.057739,159.347702 
	C236.500610,159.315247 237.092560,159.555542 237.768921,160.123718 
z"/>
<path fill="#CFF2F6" opacity="1.000000" stroke="none" 
	d="
M235.810303,158.835052 
	C235.595520,158.955841 235.238098,158.810181 234.720642,158.414703 
	C234.929626,158.299438 235.298645,158.434021 235.810303,158.835052 
z"/>
<path fill="#CFF2F6" opacity="1.000000" stroke="none" 
	d="
M220.895493,148.949799 
	C220.755768,149.101608 220.590271,149.072372 220.225830,148.888306 
	C220.307816,148.745239 220.588760,148.757004 220.895493,148.949799 
z"/>
<path fill="#CFF2F6" opacity="1.000000" stroke="none" 
	d="
M232.856323,156.833374 
	C232.642776,156.948654 232.314896,156.817184 231.877258,156.436996 
	C232.092331,156.321045 232.417145,156.453827 232.856323,156.833374 
z"/>
<path fill="#CFF2F6" opacity="1.000000" stroke="none" 
	d="
M241.810730,162.864929 
	C241.593094,162.981873 241.237396,162.825745 240.719330,162.419281 
	C240.928848,162.309937 241.300766,162.450897 241.810730,162.864929 
z"/>
<path fill="#CFF2F6" opacity="1.000000" stroke="none" 
	d="
M193.031036,178.348236 
	C193.947357,178.798904 194.898178,179.586594 195.910522,180.690948 
	C195.003189,180.233505 194.034363,179.459396 193.031036,178.348236 
z"/>
<path fill="#2FC9ED" opacity="1.000000" stroke="none" 
	d="
M191.203384,176.873901 
	C191.266495,176.710083 191.557220,176.679947 191.903259,176.819626 
	C191.782715,176.995483 191.606842,177.001526 191.203384,176.873901 
z"/>
<path fill="#42C7E3" opacity="1.000000" stroke="none" 
	d="
M171.898102,101.932541 
	C171.135574,103.557304 170.482376,105.742119 169.595459,105.841515 
	C167.286530,106.100273 163.912384,106.260757 162.776550,104.921989 
	C161.651718,103.596176 161.854477,99.303711 163.092987,98.290634 
	C164.558487,97.091927 167.809158,97.731163 170.173248,98.174728 
	C170.933014,98.317291 171.335175,100.365807 171.898102,101.932541 
z"/>
</svg>