<svg version="1.1" id="Layer_1" xmlns="http://www.w3.org/2000/svg" xmlns:xlink="http://www.w3.org/1999/xlink" x="0px" y="0px"
	 width="100%" viewBox="0 0 517 408" enable-background="new 0 0 517 408" xml:space="preserve">
<path fill="#F6F7F7" opacity="1.000000" stroke="none" 
	d="
M366.000000,409.000000 
	C244.000000,409.000000 122.500000,409.000000 1.000000,409.000000 
	C1.000000,273.000000 1.000000,137.000000 1.000000,1.000000 
	C173.333328,1.000000 345.666656,1.000000 518.000000,1.000000 
	C518.000000,137.000000 518.000000,273.000000 518.000000,409.000000 
	C467.500000,409.000000 417.000000,409.000000 366.000000,409.000000 
M288.944916,296.403839 
	C288.642792,296.263733 288.340698,296.123657 287.593323,295.467377 
	C283.061279,293.669250 278.529205,291.871124 273.259888,289.710205 
	C271.786835,289.486786 270.180054,288.766205 268.862396,289.120575 
	C260.203217,291.449371 254.853821,286.094818 249.370880,281.008850 
	C247.176834,278.973633 245.253998,276.617340 242.922668,274.766205 
	C240.129425,272.548218 237.266357,270.142578 234.025650,268.810547 
	C218.369263,262.375214 205.370911,252.566406 195.757538,238.672836 
	C191.262329,232.176208 187.776993,224.980804 183.727112,217.915741 
	C183.558014,217.923615 183.037369,217.839767 182.590698,217.984375 
	C167.903717,222.739532 157.546646,238.870026 159.284805,254.247620 
	C161.226898,271.429321 174.302231,285.446564 190.626022,285.807373 
	C198.918427,285.990692 205.383591,288.603119 211.902100,293.887146 
	C213.465897,295.053253 215.029709,296.219360 216.659973,297.405975 
	C216.659973,297.405975 216.652649,297.475128 216.842224,298.065216 
	C218.084503,299.154785 219.326782,300.244324 220.637573,301.340393 
	C220.637573,301.340393 220.664978,301.403503 220.804153,301.858521 
	C220.987701,302.148315 221.250183,302.309723 221.801224,302.223663 
	C221.801224,302.223663 221.629211,302.392639 221.828751,303.025452 
	C225.124435,306.765686 228.420120,310.505951 231.971268,314.205353 
	C231.971268,314.205353 231.717117,314.225922 231.926971,315.125061 
	C232.012222,317.247620 232.210083,319.372650 232.164246,321.492371 
	C231.889297,334.209595 235.407837,345.098145 246.886337,352.006104 
	C246.886337,352.006104 246.776443,352.262756 247.034027,352.855377 
	C248.720306,353.815308 250.406586,354.775238 252.171356,355.877441 
	C252.171356,355.877441 252.333160,355.862061 252.773743,356.367004 
	C257.190979,357.271973 261.608215,358.176941 266.758209,359.195465 
	C267.496796,359.158356 268.235382,359.121216 269.608582,359.356842 
	C273.903717,358.183075 278.198822,357.009308 282.755066,355.803192 
	C282.755066,355.803192 282.919098,355.597504 283.491760,355.600555 
	C284.056335,355.134064 284.620941,354.667603 285.101471,354.042114 
	C285.101471,354.042114 285.138062,354.218201 285.725861,354.190125 
	C286.177002,353.853058 286.628113,353.515991 287.535889,353.024994 
	C287.831970,352.871338 288.054169,352.645111 288.858704,352.181946 
	C290.244568,350.807587 291.630432,349.433228 293.535004,347.699493 
	C293.650787,347.523895 293.766571,347.348297 294.387756,347.057922 
	C294.676910,346.426117 294.966064,345.794312 295.149292,345.114441 
	C295.149292,345.114441 295.190002,345.223358 295.687714,345.038147 
	C295.837555,344.728790 295.987366,344.419434 295.994934,344.070312 
	C295.994934,344.070312 296.134521,344.127686 296.732239,343.852814 
	C297.981140,341.187775 299.230042,338.522736 300.727417,335.576904 
	C300.727417,335.576904 300.775269,335.205017 301.098022,335.204346 
	C301.320099,334.881195 301.281891,334.602386 301.332001,333.557373 
	C301.473236,332.691101 301.614502,331.824799 302.092194,330.661560 
	C302.076904,330.112640 302.061646,329.563721 302.240112,328.127716 
	C302.180908,325.415619 302.121674,322.703552 302.321320,319.412781 
	C301.671814,317.105133 301.022308,314.797455 300.344147,312.200836 
	C300.344147,312.200836 300.133636,312.000793 300.116882,311.344971 
	C299.681854,310.414398 299.246796,309.483826 298.782410,308.281830 
	C298.782410,308.281830 298.572998,308.106689 298.573669,307.530853 
	C298.100403,306.968811 297.627106,306.406799 297.035706,305.934021 
	C297.035706,305.934021 297.177612,305.891724 297.127991,305.338593 
	C296.701721,304.803101 296.275452,304.267609 295.577972,303.253418 
	C295.427063,303.149231 295.276123,303.045044 294.977631,302.399384 
	C294.692719,302.170319 294.407806,301.941254 293.980438,301.316711 
	C293.829834,301.066864 293.618774,300.888519 293.152069,300.276215 
	C292.851349,300.092773 292.550629,299.909332 292.169464,299.990234 
	C292.169464,299.990234 292.266205,299.725952 292.092896,299.246490 
	C291.809113,299.076385 291.525330,298.906311 291.023651,298.988922 
	C291.023651,298.988922 291.257385,298.750610 291.075745,298.259888 
	C290.776306,298.099854 290.476868,297.939850 290.047729,297.947845 
	C290.047729,297.947845 290.209991,297.811005 290.017609,297.321533 
	C289.713715,297.168243 289.409821,297.014954 289.018219,296.984955 
	C289.018219,296.984955 289.131439,296.884583 288.944916,296.403839 
M272.824768,248.002151 
	C274.286133,247.701767 275.748016,247.404053 277.208740,247.100601 
	C310.588196,240.166031 331.012726,207.731018 322.880890,174.572144 
	C317.044586,150.773712 294.653931,131.253479 271.114990,130.026352 
	C228.651108,127.056999 197.586578,163.725052 207.939026,204.598190 
	C215.012787,232.526459 244.207687,252.236832 272.824768,248.002151 
M273.144318,19.000158 
	C254.576004,20.701820 240.923676,35.610676 240.970764,54.134922 
	C241.017044,72.347801 254.892685,87.336281 273.893433,88.956764 
	C280.880463,87.854111 286.767029,90.473366 291.659058,95.023888 
	C298.461212,101.351151 304.881897,108.090439 311.416565,114.702095 
	C313.394135,116.702957 314.952118,119.193932 317.139618,120.899467 
	C329.920258,130.864075 339.446838,143.237656 345.141907,158.416946 
	C346.297943,161.498154 347.947479,162.268219 351.033569,162.148102 
	C369.504669,161.429138 384.335144,145.855194 384.260010,127.051262 
	C384.183319,107.857903 369.440399,91.822174 350.580811,92.292412 
	C342.414764,92.496025 336.966034,89.633934 331.798370,84.452606 
	C327.922607,80.566612 323.945557,76.757828 320.347778,72.623840 
	C314.719727,66.157082 310.944000,59.332825 310.726471,49.938137 
	C310.306946,31.820566 292.187561,17.386292 273.144318,19.000158 
M155.942169,204.372787 
	C158.034058,198.321365 161.634552,192.319626 161.835876,186.205948 
	C162.087387,178.568130 164.621155,172.589127 169.335510,167.323105 
	C174.760406,161.263397 180.744858,155.707169 186.419510,149.867371 
	C189.168961,147.037933 192.125381,144.311890 194.369217,141.105896 
	C203.767517,127.677391 215.668381,117.247307 230.814301,110.963562 
	C235.170700,109.156174 235.546234,106.957802 234.637665,103.057518 
	C230.380737,84.783134 212.887650,73.084015 194.271667,76.225006 
	C176.163834,79.280258 163.486160,96.197289 165.236816,114.650803 
	C165.432968,116.718460 164.969635,119.591019 163.642685,120.939651 
	C155.390564,129.326630 147.067856,137.690170 138.169846,145.367584 
	C135.491684,147.678391 130.933502,147.883850 127.187294,148.865814 
	C121.770416,150.285660 115.887192,150.656189 110.947990,153.026779 
	C98.025543,159.228973 90.848434,173.059662 92.193314,187.195419 
	C93.553543,201.492477 103.214241,213.433350 116.769890,217.572739 
	C131.185516,221.974731 145.430695,217.337875 155.942169,204.372787 
M366.938110,252.647308 
	C372.941864,242.460663 381.113037,234.245209 390.157501,226.763306 
	C393.389282,224.089874 396.504028,222.626724 400.962555,223.222824 
	C404.645416,223.715225 408.659454,223.207672 412.302490,222.271027 
	C430.516357,217.588104 441.655670,199.450012 437.820435,181.168610 
	C434.066711,163.275482 416.459137,150.673828 398.996857,153.382751 
	C379.532562,156.402237 366.598450,172.714783 368.198669,191.833740 
	C368.394745,194.176193 367.678223,197.261536 366.192657,198.960022 
	C360.511047,205.455856 354.292389,211.478775 348.384796,217.781876 
	C346.505829,219.786636 344.509094,221.894211 343.351868,224.328247 
	C334.605652,242.724579 321.389496,256.701141 303.108337,265.801208 
	C300.773804,266.963287 298.411530,268.069672 296.193695,269.138458 
	C298.319122,283.636230 314.977295,297.027924 330.114746,296.325287 
	C350.672913,295.371063 366.092468,280.432648 365.371979,259.996826 
	C365.294037,257.785645 366.155914,255.541290 366.938110,252.647308 
z"/>
<path fill="#0B2258" opacity="1.000000" stroke="none" 
	d="
M155.730621,204.666260 
	C145.430695,217.337875 131.185516,221.974731 116.769890,217.572739 
	C103.214241,213.433350 93.553543,201.492477 92.193314,187.195419 
	C90.848434,173.059662 98.025543,159.228973 110.947990,153.026779 
	C115.887192,150.656189 121.770416,150.285660 127.187294,148.865814 
	C130.933502,147.883850 135.491684,147.678391 138.169846,145.367584 
	C147.067856,137.690170 155.390564,129.326630 163.642685,120.939651 
	C164.969635,119.591019 165.432968,116.718460 165.236816,114.650803 
	C163.486160,96.197289 176.163834,79.280258 194.271667,76.225006 
	C212.887650,73.084015 230.380737,84.783134 234.637665,103.057518 
	C235.546234,106.957802 235.170700,109.156174 230.814301,110.963562 
	C215.668381,117.247307 203.767517,127.677391 194.369217,141.105896 
	C192.125381,144.311890 189.168961,147.037933 186.419510,149.867371 
	C180.744858,155.707169 174.760406,161.263397 169.335510,167.323105 
	C164.621155,172.589127 162.087387,178.568130 161.835876,186.205948 
	C161.634552,192.319626 158.034058,198.321365 155.730621,204.666260 
z"/>
<path fill="#264383" opacity="1.000000" stroke="none" 
	d="
M366.759979,252.979828 
	C366.155914,255.541290 365.294037,257.785645 365.371979,259.996826 
	C366.092468,280.432648 350.672913,295.371063 330.114746,296.325287 
	C314.977295,297.027924 298.319122,283.636230 296.193695,269.138458 
	C298.411530,268.069672 300.773804,266.963287 303.108337,265.801208 
	C321.389496,256.701141 334.605652,242.724579 343.351868,224.328247 
	C344.509094,221.894211 346.505829,219.786636 348.384796,217.781876 
	C354.292389,211.478775 360.511047,205.455856 366.192657,198.960022 
	C367.678223,197.261536 368.394745,194.176193 368.198669,191.833740 
	C366.598450,172.714783 379.532562,156.402237 398.996857,153.382751 
	C416.459137,150.673828 434.066711,163.275482 437.820435,181.168610 
	C441.655670,199.450012 430.516357,217.588104 412.302490,222.271027 
	C408.659454,223.207672 404.645416,223.715225 400.962555,223.222824 
	C396.504028,222.626724 393.389282,224.089874 390.157501,226.763306 
	C381.113037,234.245209 372.941864,242.460663 366.759979,252.979828 
z"/>
<path fill="#04BBED" opacity="1.000000" stroke="none" 
	d="
M273.957275,19.162577 
	C292.187561,17.386292 310.306946,31.820566 310.726471,49.938137 
	C310.944000,59.332825 314.719727,66.157082 320.347778,72.623840 
	C323.945557,76.757828 327.922607,80.566612 331.798370,84.452606 
	C336.966034,89.633934 342.414764,92.496025 350.580811,92.292412 
	C369.440399,91.822174 384.183319,107.857903 384.260010,127.051262 
	C384.335144,145.855194 369.504669,161.429138 351.033569,162.148102 
	C347.947479,162.268219 346.297943,161.498154 345.141907,158.416946 
	C339.446838,143.237656 329.920258,130.864075 317.139618,120.899467 
	C314.952118,119.193932 313.394135,116.702957 311.416565,114.702095 
	C304.881897,108.090439 298.461212,101.351151 291.659058,95.023888 
	C286.767029,90.473366 280.880463,87.854111 273.448639,88.400879 
	C273.003876,67.051956 272.976685,46.258835 273.045563,25.466036 
	C273.052551,23.363901 273.639496,21.263685 273.957275,19.162577 
z"/>
<path fill="#049DE2" opacity="1.000000" stroke="none" 
	d="
M268.973969,359.084106 
	C268.235382,359.121216 267.496796,359.158356 266.121582,358.868927 
	C261.101013,357.648956 256.717072,356.755524 252.333160,355.862061 
	C252.333160,355.862061 252.171356,355.877441 252.057281,355.479065 
	C250.220963,354.141357 248.498703,353.202057 246.776459,352.262756 
	C246.776443,352.262756 246.886337,352.006104 246.776855,351.790710 
	C244.718811,349.398895 242.740448,347.248322 240.827118,345.041382 
	C234.557205,337.809265 233.424591,329.193542 233.811478,320.034363 
	C233.891876,318.131104 232.454834,316.163727 231.717133,314.225922 
	C231.717117,314.225922 231.971268,314.205353 231.901657,313.860748 
	C228.431107,309.808319 225.030151,306.100464 221.629211,302.392639 
	C221.629211,302.392639 221.801224,302.223663 221.705734,302.004150 
	C221.295151,301.657623 220.980072,301.530548 220.664978,301.403503 
	C220.664978,301.403503 220.637573,301.340393 220.695862,300.972107 
	C219.386978,299.560913 218.019806,298.518036 216.652649,297.475128 
	C216.652649,297.475128 216.659973,297.405975 216.633057,297.036011 
	C214.930252,295.546326 213.254395,294.426636 211.578537,293.306946 
	C205.383591,288.603119 198.918427,285.990692 190.626022,285.807373 
	C174.302231,285.446564 161.226898,271.429321 159.284805,254.247620 
	C157.546646,238.870026 167.903717,222.739532 182.590698,217.984375 
	C183.037369,217.839767 183.558014,217.923615 183.727112,217.915741 
	C187.776993,224.980804 191.262329,232.176208 195.757538,238.672836 
	C205.370911,252.566406 218.369263,262.375214 234.025650,268.810547 
	C237.266357,270.142578 240.129425,272.548218 242.922668,274.766205 
	C245.253998,276.617340 247.176834,278.973633 249.370880,281.008850 
	C254.853821,286.094818 260.203217,291.449371 268.862396,289.120575 
	C270.180054,288.766205 271.786835,289.486786 273.453857,290.266418 
	C273.431641,292.108551 273.029785,293.394043 273.027069,294.680420 
	C272.986664,313.870300 272.975586,333.060364 273.041901,352.250092 
	C273.047424,353.847260 273.659729,355.442322 273.752411,357.298737 
	C272.001129,358.067444 270.487549,358.575775 268.973969,359.084106 
z"/>
<path fill="#06B1E3" opacity="1.000000" stroke="none" 
	d="
M272.017761,247.859695 
	C244.207687,252.236832 215.012787,232.526459 207.939026,204.598190 
	C197.586578,163.725052 228.651108,127.056999 271.754242,130.492676 
	C272.597717,139.602432 272.801971,148.245880 272.586609,156.925583 
	C271.071960,156.753403 269.976929,156.544952 268.607330,156.194519 
	C267.507202,156.071625 266.681641,156.090729 265.459778,156.170547 
	C263.410553,156.421082 261.750397,156.563004 260.105652,156.807999 
	C239.552750,159.869446 226.939804,182.357239 235.035934,201.486267 
	C241.012741,215.607941 253.362396,222.622192 270.820312,221.715683 
	C271.385406,221.585281 271.682465,221.397736 272.224274,221.133331 
	C272.639160,221.074127 272.809265,221.091797 272.983948,221.571259 
	C273.002380,225.143219 273.139160,228.258789 273.003174,231.362381 
	C272.762024,236.865311 272.355225,242.360992 272.017761,247.859695 
z"/>
<path fill="#2FCAED" opacity="1.000000" stroke="none" 
	d="
M273.006195,156.889313 
	C272.801971,148.245880 272.597717,139.602432 272.213745,130.601349 
	C294.653931,131.253479 317.044586,150.773712 322.880890,174.572144 
	C331.012726,207.731018 310.588196,240.166031 277.208740,247.100601 
	C275.748016,247.404053 274.286133,247.701767 272.421265,247.930923 
	C272.355225,242.360992 272.762024,236.865311 273.003174,231.362381 
	C273.139160,228.258789 273.002380,225.143219 273.308685,221.392456 
	C291.730988,215.397995 301.975769,197.721786 296.872589,180.362671 
	C293.290070,168.176300 284.767670,160.844818 273.006195,156.889313 
z"/>
<path fill="#049DE2" opacity="1.000000" stroke="none" 
	d="
M273.550781,19.081367 
	C273.639496,21.263685 273.052551,23.363901 273.045563,25.466036 
	C272.976685,46.258835 273.003876,67.051956 273.008789,88.296387 
	C254.892685,87.336281 241.017044,72.347801 240.970764,54.134922 
	C240.923676,35.610676 254.576004,20.701820 273.550781,19.081367 
z"/>
<path fill="#05BBEC" opacity="1.000000" stroke="none" 
	d="
M273.990112,357.038361 
	C273.659729,355.442322 273.047424,353.847260 273.041901,352.250092 
	C272.975586,333.060364 272.986664,313.870300 273.027069,294.680420 
	C273.029785,293.394043 273.431641,292.108551 273.822510,290.447815 
	C278.529205,291.871124 283.061279,293.669250 287.909485,295.965759 
	C288.527557,296.604279 288.829498,296.744415 289.131439,296.884583 
	C289.131439,296.884583 289.018219,296.984955 289.139496,297.183899 
	C289.577179,297.525574 289.893585,297.668274 290.209991,297.811005 
	C290.209991,297.811005 290.047729,297.947845 290.171509,298.135559 
	C290.615967,298.465759 290.936676,298.608185 291.257385,298.750610 
	C291.257385,298.750610 291.023651,298.988922 291.167542,299.139832 
	C291.629700,299.435822 291.947937,299.580872 292.266205,299.725952 
	C292.266205,299.725952 292.169464,299.990234 292.264771,300.142517 
	C292.689117,300.457123 293.018219,300.619415 293.347321,300.781708 
	C293.618774,300.888519 293.829834,301.066864 294.096191,301.802917 
	C294.516388,302.506348 294.820801,302.723602 295.125214,302.940857 
	C295.276123,303.045044 295.427063,303.149231 295.737671,303.766907 
	C296.324097,304.817474 296.750854,305.354614 297.177612,305.891724 
	C297.177612,305.891724 297.035706,305.934021 297.062683,306.192566 
	C297.584137,307.002960 298.078552,307.554810 298.572998,308.106689 
	C298.572998,308.106689 298.782410,308.281830 298.818390,308.741943 
	C299.280792,310.134979 299.707214,311.067902 300.133636,312.000793 
	C300.133636,312.000793 300.344147,312.200836 300.257202,312.757782 
	C300.800964,315.540314 301.431702,317.765869 302.062439,319.991455 
	C302.121674,322.703552 302.180908,325.415619 301.917419,328.687988 
	C301.648438,329.818329 301.702118,330.388428 301.755798,330.958527 
	C301.614502,331.824799 301.473236,332.691101 301.116028,334.061157 
	C300.840729,334.774872 300.799164,334.988220 300.775269,335.205017 
	C300.775269,335.205017 300.727417,335.576904 300.304321,335.839996 
	C298.632355,338.777954 297.383423,341.452820 296.134521,344.127686 
	C296.134521,344.127686 295.994934,344.070312 295.804047,344.168427 
	C295.472107,344.585480 295.331055,344.904419 295.190002,345.223358 
	C295.190002,345.223358 295.149292,345.114441 294.929962,345.190674 
	C294.434540,345.902191 294.158447,346.537445 293.882355,347.172699 
	C293.766571,347.348297 293.650787,347.523895 292.934204,347.889160 
	C290.956451,349.501343 289.579437,350.923828 288.202423,352.346313 
	C288.054169,352.645111 287.831970,352.871338 286.999359,353.074158 
	C286.021240,353.488251 285.579651,353.853210 285.138062,354.218201 
	C285.138062,354.218201 285.101471,354.042114 284.837616,354.068542 
	C284.022186,354.595825 283.470642,355.096649 282.919098,355.597504 
	C282.919098,355.597504 282.755066,355.803192 282.246765,355.838867 
	C279.155670,356.262512 276.572906,356.650452 273.990112,357.038361 
z"/>
<path fill="#3DA7D5" opacity="1.000000" stroke="none" 
	d="
M231.822052,314.675476 
	C232.454834,316.163727 233.891876,318.131104 233.811478,320.034363 
	C233.424591,329.193542 234.557205,337.809265 240.827118,345.041382 
	C242.740448,347.248322 244.718811,349.398895 246.728760,351.919067 
	C235.407837,345.098145 231.889297,334.209595 232.164246,321.492371 
	C232.210083,319.372650 232.012222,317.247620 231.822052,314.675476 
z"/>
<path fill="#3DA7D5" opacity="1.000000" stroke="none" 
	d="
M221.728973,302.709045 
	C225.030151,306.100464 228.431107,309.808319 231.773926,313.881165 
	C228.420120,310.505951 225.124435,306.765686 221.728973,302.709045 
z"/>
<path fill="#3DA7D5" opacity="1.000000" stroke="none" 
	d="
M252.553452,356.114532 
	C256.717072,356.755524 261.101013,357.648956 265.755188,358.812134 
	C261.608215,358.176941 257.190979,357.271973 252.553452,356.114532 
z"/>
<path fill="#3DA7D5" opacity="1.000000" stroke="none" 
	d="
M273.752411,357.298737 
	C276.572906,356.650452 279.155670,356.262512 282.116211,355.855042 
	C278.198822,357.009308 273.903717,358.183075 269.291260,359.220490 
	C270.487549,358.575775 272.001129,358.067444 273.752411,357.298737 
z"/>
<path fill="#3DA7D5" opacity="1.000000" stroke="none" 
	d="
M296.433380,343.990234 
	C297.383423,341.452820 298.632355,338.777954 300.180115,335.980377 
	C299.230042,338.522736 297.981140,341.187775 296.433380,343.990234 
z"/>
<path fill="#3DA7D5" opacity="1.000000" stroke="none" 
	d="
M302.191895,319.702118 
	C301.431702,317.765869 300.800964,315.540314 300.271545,312.902283 
	C301.022308,314.797455 301.671814,317.105133 302.191895,319.702118 
z"/>
<path fill="#3DA7D5" opacity="1.000000" stroke="none" 
	d="
M211.740326,293.597046 
	C213.254395,294.426636 214.930252,295.546326 216.599823,297.025757 
	C215.029709,296.219360 213.465897,295.053253 211.740326,293.597046 
z"/>
<path fill="#3DA7D5" opacity="1.000000" stroke="none" 
	d="
M216.747437,297.770172 
	C218.019806,298.518036 219.386978,299.560913 220.661591,300.968842 
	C219.326782,300.244324 218.084503,299.154785 216.747437,297.770172 
z"/>
<path fill="#3DA7D5" opacity="1.000000" stroke="none" 
	d="
M246.905243,352.559052 
	C248.498703,353.202057 250.220963,354.141357 252.018036,355.407898 
	C250.406586,354.775238 248.720306,353.815308 246.905243,352.559052 
z"/>
<path fill="#3DA7D5" opacity="1.000000" stroke="none" 
	d="
M288.530579,352.264130 
	C289.579437,350.923828 290.956451,349.501343 292.674866,348.068848 
	C291.630432,349.433228 290.244568,350.807587 288.530579,352.264130 
z"/>
<path fill="#3DA7D5" opacity="1.000000" stroke="none" 
	d="
M300.125244,311.672882 
	C299.707214,311.067902 299.280792,310.134979 298.833069,308.877686 
	C299.246796,309.483826 299.681854,310.414398 300.125244,311.672882 
z"/>
<path fill="#3DA7D5" opacity="1.000000" stroke="none" 
	d="
M283.205444,355.599030 
	C283.470642,355.096649 284.022186,354.595825 284.879639,354.148071 
	C284.620941,354.667603 284.056335,355.134064 283.205444,355.599030 
z"/>
<path fill="#3DA7D5" opacity="1.000000" stroke="none" 
	d="
M301.924011,330.810059 
	C301.702118,330.388428 301.648438,329.818329 301.820557,329.131531 
	C302.061646,329.563721 302.076904,330.112640 301.924011,330.810059 
z"/>
<path fill="#3DA7D5" opacity="1.000000" stroke="none" 
	d="
M298.573334,307.818787 
	C298.078552,307.554810 297.584137,307.002960 297.121765,306.147919 
	C297.627106,306.406799 298.100403,306.968811 298.573334,307.818787 
z"/>
<path fill="#3DA7D5" opacity="1.000000" stroke="none" 
	d="
M297.152802,305.615173 
	C296.750854,305.354614 296.324097,304.817474 295.873260,304.006226 
	C296.275452,304.267609 296.701721,304.803101 297.152802,305.615173 
z"/>
<path fill="#3DA7D5" opacity="1.000000" stroke="none" 
	d="
M294.135071,347.115295 
	C294.158447,346.537445 294.434540,345.902191 294.982910,345.214722 
	C294.966064,345.794312 294.676910,346.426117 294.135071,347.115295 
z"/>
<path fill="#3DA7D5" opacity="1.000000" stroke="none" 
	d="
M300.936646,335.204681 
	C300.799164,334.988220 300.840729,334.774872 300.941711,334.466431 
	C301.281891,334.602386 301.320099,334.881195 300.936646,335.204681 
z"/>
<path fill="#3DA7D5" opacity="1.000000" stroke="none" 
	d="
M285.431946,354.204163 
	C285.579651,353.853210 286.021240,353.488251 286.771027,353.151093 
	C286.628113,353.515991 286.177002,353.853058 285.431946,354.204163 
z"/>
<path fill="#3DA7D5" opacity="1.000000" stroke="none" 
	d="
M295.051422,302.670105 
	C294.820801,302.723602 294.516388,302.506348 294.167419,302.000610 
	C294.407806,301.941254 294.692719,302.170319 295.051422,302.670105 
z"/>
<path fill="#3DA7D5" opacity="1.000000" stroke="none" 
	d="
M220.734558,301.631012 
	C220.980072,301.530548 221.295151,301.657623 221.600922,302.063721 
	C221.250183,302.309723 220.987701,302.148315 220.734558,301.631012 
z"/>
<path fill="#3DA7D5" opacity="1.000000" stroke="none" 
	d="
M295.438843,345.130737 
	C295.331055,344.904419 295.472107,344.585480 295.875183,344.188293 
	C295.987366,344.419434 295.837555,344.728790 295.438843,345.130737 
z"/>
<path fill="#3DA7D5" opacity="1.000000" stroke="none" 
	d="
M293.249695,300.528961 
	C293.018219,300.619415 292.689117,300.457123 292.304993,300.010376 
	C292.550629,299.909332 292.851349,300.092773 293.249695,300.528961 
z"/>
<path fill="#3DA7D5" opacity="1.000000" stroke="none" 
	d="
M292.179565,299.486206 
	C291.947937,299.580872 291.629700,299.435822 291.276489,299.013489 
	C291.525330,298.906311 291.809113,299.076385 292.179565,299.486206 
z"/>
<path fill="#3DA7D5" opacity="1.000000" stroke="none" 
	d="
M291.166565,298.505249 
	C290.936676,298.608185 290.615967,298.465759 290.236359,298.051575 
	C290.476868,297.939850 290.776306,298.099854 291.166565,298.505249 
z"/>
<path fill="#3DA7D5" opacity="1.000000" stroke="none" 
	d="
M290.113800,297.566284 
	C289.893585,297.668274 289.577179,297.525574 289.183350,297.122253 
	C289.409821,297.014954 289.713715,297.168243 290.113800,297.566284 
z"/>
<path fill="#3DA7D5" opacity="1.000000" stroke="none" 
	d="
M289.038177,296.644196 
	C288.829498,296.744415 288.527557,296.604279 288.132080,296.223877 
	C288.340698,296.123657 288.642792,296.263733 289.038177,296.644196 
z"/>
<path fill="#F4F7F7" opacity="1.000000" stroke="none" 
	d="
M272.586609,156.925583 
	C284.767670,160.844818 293.290070,168.176300 296.872589,180.362671 
	C301.975769,197.721786 291.730988,215.397995 273.304138,220.930664 
	C272.809265,221.091797 272.639160,221.074127 271.959564,221.086136 
	C271.150818,221.296738 270.851562,221.477646 270.552277,221.658554 
	C253.362396,222.622192 241.012741,215.607941 235.035934,201.486267 
	C226.939804,182.357239 239.552750,159.869446 260.105652,156.807999 
	C261.750397,156.563004 263.410553,156.421082 265.731018,156.345459 
	C267.226257,156.418625 268.054077,156.377563 268.881866,156.336502 
	C269.976929,156.544952 271.071960,156.753403 272.586609,156.925583 
z"/>
<path fill="#2FCAED" opacity="1.000000" stroke="none" 
	d="
M268.607330,156.194519 
	C268.054077,156.377563 267.226257,156.418625 266.127258,156.284760 
	C266.681641,156.090729 267.507202,156.071625 268.607330,156.194519 
z"/>
<path fill="#2FCAED" opacity="1.000000" stroke="none" 
	d="
M270.820312,221.715683 
	C270.851562,221.477646 271.150818,221.296738 271.714813,221.163010 
	C271.682465,221.397736 271.385406,221.585281 270.820312,221.715683 
z"/>
</svg>