<svg version="1.1" id="Layer_1" xmlns="http://www.w3.org/2000/svg" xmlns:xlink="http://www.w3.org/1999/xlink" x="0px" y="0px"
	 width="100%" viewBox="0 0 517 397" enable-background="new 0 0 517 397" xml:space="preserve">
<path fill="#F6F7F7" opacity="1.000000" stroke="none" 
	d="
M314.000000,398.000000 
	C210.666672,398.000000 107.833313,397.978119 5.000109,398.095490 
	C1.576042,398.099396 0.901982,397.423798 0.904951,393.999908 
	C1.017383,264.333344 1.017383,134.666656 0.904951,5.000082 
	C0.901982,1.576221 1.576372,0.903177 5.000060,0.905355 
	C174.666656,1.013312 344.333344,1.013312 513.999939,0.905355 
	C517.423645,0.903177 518.098022,1.576221 518.095032,5.000082 
	C517.982605,134.666656 517.982605,264.333344 518.095032,393.999908 
	C518.098022,397.423798 517.424500,398.103302 513.999817,398.096619 
	C447.500061,397.966370 381.000000,398.000000 314.000000,398.000000 
z"/>
<path fill="#0C2259" opacity="1.000000" stroke="none" 
	d="
M260.227051,356.545502 
	C258.537018,358.980652 257.124298,357.545990 255.760330,356.758850 
	C207.778107,329.066925 159.813660,301.344177 111.801842,273.703674 
	C109.584244,272.427002 108.975052,270.941650 108.999489,268.519409 
	C109.118744,256.698853 109.148064,244.875443 109.006409,233.055481 
	C108.971161,230.114334 109.607353,228.971024 112.835182,229.033066 
	C123.487473,229.237823 134.148804,229.244476 144.800735,229.030762 
	C148.028366,228.966003 149.007706,230.081558 148.563873,233.020660 
	C148.539276,233.183472 148.588821,233.358978 148.556259,233.518875 
	C146.102600,245.568237 151.652328,251.790787 162.267151,257.540466 
	C194.727997,275.123291 226.429337,294.108276 258.754578,312.625458 
	C260.264252,313.819977 260.562103,315.304169 260.568176,316.802246 
	C260.621277,329.893555 261.082855,342.987762 260.227051,356.545502 
z"/>
<path fill="#0C2259" opacity="1.000000" stroke="none" 
	d="
M259.328369,58.436104 
	C242.794266,68.033386 226.586960,77.235184 210.430069,86.524696 
	C190.081375,98.224335 169.773865,109.995628 149.106369,121.840424 
	C146.751846,128.308258 147.411301,134.770874 148.088837,141.655212 
	C147.658417,143.388412 146.518677,142.999741 145.603409,143.001511 
	C134.605316,143.022736 123.605804,142.917328 112.609924,143.073700 
	C109.705780,143.114990 108.972473,142.162689 109.004784,139.376328 
	C109.143890,127.379936 109.198219,115.378723 108.982971,103.384659 
	C108.926353,100.229805 110.110031,98.655861 112.678719,97.178665 
	C156.123123,72.194618 199.509201,47.109161 242.948212,22.115709 
	C248.124542,19.137405 253.044693,15.674971 258.867615,13.648647 
	C260.258820,15.369243 260.648987,17.122608 260.663330,18.985991 
	C260.752686,30.579062 260.763977,42.172215 260.653290,53.765152 
	C260.638977,55.262218 260.452515,56.743378 259.328369,58.436104 
z"/>
<path fill="#264282" opacity="1.000000" stroke="none" 
	d="
M259.254639,59.010750 
	C258.997589,44.130909 259.015961,29.469179 259.065979,14.330448 
	C269.611511,18.878860 279.414886,25.175253 289.498108,30.962429 
	C327.746094,52.914474 365.891663,75.044899 404.137390,97.000893 
	C406.912628,98.594093 408.141174,100.231514 408.075287,103.579475 
	C407.842651,115.398674 407.902039,127.226318 408.046570,139.048355 
	C408.082367,141.973755 407.467407,143.148178 404.228912,143.086624 
	C393.574707,142.884125 382.912750,142.912979 372.257141,143.075348 
	C369.298248,143.120422 368.463043,142.047150 368.686371,139.310349 
	C368.875427,136.993820 368.364197,134.576447 368.810516,132.332520 
	C370.373474,124.474968 366.403473,120.707245 359.904144,117.035248 
	C326.289581,98.043549 292.959442,78.548431 259.254639,59.010750 
z"/>
<path fill="#264283" opacity="1.000000" stroke="none" 
	d="
M260.452972,357.001831 
	C258.601562,355.963806 258.985107,354.365234 258.985107,352.926239 
	C258.985077,339.844910 259.018738,326.763611 259.062805,313.192688 
	C282.376556,299.158752 305.661438,285.599609 328.967133,272.076233 
	C341.056335,265.061340 353.143646,258.041077 365.323761,251.186600 
	C367.809509,249.787704 369.068115,248.250381 368.793121,245.328125 
	C368.560120,242.852356 368.740784,240.337540 368.740662,237.840012 
	C368.740265,229.094788 368.740631,229.098328 377.732666,229.103973 
	C386.390808,229.109406 395.054657,229.289444 403.704437,229.020508 
	C407.349365,228.907181 408.117798,230.186371 408.061523,233.559326 
	C407.869995,245.044876 407.871643,256.537384 408.060150,268.022980 
	C408.110931,271.115875 407.043121,272.736511 404.404327,274.251831 
	C367.752167,295.299225 331.169769,316.468109 294.562256,337.593292 
	C283.321899,344.079803 272.057068,350.523895 260.452972,357.001831 
z"/>
<path fill="#099EE2" opacity="1.000000" stroke="none" 
	d="
M139.881378,181.445190 
	C130.598709,181.446350 121.795761,181.343140 112.997986,181.511230 
	C109.998306,181.568542 108.905746,180.718811 108.998596,177.591858 
	C109.210434,170.457626 109.214256,163.308868 109.008591,156.174484 
	C108.918823,153.060318 109.979301,152.202042 112.994324,152.246994 
	C123.453323,152.402939 133.917618,152.407150 144.376465,152.245895 
	C147.558746,152.196838 148.837372,153.076141 148.725739,156.434921 
	C148.510727,162.903931 148.384857,169.401535 148.760406,175.855957 
	C149.032944,180.539871 147.394653,182.278488 142.850510,181.500900 
	C142.041977,181.362534 141.193283,181.459045 139.881378,181.445190 
z"/>
<path fill="#0AB1E2" opacity="1.000000" stroke="none" 
	d="
M144.598907,219.758240 
	C134.140442,219.758820 124.140694,219.639389 114.146484,219.822357 
	C110.453888,219.889984 108.711319,219.158707 108.967628,214.884186 
	C109.365814,208.243301 109.172798,201.557907 109.010925,194.896713 
	C108.941391,192.034973 109.543152,190.703888 112.819740,190.763550 
	C123.480392,190.957687 134.148071,190.948334 144.809738,190.792099 
	C147.944489,190.746185 148.801682,191.872208 148.728912,194.847641 
	C148.557877,201.841492 148.593765,208.843918 148.719803,215.839752 
	C148.768539,218.545502 147.950272,220.007904 144.598907,219.758240 
z"/>
<path fill="#08BBEB" opacity="1.000000" stroke="none" 
	d="
M368.838135,214.814545 
	C368.839355,207.840012 368.959198,201.341980 368.785828,194.851761 
	C368.707428,191.917816 369.473419,190.723419 372.657349,190.779144 
	C383.145935,190.962646 393.641296,190.974716 404.130066,190.805771 
	C407.355774,190.753799 408.040039,192.024277 407.973663,194.922028 
	C407.813568,201.912598 407.822083,208.911636 407.977234,215.902512 
	C408.038910,218.680756 407.154053,219.806549 404.300323,219.778122 
	C393.643341,219.671967 382.983612,219.615891 372.327728,219.755753 
	C368.803040,219.802002 368.595947,217.875320 368.838135,214.814545 
z"/>
<path fill="#30C9EC" opacity="1.000000" stroke="none" 
	d="
M407.969360,157.201218 
	C407.968781,164.168701 407.866638,170.661499 408.012421,177.148727 
	C408.077881,180.061874 407.242706,181.364746 404.087341,181.318939 
	C393.604980,181.166794 383.118958,181.174042 372.635468,181.259109 
	C369.912842,181.281204 368.750793,180.485428 368.819611,177.568375 
	C368.984436,170.582443 368.957825,163.588501 368.832275,156.600967 
	C368.784027,153.913940 369.507904,152.697983 372.457153,152.734283 
	C382.939850,152.863327 393.426025,152.856766 403.908844,152.729462 
	C406.887817,152.693298 408.327057,153.648438 407.969360,157.201218 
z"/>
<path fill="#11BAE7" opacity="1.000000" stroke="none" 
	d="
M313.217041,164.747955 
	C317.071960,164.824295 320.639282,164.558167 324.013733,165.242691 
	C335.037689,167.478943 342.081604,179.175186 339.846680,191.027512 
	C337.964935,201.006851 327.035217,208.809052 316.740540,207.516495 
	C314.928009,207.288910 313.118469,207.037491 310.910370,206.866241 
	C307.477875,206.377548 305.517242,203.904007 302.578369,202.401123 
	C293.166931,190.864777 293.707428,178.932999 304.092346,168.635315 
	C307.034302,166.783432 309.433075,164.608459 313.217041,164.747955 
z"/>
<path fill="#12BAE8" opacity="1.000000" stroke="none" 
	d="
M278.417725,235.746780 
	C278.962494,238.696289 279.592010,241.273560 279.881683,243.888458 
	C280.872528,252.834549 276.287964,261.462494 268.587006,265.395813 
	C260.261719,269.648071 250.786926,268.452911 244.097946,262.306732 
	C237.402451,256.154572 235.241272,246.766312 238.563812,238.181274 
	C238.980911,237.103592 239.494461,236.063248 240.039551,234.653793 
	C240.600723,230.906433 243.545105,229.460251 245.954376,227.110809 
	C254.968399,221.987457 263.530701,222.546616 272.305481,227.720001 
	C274.890350,230.141708 276.717712,232.690735 278.417725,235.746780 
z"/>
<path fill="#12BAE8" opacity="1.000000" stroke="none" 
	d="
M238.121002,135.073059 
	C237.781738,131.906555 237.238205,129.118942 237.174820,126.320457 
	C236.895859,114.002464 246.616440,104.081604 258.700745,104.201210 
	C270.575104,104.318733 280.089569,114.096840 279.987671,126.120018 
	C279.973602,127.781013 279.769501,129.440384 279.661133,131.563400 
	C279.871216,135.500366 277.543396,138.070770 276.174744,141.366791 
	C271.505035,144.514191 267.339996,147.809128 261.798584,148.371246 
	C255.089325,149.051819 249.044128,147.546997 243.379974,143.173386 
	C241.139847,140.627808 239.269272,138.281174 238.121002,135.073059 
z"/>
<path fill="#12B8E7" opacity="1.000000" stroke="none" 
	d="
M209.002914,205.727142 
	C204.253799,206.332901 200.116989,208.217911 195.462448,207.441284 
	C183.175186,205.391083 175.444214,195.185333 177.077850,182.756180 
	C178.597092,171.197266 189.557205,163.228912 201.662155,164.878708 
	C202.810028,165.035172 203.961349,165.166275 205.530106,165.278122 
	C209.340851,165.534317 211.748550,167.750244 214.651703,169.806198 
	C222.519958,179.229156 223.583160,188.925079 217.105011,199.536713 
	C214.507965,201.955658 212.310959,204.296204 209.002914,205.727142 
z"/>
<path fill="#2A4881" opacity="1.000000" stroke="none" 
	d="
M275.569824,140.809357 
	C275.631958,137.267197 278.357361,135.289261 279.440613,132.258423 
	C290.850372,142.710938 302.031830,153.395584 313.403107,164.367645 
	C311.032867,166.031540 308.472809,167.407990 305.581390,168.863052 
	C302.002747,168.482590 300.282593,165.738907 298.132629,163.837921 
	C290.110229,156.744614 282.403442,149.302780 275.569824,140.809357 
z"/>
<path fill="#2A4881" opacity="1.000000" stroke="none" 
	d="
M278.787292,235.881851 
	C275.815186,234.772751 274.743500,232.018478 272.885803,229.563293 
	C272.249512,227.860489 273.144867,227.031082 274.001465,226.262436 
	C282.747467,218.414474 291.250610,210.296768 300.194763,202.669113 
	C300.833679,202.124237 301.562103,201.741364 302.753235,201.718567 
	C305.900085,202.635773 307.993225,204.575699 310.372192,206.609711 
	C300.037415,216.510910 289.561646,226.086411 278.787292,235.881851 
z"/>
<path fill="#2A4882" opacity="1.000000" stroke="none" 
	d="
M214.094116,170.275238 
	C211.269928,168.694199 208.782944,167.248215 206.122559,165.524658 
	C216.463547,155.192551 226.977951,145.138016 237.798325,134.891327 
	C240.383240,136.396881 241.472488,139.006638 243.183395,141.544342 
	C243.633347,144.705765 241.388535,146.060120 239.736435,147.475723 
	C232.036865,154.073151 225.017426,161.366104 217.800720,168.459015 
	C216.855057,169.388458 215.871201,170.308014 214.094116,170.275238 
z"/>
<path fill="#2A4882" opacity="1.000000" stroke="none" 
	d="
M208.863312,206.083588 
	C210.717926,203.910889 212.793900,202.033539 215.169495,200.055389 
	C217.598175,199.756363 218.744171,201.421600 220.099274,202.539673 
	C228.554642,209.516174 236.241302,217.358307 244.619659,224.426071 
	C245.510590,225.177628 246.188766,226.147247 246.329773,227.708435 
	C244.398865,230.027039 242.544815,231.990540 240.403275,234.128021 
	C229.772064,224.994308 219.428345,215.686615 208.863312,206.083588 
z"/>
<path fill="#051841" opacity="1.000000" stroke="none" 
	d="
M148.286346,141.740356 
	C146.220581,135.476471 146.364960,128.865509 148.400360,122.096115 
	C148.657089,128.430878 148.550018,134.916885 148.286346,141.740356 
z"/>
<path fill="#F4F6F6" opacity="1.000000" stroke="none" 
	d="
M246.606094,228.009552 
	C236.155319,218.873795 226.057739,209.684052 215.714630,200.224457 
	C219.967789,191.990616 221.831894,183.861450 216.904449,175.361115 
	C215.996033,173.793976 214.904068,172.333237 213.826859,170.481781 
	C223.446426,160.907974 233.135941,151.675766 243.049011,142.162018 
	C247.137085,143.650452 250.561600,146.297241 254.953796,147.018372 
	C262.807587,148.307785 269.108459,145.162003 275.358734,140.526459 
	C285.418060,149.781830 295.127258,159.088867 305.043274,168.668793 
	C298.026428,176.529022 294.844543,185.050888 299.410919,195.217056 
	C300.349731,197.307159 301.775208,199.178665 303.038574,201.488007 
	C293.175110,210.793427 283.249420,219.761749 273.065308,228.981674 
	C269.778351,227.985046 266.834076,226.439072 263.703033,225.552872 
	C257.846893,223.895309 252.282623,225.339645 246.606094,228.009552 
z"/>
<path fill="#ECF7F7" opacity="1.000000" stroke="none" 
	d="
M330.949829,182.652832 
	C331.995941,188.809723 330.541962,193.668396 325.420563,196.843933 
	C321.128265,199.505371 316.612915,199.519440 312.245728,196.879517 
	C307.681122,194.120239 305.302582,188.610489 306.405060,183.648712 
	C307.603241,178.256012 312.475769,173.905548 317.876892,173.405914 
	C323.340942,172.900497 328.294159,176.272324 330.949829,182.652832 
z"/>
<path fill="#EBF4F4" opacity="1.000000" stroke="none" 
	d="
M256.764679,233.444519 
	C265.665710,234.344482 270.437653,238.252487 271.102081,245.095398 
	C271.766022,251.933197 267.662354,257.012482 259.383423,259.281555 
	C253.391510,260.512177 248.017715,257.201752 245.600433,251.145584 
	C242.441910,243.232422 248.018173,233.979813 256.764679,233.444519 
z"/>
<path fill="#0FA0DE" opacity="1.000000" stroke="none" 
	d="
M257.351562,233.436996 
	C249.382568,236.164917 245.796509,240.458542 246.029739,246.950851 
	C246.260666,253.379105 250.261902,257.367065 258.645569,259.282043 
	C257.912506,264.264801 254.378647,263.616333 251.239365,262.379913 
	C245.866257,260.263763 241.032257,252.059967 241.381622,246.465042 
	C241.803360,239.711014 245.267136,234.778809 250.620773,230.944168 
	C252.589050,229.534348 254.788055,229.807785 256.846375,230.208008 
	C258.524170,230.534256 259.666016,231.653992 257.351562,233.436996 
z"/>
<path fill="#EBF4F5" opacity="1.000000" stroke="none" 
	d="
M261.690063,112.953735 
	C265.330505,115.296463 268.809540,117.109329 270.296356,121.240517 
	C273.130005,129.113770 269.253052,135.668152 259.167175,138.775192 
	C257.754181,139.180267 257.004456,139.195587 255.857651,139.130859 
	C247.540176,136.410339 243.469788,130.067841 245.123749,122.985275 
	C246.936325,115.223396 252.946869,111.407143 261.690063,112.953735 
z"/>
<path fill="#0EA0DD" opacity="1.000000" stroke="none" 
	d="
M261.776245,112.964447 
	C256.061981,112.670944 251.016449,114.157204 247.832626,119.481636 
	C243.314484,127.037491 247.076630,135.032974 256.905823,138.445953 
	C257.684784,138.532211 258.094727,138.533386 258.788452,138.722778 
	C259.072937,138.844299 259.138947,138.828201 259.173981,138.831757 
	C258.379333,143.186996 256.241608,143.243622 252.364899,141.838821 
	C240.845749,137.664627 237.490768,120.799797 247.485672,112.868797 
	C252.817795,108.637741 254.802933,108.248535 261.776245,112.964447 
z"/>
<path fill="#0D9FDE" opacity="1.000000" stroke="none" 
	d="
M200.459854,169.311035 
	C211.813736,169.935684 216.216629,182.567856 214.942749,190.292160 
	C213.665527,198.036606 204.898529,204.005554 196.146500,202.959045 
	C188.602341,202.056961 180.732986,194.874710 181.129059,186.544693 
	C181.674316,175.076538 188.908554,168.571228 200.459854,169.311035 
z"/>
<path fill="#12BAE8" opacity="1.000000" stroke="none" 
	d="
M258.903320,138.649292 
	C258.604950,138.839325 258.136993,138.834335 257.471619,138.709213 
	C257.760742,138.544159 258.247253,138.499222 258.903320,138.649292 
z"/>
<path fill="#E9F1F3" opacity="1.000000" stroke="none" 
	d="
M189.117523,194.834976 
	C183.993805,187.029739 185.132904,179.365768 191.691635,175.515930 
	C198.322113,171.623978 206.085571,173.825470 209.500900,180.566116 
	C211.860382,185.222900 211.137711,190.737045 207.676926,194.483810 
	C203.970169,198.496872 198.437302,199.829987 193.597809,197.712524 
	C192.097794,197.056198 190.776505,195.991364 189.117523,194.834976 
z"/>
</svg>