<svg version="1.1" id="Layer_1" xmlns="http://www.w3.org/2000/svg" xmlns:xlink="http://www.w3.org/1999/xlink" x="0px" y="0px"
	 width="100%" viewBox="0 0 538 412" enable-background="new 0 0 538 412" xml:space="preserve">
<path fill="#F6F7F7" opacity="1.000000" stroke="none" 
	d="
M322.000000,413.000000 
	C214.666672,413.000000 107.833336,413.000000 1.000000,413.000000 
	C1.000000,275.666656 1.000000,138.333328 1.000000,1.000000 
	C180.333328,1.000000 359.666656,1.000000 539.000000,1.000000 
	C539.000000,138.333328 539.000000,275.666656 539.000000,413.000000 
	C466.833344,413.000000 394.666656,413.000000 322.000000,413.000000 
M290.560028,212.005692 
	C301.731628,194.680786 299.101593,174.138947 284.233948,160.258728 
	C282.205322,158.364807 280.677429,155.414902 279.996490,152.684830 
	C276.605743,139.090668 276.547424,125.296722 278.805237,111.532036 
	C279.157501,109.384483 280.711426,106.972504 282.435211,105.582657 
	C300.258301,91.212502 302.598907,64.994316 287.378265,48.266716 
	C272.060974,31.432890 245.507950,31.052034 229.918488,47.442547 
	C214.031738,64.145615 215.773270,90.292236 233.578720,105.197258 
	C235.399521,106.721458 237.047684,109.291794 237.402313,111.588768 
	C239.424210,124.684334 239.473328,137.874786 236.620255,150.830856 
	C235.753006,154.769073 233.374176,158.805862 230.613724,161.811020 
	C223.652740,169.389023 219.478790,177.992508 219.099396,188.223892 
	C218.451920,205.685257 229.024658,221.066208 245.307755,226.811050 
	C261.715973,232.600037 279.002228,227.119141 290.560028,212.005692 
M309.675720,272.069275 
	C302.268158,270.783142 294.961823,270.585083 288.858124,264.288757 
	C273.729279,248.682434 248.168243,249.453674 233.328629,265.118103 
	C218.334030,280.946136 218.966110,306.163879 234.724289,320.800507 
	C250.793472,335.726013 275.480804,334.795990 290.467529,318.960754 
	C292.607880,316.699219 295.740173,314.812195 298.745819,314.031036 
	C312.133148,310.551819 325.766388,310.395325 339.354950,312.687653 
	C341.791504,313.098694 344.505463,314.830322 346.106415,316.766571 
	C360.524170,334.204529 386.616180,336.423370 403.096252,321.402100 
	C419.991119,306.002747 420.431396,279.586304 404.053040,263.996216 
	C387.334381,248.082199 361.173859,249.755249 346.315247,267.471863 
	C344.704102,269.392914 341.843475,271.212616 339.452209,271.366455 
	C329.854279,271.983948 320.213013,271.927124 309.675720,272.069275 
M131.603470,322.936157 
	C149.039108,336.317413 172.520554,333.598450 186.580521,316.570190 
	C199.452042,300.981323 197.183731,277.039276 181.809631,262.735931 
	C179.561722,260.644592 177.950119,257.294342 177.221283,254.245163 
	C174.127533,241.301804 174.122391,228.138809 176.046967,215.041763 
	C176.429108,212.441193 178.247665,209.463806 180.317734,207.791306 
	C198.520798,193.084167 199.980042,164.987045 183.146149,148.984299 
	C166.722687,133.371719 141.472885,134.323166 126.445427,151.120895 
	C111.810532,167.479797 113.933167,192.860657 130.906708,207.444885 
	C132.936081,209.188599 134.687180,212.158798 135.060562,214.775528 
	C136.978180,228.213776 136.976913,241.702209 133.846100,254.992981 
	C133.196411,257.751068 131.842499,260.776855 129.869431,262.722015 
	C111.718613,280.616180 112.104668,305.486389 131.603470,322.936157 
M351.613647,107.981842 
	C354.934814,109.933624 356.332092,112.866432 356.361511,116.681953 
	C356.437103,126.487114 357.135773,136.318329 356.616699,146.087646 
	C356.185516,154.202072 353.977905,161.615021 347.371643,167.852005 
	C340.279510,174.547729 337.668213,183.852188 337.822632,193.846680 
	C338.096588,211.578079 350.050415,226.832718 367.523529,231.268494 
	C384.818909,235.659149 402.654846,227.664566 411.524109,211.546097 
	C419.669891,196.742416 416.363525,177.071243 404.215271,164.977951 
	C401.456421,162.231552 398.652771,158.247620 398.302673,154.599808 
	C397.164856,142.744354 397.171661,130.779984 396.703186,118.858887 
	C396.511200,113.973923 398.608612,110.671371 402.457031,107.502632 
	C414.664795,97.450790 419.153870,79.996223 413.926300,65.327194 
	C408.346497,49.669704 394.208832,39.299591 377.984039,38.963184 
	C361.423126,38.619812 347.015198,48.016716 340.648529,63.313446 
	C334.303986,78.557114 338.256805,95.290863 351.613647,107.981842 
M187.140579,103.589958 
	C202.637482,81.110313 191.415710,51.441757 166.934998,43.880322 
	C148.393692,38.153400 128.996109,46.396305 120.211807,63.873741 
	C111.674171,80.860413 116.855743,101.558434 132.484680,112.755783 
	C149.305603,124.807152 173.206909,122.139816 187.140579,103.589958 
z"/>
<path fill="#254283" opacity="1.000000" stroke="none" 
	d="
M290.350708,212.300735 
	C279.002228,227.119141 261.715973,232.600037 245.307755,226.811050 
	C229.024658,221.066208 218.451920,205.685257 219.099396,188.223892 
	C219.478790,177.992508 223.652740,169.389023 230.613724,161.811020 
	C233.374176,158.805862 235.753006,154.769073 236.620255,150.830856 
	C239.473328,137.874786 239.424210,124.684334 237.402313,111.588768 
	C237.047684,109.291794 235.399521,106.721458 233.578720,105.197258 
	C215.773270,90.292236 214.031738,64.145615 229.918488,47.442547 
	C245.507950,31.052034 272.060974,31.432890 287.378265,48.266716 
	C302.598907,64.994316 300.258301,91.212502 282.435211,105.582657 
	C280.711426,106.972504 279.157501,109.384483 278.805237,111.532036 
	C276.547424,125.296722 276.605743,139.090668 279.996490,152.684830 
	C280.677429,155.414902 282.205322,158.364807 284.233948,160.258728 
	C299.101593,174.138947 301.731628,194.680786 290.350708,212.300735 
z"/>
<path fill="#254283" opacity="1.000000" stroke="none" 
	d="
M310.131714,272.094421 
	C320.213013,271.927124 329.854279,271.983948 339.452209,271.366455 
	C341.843475,271.212616 344.704102,269.392914 346.315247,267.471863 
	C361.173859,249.755249 387.334381,248.082199 404.053040,263.996216 
	C420.431396,279.586304 419.991119,306.002747 403.096252,321.402100 
	C386.616180,336.423370 360.524170,334.204529 346.106415,316.766571 
	C344.505463,314.830322 341.791504,313.098694 339.354950,312.687653 
	C325.766388,310.395325 312.133148,310.551819 298.745819,314.031036 
	C295.740173,314.812195 292.607880,316.699219 290.467529,318.960754 
	C275.480804,334.795990 250.793472,335.726013 234.724289,320.800507 
	C218.966110,306.163879 218.334030,280.946136 233.328629,265.118103 
	C248.168243,249.453674 273.729279,248.682434 288.858124,264.288757 
	C294.961823,270.585083 302.268158,270.783142 310.131714,272.094421 
z"/>
<path fill="#04BBED" opacity="1.000000" stroke="none" 
	d="
M131.314575,322.726013 
	C112.104668,305.486389 111.718613,280.616180 129.869431,262.722015 
	C131.842499,260.776855 133.196411,257.751068 133.846100,254.992981 
	C136.976913,241.702209 136.978180,228.213776 135.060562,214.775528 
	C134.687180,212.158798 132.936081,209.188599 130.906708,207.444885 
	C113.933167,192.860657 111.810532,167.479797 126.445427,151.120895 
	C141.472885,134.323166 166.722687,133.371719 183.146149,148.984299 
	C199.980042,164.987045 198.520798,193.084167 180.317734,207.791306 
	C178.247665,209.463806 176.429108,212.441193 176.046967,215.041763 
	C174.122391,228.138809 174.127533,241.301804 177.221283,254.245163 
	C177.950119,257.294342 179.561722,260.644592 181.809631,262.735931 
	C197.183731,277.039276 199.452042,300.981323 186.580521,316.570190 
	C172.520554,333.598450 149.039108,336.317413 131.314575,322.726013 
z"/>
<path fill="#04BBED" opacity="1.000000" stroke="none" 
	d="
M351.349182,107.737717 
	C338.256805,95.290863 334.303986,78.557114 340.648529,63.313446 
	C347.015198,48.016716 361.423126,38.619812 377.984039,38.963184 
	C394.208832,39.299591 408.346497,49.669704 413.926300,65.327194 
	C419.153870,79.996223 414.664795,97.450790 402.457031,107.502632 
	C398.608612,110.671371 396.511200,113.973923 396.703186,118.858887 
	C397.171661,130.779984 397.164856,142.744354 398.302673,154.599808 
	C398.652771,158.247620 401.456421,162.231552 404.215271,164.977951 
	C416.363525,177.071243 419.669891,196.742416 411.524109,211.546097 
	C402.654846,227.664566 384.818909,235.659149 367.523529,231.268494 
	C350.050415,226.832718 338.096588,211.578079 337.822632,193.846680 
	C337.668213,183.852188 340.279510,174.547729 347.371643,167.852005 
	C353.977905,161.615021 356.185516,154.202072 356.616699,146.087646 
	C357.135773,136.318329 356.437103,126.487114 356.361511,116.681953 
	C356.332092,112.866432 354.934814,109.933624 351.349182,107.737717 
z"/>
<path fill="#32CAEC" opacity="1.000000" stroke="none" 
	d="
M186.939774,103.886726 
	C173.206909,122.139816 149.305603,124.807152 132.484680,112.755783 
	C116.855743,101.558434 111.674171,80.860413 120.211807,63.873741 
	C128.996109,46.396305 148.393692,38.153400 166.934998,43.880322 
	C191.415710,51.441757 202.637482,81.110313 186.939774,103.886726 
M171.468628,66.085640 
	C170.183746,65.033997 168.974060,63.870403 167.601868,62.948746 
	C158.124619,56.583115 146.576920,58.049747 138.695572,66.566383 
	C131.953827,73.851547 131.291916,85.906837 137.204437,93.724258 
	C144.198990,102.972336 155.750992,105.723930 165.637131,100.482681 
	C176.480713,94.733849 181.858551,79.631500 171.468628,66.085640 
z"/>
<path fill="#F2F7F7" opacity="1.000000" stroke="none" 
	d="
M171.725311,66.343658 
	C181.858551,79.631500 176.480713,94.733849 165.637131,100.482681 
	C155.750992,105.723930 144.198990,102.972336 137.204437,93.724258 
	C131.291916,85.906837 131.953827,73.851547 138.695572,66.566383 
	C146.576920,58.049747 158.124619,56.583115 167.601868,62.948746 
	C168.974060,63.870403 170.183746,65.033997 171.725311,66.343658 
z"/>
</svg>