<svg version="1.1" id="Layer_1" xmlns="http://www.w3.org/2000/svg" xmlns:xlink="http://www.w3.org/1999/xlink" x="0px" y="0px"
	 width="100%" viewBox="0 0 531 421" enable-background="new 0 0 531 421" xml:space="preserve">
<path fill="#F7F7F7" opacity="1.000000" stroke="none" 
	d="
M371.000000,422.000000 
	C247.333328,422.000000 124.166664,422.000000 1.000000,422.000000 
	C1.000000,281.666656 1.000000,141.333328 1.000000,1.000000 
	C178.000000,1.000000 355.000000,1.000000 532.000000,1.000000 
	C532.000000,141.333328 532.000000,281.666656 532.000000,422.000000 
	C478.500000,422.000000 425.000000,422.000000 371.000000,422.000000 
M389.098694,106.225952 
	C388.759186,106.092133 388.419708,105.958313 388.063843,105.923904 
	C388.063843,105.923904 388.148560,105.869385 387.776917,105.318298 
	C386.200104,104.505028 384.623322,103.691765 382.682922,102.312691 
	C353.028656,85.189026 323.393799,68.031639 293.709656,50.959885 
	C283.224213,44.929550 272.618439,39.108376 261.358429,33.056431 
	C260.603210,33.400692 259.813354,33.684917 259.097717,34.097794 
	C211.231216,61.713089 163.352798,89.307968 115.583679,117.090752 
	C113.901863,118.068909 112.356522,120.919510 112.350403,122.902344 
	C112.181259,177.691437 112.262138,232.481262 112.125259,287.270538 
	C112.116631,290.722900 113.559982,292.300415 116.182594,293.810303 
	C163.497437,321.050629 210.783142,348.341522 258.096924,375.583649 
	C259.317047,376.286163 260.783478,376.560822 262.835205,377.038666 
	C279.263184,367.510498 295.691193,357.982361 312.770508,348.268738 
	C313.614624,347.626099 314.458740,346.983459 315.218567,346.142120 
	C315.218567,346.142120 315.239166,346.356995 315.955231,346.313507 
	C318.699707,344.609619 321.444214,342.905731 324.060272,341.131104 
	C324.060272,341.131104 324.140839,341.253601 324.868347,341.205353 
	C328.932159,338.819763 332.995972,336.434204 336.997589,334.005981 
	C336.997589,334.005981 337.045013,334.064941 337.706390,333.959900 
	C338.903137,333.079559 340.099884,332.199249 341.216675,331.229523 
	C341.216675,331.229523 341.193695,331.347229 341.812500,331.341095 
	C342.274689,330.965973 342.736877,330.590851 343.076477,330.180054 
	C343.076477,330.180054 343.152344,330.282745 343.824707,330.245636 
	C344.920959,329.526276 346.017212,328.806885 347.038971,328.039154 
	C347.038971,328.039154 347.049713,328.127350 347.611542,328.048462 
	C347.817749,327.759979 348.023987,327.471497 348.181213,327.287292 
	C348.181213,327.287292 348.290741,327.323029 348.999695,327.272339 
	C353.423828,324.606018 357.847931,321.939728 362.172394,319.195099 
	C362.172394,319.195099 362.191986,319.320282 362.887329,319.276764 
	C364.355286,318.289368 365.823242,317.301941 367.191193,316.187866 
	C367.191193,316.187866 367.216278,316.347290 367.889465,316.326904 
	C368.985382,315.606995 370.081299,314.887085 371.083344,314.127747 
	C371.083344,314.127747 371.106567,314.226898 371.765228,314.170319 
	C372.605469,313.553467 373.445709,312.936646 374.175690,312.149445 
	C374.175690,312.149445 374.222107,312.346985 374.940247,312.301208 
	C377.695465,310.605957 380.450714,308.910736 383.090240,307.161469 
	C383.090240,307.161469 383.147949,307.275360 383.844971,307.220856 
	C385.315033,306.232300 386.785095,305.243713 388.162476,304.183929 
	C388.162476,304.183929 388.171234,304.300476 388.896271,304.268311 
	C391.659088,302.569458 394.421906,300.870636 397.092133,299.128418 
	C397.092133,299.128418 397.090820,299.230652 397.724457,299.171814 
	C398.226837,298.810577 398.729187,298.449310 399.768677,298.030792 
	C400.188049,297.718719 400.607422,297.406616 401.568390,296.985931 
	C401.785736,296.707794 402.003113,296.429688 402.094177,296.174866 
	C402.094177,296.174866 402.158295,296.286133 402.850403,296.220825 
	C404.318146,295.237640 405.785889,294.254486 407.161072,293.154144 
	C407.161072,293.154144 407.179810,293.302307 407.931732,293.245148 
	C411.693542,292.425323 411.529785,289.563019 411.527740,286.623230 
	C411.496948,242.853973 411.505951,199.084732 411.506744,155.315475 
	C411.506927,144.497986 411.576965,133.679688 411.444458,122.863846 
	C411.424103,121.204010 410.988586,118.715569 409.877106,118.041466 
	C403.790405,114.349915 397.432983,111.104813 391.056946,107.830292 
	C391.056946,107.830292 391.208710,107.761078 390.915466,107.216324 
	C390.346436,107.022537 389.777374,106.828751 389.141449,106.755402 
	C389.141449,106.755402 389.279205,106.757568 389.098694,106.225952 
z"/>
<path fill="#048EC3" opacity="1.000000" stroke="none" 
	d="
M262.135010,377.035034 
	C260.783478,376.560822 259.317047,376.286163 258.096924,375.583649 
	C210.783142,348.341522 163.497437,321.050629 116.182594,293.810303 
	C113.559982,292.300415 112.116631,290.722900 112.125259,287.270538 
	C112.262138,232.481262 112.181259,177.691437 112.350403,122.902344 
	C112.356522,120.919510 113.901863,118.068909 115.583679,117.090752 
	C163.352798,89.307968 211.231216,61.713089 259.097717,34.097794 
	C259.813354,33.684917 260.603210,33.400692 261.684631,33.577213 
	C262.000671,50.013790 261.990540,65.929581 261.711792,81.956039 
	C260.894989,82.232590 260.346741,82.398468 259.596649,82.531189 
	C259.394775,82.498016 259.085236,82.765671 258.706146,82.763863 
	C255.930984,84.507065 253.534897,86.252075 251.003052,88.084503 
	C250.867294,88.171913 250.876511,88.494720 250.582596,88.737190 
	C249.378433,94.589523 245.037415,96.943184 240.628586,99.323555 
	C238.011826,100.736389 235.550781,102.437622 233.010986,104.003075 
	C233.002258,103.996964 233.004364,104.016983 232.731583,104.049255 
	C232.235504,104.349609 232.012207,104.617699 231.860474,104.890915 
	C231.932053,104.896049 231.909424,104.754333 231.603622,104.786316 
	C230.835739,105.189629 230.373657,105.560974 229.945724,105.955650 
	C229.979874,105.978989 229.965363,105.897552 229.665176,105.919601 
	C228.894836,106.285568 228.424683,106.629486 227.973892,106.989174 
	C227.993256,107.004951 227.977905,106.957603 227.659790,106.991173 
	C226.503906,107.638031 225.666122,108.251328 224.878448,108.884125 
	C224.928528,108.903625 224.935577,108.796356 224.627441,108.828735 
	C223.836792,109.211853 223.354279,109.562592 222.918777,109.928101 
	C222.965790,109.942863 222.916183,109.857689 222.573975,109.919174 
	C220.122681,111.299606 218.013580,112.618561 215.938828,113.958344 
	C215.973175,113.979164 215.963791,113.899384 215.684921,113.944687 
	C215.176514,114.266151 214.946976,114.542305 214.801605,114.811584 
	C214.885788,114.804710 214.819260,114.649437 214.485626,114.686874 
	C213.049713,115.444229 211.947433,116.164146 210.888306,116.899719 
	C210.931442,116.915375 210.933548,116.823601 210.652161,116.858940 
	C210.130127,117.160759 209.889481,117.427231 209.649658,117.629181 
	C209.650513,117.564651 209.521912,117.553757 209.195633,117.630951 
	C205.519531,119.758011 202.169708,121.807892 198.878296,123.865219 
	C198.936691,123.872665 198.853378,123.789459 198.521454,123.846436 
	C196.718414,124.867371 195.247269,125.831314 193.832184,126.810745 
	C193.888229,126.826218 193.863602,126.712570 193.514435,126.758560 
	C191.574615,127.822563 189.983963,128.840591 188.269287,129.823410 
	C188.145248,129.788223 187.996384,129.998779 187.655945,130.055374 
	C184.824570,131.638748 182.333649,133.165512 179.553116,134.733551 
	C178.824371,135.130600 178.385239,135.486359 177.597885,135.910553 
	C174.104767,138.112015 171.090820,138.928879 167.237534,137.038422 
	C165.319504,136.097427 162.470551,137.053940 159.710938,137.137009 
	C157.988419,137.779770 156.597656,138.437637 154.940292,139.163467 
	C154.460220,139.518326 154.246750,139.805206 154.027618,140.054260 
	C154.021942,140.016418 154.090546,140.050323 153.723328,140.090134 
	C152.971420,140.926270 152.586731,141.722580 152.190125,142.674515 
	C152.178207,142.830124 151.937897,143.029312 151.720856,143.162018 
	C151.413208,143.610931 151.322617,143.927155 151.213287,144.184280 
	C151.194565,144.125183 151.302139,144.186813 150.915741,144.288971 
	C147.744888,149.079132 148.911636,155.641022 153.068832,158.053284 
	C153.193665,158.135071 153.236740,158.430405 153.207123,158.842438 
	C153.970749,159.783478 154.764008,160.312469 155.685272,160.824677 
	C155.813278,160.807892 155.972244,161.011307 155.989227,161.409775 
	C156.673279,164.932343 157.896347,168.052490 157.918610,171.181168 
	C158.083771,194.393051 158.071808,217.607010 157.932449,240.819214 
	C157.915405,243.661713 156.814224,246.497681 156.190308,249.278137 
	C156.165161,249.219604 156.290680,249.241531 156.008850,249.266235 
	C155.517548,249.585892 155.308090,249.880829 155.090393,250.131592 
	C155.082138,250.087418 155.170547,250.103699 154.906601,250.176651 
	C154.457184,250.550797 154.271713,250.852005 154.071259,251.099670 
	C154.056305,251.046112 154.142288,251.116592 153.769485,251.112366 
	C149.630768,253.992310 148.423706,258.204437 150.419189,262.372070 
	C150.649048,263.482452 150.729568,264.240234 150.612640,265.184143 
	C150.727509,265.836029 151.039825,266.301788 151.317780,266.858337 
	C151.283401,266.949097 151.296814,266.755463 151.230438,267.095947 
	C151.604782,267.833527 152.045502,268.230591 152.444687,268.724792 
	C152.403152,268.821930 152.414230,268.610931 152.396973,268.906921 
	C152.709656,269.361664 153.039581,269.520447 153.282944,269.775452 
	C153.196365,269.871674 153.317657,269.642944 153.335205,269.937714 
	C153.687897,270.384674 154.023056,270.536896 154.267365,270.768982 
	C154.176544,270.848846 154.307861,270.645691 154.329163,270.939941 
	C154.689163,271.372772 155.027847,271.511353 155.271393,271.688538 
	C155.176270,271.727173 155.324326,271.584869 155.346222,271.961792 
	C156.648605,272.812805 157.929077,273.286957 159.159637,273.792603 
	C159.109726,273.824097 159.100311,273.706451 159.311829,274.053955 
	C162.363159,274.201141 165.202988,274.000793 168.133362,273.741760 
	C168.223907,273.683044 168.402725,273.803925 168.729370,273.791290 
	C169.378403,273.506836 169.700775,273.234985 170.106384,272.857025 
	C170.189621,272.750885 170.457901,272.779205 170.897858,272.842499 
	C171.928696,272.908966 172.519577,272.912140 173.063065,272.940338 
	C173.015656,272.965393 173.075089,272.876129 173.106125,273.244019 
	C174.165573,273.994110 175.193970,274.376312 176.170074,274.788879 
	C176.117752,274.819214 176.150620,274.702820 176.259949,275.012665 
	C176.966431,275.500732 177.563568,275.678955 178.117752,275.876373 
	C178.074799,275.895569 178.083725,275.801910 178.210876,276.094971 
	C178.921204,276.571289 179.504410,276.754517 180.055344,276.960144 
	C180.023071,276.982544 180.028900,276.904205 180.172424,277.168335 
	C180.867157,277.619690 181.418350,277.806854 182.307495,278.083130 
	C204.559082,290.763672 226.472702,303.355103 248.394165,316.347290 
	C248.629517,321.050598 248.802872,325.374329 252.864243,328.157990 
	C252.854736,328.143494 252.831421,328.179779 252.996277,328.488495 
	C256.097382,329.940399 259.033661,331.083557 261.974976,332.681183 
	C262.031677,347.768768 262.083344,362.401917 262.135010,377.035034 
z"/>
<path fill="#2AB1DA" opacity="1.000000" stroke="none" 
	d="
M262.485107,377.036865 
	C262.083344,362.401917 262.031677,347.768768 262.360229,332.593658 
	C270.847107,330.635651 274.125336,326.947998 275.255463,318.944183 
	C275.500244,317.210297 277.159210,315.138428 278.745026,314.212341 
	C301.884216,300.699280 325.090485,287.299377 348.396942,274.077332 
	C350.208923,273.049377 353.073944,272.884949 355.129608,273.460907 
	C361.927826,275.365906 368.700958,272.973389 371.858734,266.999420 
	C374.865082,261.311798 373.423523,253.902740 367.905792,250.040863 
	C365.156769,248.116837 364.523438,246.053513 364.531189,243.016174 
	C364.596100,217.541855 364.481110,192.066788 364.653320,166.593521 
	C364.666168,164.692581 366.030151,162.254379 367.542419,161.008072 
	C373.006958,156.504593 374.981781,149.530487 371.944366,143.635193 
	C368.748688,137.432693 362.002716,135.056229 354.845154,137.152664 
	C352.896057,137.723557 350.159698,137.722672 348.476562,136.766342 
	C325.036041,123.447876 301.700684,109.943581 278.403320,96.375374 
	C276.978241,95.545410 275.508698,93.975998 275.045563,92.451241 
	C273.044647,85.863098 268.507233,82.702843 261.980408,81.845375 
	C261.990540,65.929581 262.000671,50.013790 262.039185,33.644852 
	C272.618439,39.108376 283.224213,44.929550 293.709656,50.959885 
	C323.393799,68.031639 353.028656,85.189026 382.899658,102.958344 
	C384.793793,104.359123 386.471161,105.114258 388.148560,105.869385 
	C388.148560,105.869385 388.063843,105.923904 388.174011,106.135963 
	C388.615845,106.484535 388.947540,106.621048 389.279205,106.757568 
	C389.279205,106.757568 389.141449,106.755402 389.258423,107.024979 
	C389.986511,107.450066 390.597595,107.605576 391.208710,107.761078 
	C391.208710,107.761078 391.056946,107.830292 391.181702,108.120514 
	C395.624725,111.153870 399.817780,114.126526 404.298615,116.571732 
	C408.301361,118.756035 410.159576,121.304291 410.138824,126.271347 
	C409.921753,178.235687 409.981323,230.201324 410.050812,282.166473 
	C410.056213,286.207642 410.000671,290.067108 407.179810,293.302307 
	C407.179810,293.302307 407.161072,293.154144 406.832581,293.128113 
	C405.055511,294.163422 403.606903,295.224792 402.158295,296.286133 
	C402.158295,296.286133 402.094177,296.174866 401.888885,296.218353 
	C401.464630,296.539398 401.245697,296.816956 401.026764,297.094513 
	C400.607422,297.406616 400.188049,297.718719 399.162903,298.053284 
	C398.068359,298.460693 397.579590,298.845673 397.090820,299.230652 
	C397.090820,299.230652 397.092133,299.128418 396.726410,299.093811 
	C392.176849,298.534393 390.189056,301.440887 388.171234,304.300476 
	C388.171234,304.300476 388.162476,304.183929 387.843079,304.159729 
	C386.065125,305.182129 384.606537,306.228760 383.147949,307.275360 
	C383.147949,307.275360 383.090240,307.161469 382.764343,307.121643 
	C379.699677,308.836884 376.960907,310.591949 374.222107,312.346985 
	C374.222107,312.346985 374.175690,312.149445 373.879272,312.152130 
	C372.757446,312.845520 371.932007,313.536194 371.106567,314.226868 
	C371.106567,314.226898 371.083344,314.127747 370.756348,314.095886 
	C369.358337,314.825104 368.287292,315.586182 367.216278,316.347290 
	C367.216278,316.347290 367.191193,316.187866 366.874268,316.172394 
	C365.102203,317.211365 363.647095,318.265808 362.191986,319.320282 
	C362.191986,319.320282 362.172394,319.195099 361.833740,319.173950 
	C357.093658,321.876221 352.692200,324.599640 348.290741,327.323029 
	C348.290741,327.323029 348.181213,327.287292 347.933929,327.280823 
	C347.474335,327.558655 347.262024,327.842987 347.049713,328.127350 
	C347.049713,328.127350 347.038971,328.039154 346.708496,328.033691 
	C345.302795,328.779724 344.227570,329.531250 343.152344,330.282745 
	C343.152344,330.282745 343.076477,330.180054 342.802185,330.153259 
	C342.083160,330.533356 341.638428,330.940308 341.193695,331.347229 
	C341.193695,331.347229 341.216675,331.229523 340.886841,331.195923 
	C339.386322,332.129852 338.215668,333.097382 337.045013,334.064941 
	C337.045013,334.064941 336.997589,334.005981 336.624146,334.007812 
	C330.760986,333.995087 327.544220,337.780334 324.140839,341.253601 
	C324.140839,341.253601 324.060272,341.131104 323.742004,341.105225 
	C320.695557,342.838593 317.967377,344.597778 315.239166,346.356995 
	C315.239166,346.356995 315.218567,346.142120 314.891815,346.155151 
	C313.749756,346.930176 312.934479,347.692200 312.119202,348.454224 
	C295.691193,357.982361 279.263184,367.510498 262.485107,377.036865 
z"/>
<path fill="#36AFC9" opacity="1.000000" stroke="none" 
	d="
M407.555786,293.273743 
	C410.000671,290.067108 410.056213,286.207642 410.050812,282.166473 
	C409.981323,230.201324 409.921753,178.235687 410.138824,126.271347 
	C410.159576,121.304291 408.301361,118.756035 404.298615,116.571732 
	C399.817780,114.126526 395.624725,111.153870 391.237488,108.058533 
	C397.432983,111.104813 403.790405,114.349915 409.877106,118.041466 
	C410.988586,118.715569 411.424103,121.204010 411.444458,122.863846 
	C411.576965,133.679688 411.506927,144.497986 411.506744,155.315475 
	C411.505951,199.084732 411.496948,242.853973 411.527740,286.623230 
	C411.529785,289.563019 411.693542,292.425323 407.555786,293.273743 
z"/>
<path fill="#36AFC9" opacity="1.000000" stroke="none" 
	d="
M348.645203,327.297668 
	C352.692200,324.599640 357.093658,321.876221 361.883575,319.213135 
	C357.847931,321.939728 353.423828,324.606018 348.645203,327.297668 
z"/>
<path fill="#36AFC9" opacity="1.000000" stroke="none" 
	d="
M324.504578,341.229492 
	C327.544220,337.780334 330.760986,333.995087 336.655243,334.029114 
	C332.995972,336.434204 328.932159,338.819763 324.504578,341.229492 
z"/>
<path fill="#36AFC9" opacity="1.000000" stroke="none" 
	d="
M388.533752,304.284393 
	C390.189056,301.440887 392.176849,298.534393 396.772705,299.115540 
	C394.421906,300.870636 391.659088,302.569458 388.533752,304.284393 
z"/>
<path fill="#36AFC9" opacity="1.000000" stroke="none" 
	d="
M374.581177,312.324097 
	C376.960907,310.591949 379.699677,308.836884 382.822205,307.148651 
	C380.450714,308.910736 377.695465,310.605957 374.581177,312.324097 
z"/>
<path fill="#36AFC9" opacity="1.000000" stroke="none" 
	d="
M315.597198,346.335266 
	C317.967377,344.597778 320.695557,342.838593 323.806213,341.140625 
	C321.444214,342.905731 318.699707,344.609619 315.597198,346.335266 
z"/>
<path fill="#36AFC9" opacity="1.000000" stroke="none" 
	d="
M402.504333,296.253479 
	C403.606903,295.224792 405.055511,294.163422 406.878876,293.186707 
	C405.785889,294.254486 404.318146,295.237640 402.504333,296.253479 
z"/>
<path fill="#36AFC9" opacity="1.000000" stroke="none" 
	d="
M387.962738,105.593842 
	C386.471161,105.114258 384.793793,104.359123 383.081451,103.241241 
	C384.623322,103.691765 386.200104,104.505028 387.962738,105.593842 
z"/>
<path fill="#36AFC9" opacity="1.000000" stroke="none" 
	d="
M383.496460,307.248108 
	C384.606537,306.228760 386.065125,305.182129 387.889435,304.195312 
	C386.785095,305.243713 385.315033,306.232300 383.496460,307.248108 
z"/>
<path fill="#36AFC9" opacity="1.000000" stroke="none" 
	d="
M362.539673,319.298523 
	C363.647095,318.265808 365.102203,317.211365 366.924255,316.235718 
	C365.823242,317.301941 364.355286,318.289368 362.539673,319.298523 
z"/>
<path fill="#36AFC9" opacity="1.000000" stroke="none" 
	d="
M337.375702,334.012421 
	C338.215668,333.097382 339.386322,332.129852 340.926819,331.240601 
	C340.099884,332.199249 338.903137,333.079559 337.375702,334.012421 
z"/>
<path fill="#36AFC9" opacity="1.000000" stroke="none" 
	d="
M367.552856,316.337097 
	C368.287292,315.586182 369.358337,314.825104 370.803284,314.115601 
	C370.081299,314.887085 368.985382,315.606995 367.552856,316.337097 
z"/>
<path fill="#36AFC9" opacity="1.000000" stroke="none" 
	d="
M343.488525,330.264191 
	C344.227570,329.531250 345.302795,328.779724 346.745728,328.057861 
	C346.017212,328.806885 344.920959,329.526276 343.488525,330.264191 
z"/>
<path fill="#36AFC9" opacity="1.000000" stroke="none" 
	d="
M371.435913,314.198608 
	C371.932007,313.536194 372.757446,312.845520 373.934418,312.237305 
	C373.445709,312.936646 372.605469,313.553467 371.435913,314.198608 
z"/>
<path fill="#36AFC9" opacity="1.000000" stroke="none" 
	d="
M312.444855,348.361481 
	C312.934479,347.692200 313.749756,346.930176 314.933960,346.254517 
	C314.458740,346.983459 313.614624,347.626099 312.444855,348.361481 
z"/>
<path fill="#36AFC9" opacity="1.000000" stroke="none" 
	d="
M397.407654,299.201233 
	C397.579590,298.845673 398.068359,298.460693 398.894348,298.081909 
	C398.729187,298.449310 398.226837,298.810577 397.407654,299.201233 
z"/>
<path fill="#36AFC9" opacity="1.000000" stroke="none" 
	d="
M391.062073,107.488701 
	C390.597595,107.605576 389.986511,107.450066 389.291870,106.964767 
	C389.777374,106.828751 390.346436,107.022537 391.062073,107.488701 
z"/>
<path fill="#36AFC9" opacity="1.000000" stroke="none" 
	d="
M341.503113,331.344177 
	C341.638428,330.940308 342.083160,330.533356 342.863464,330.171082 
	C342.736877,330.590851 342.274689,330.965973 341.503113,331.344177 
z"/>
<path fill="#36AFC9" opacity="1.000000" stroke="none" 
	d="
M347.330627,328.087891 
	C347.262024,327.842987 347.474335,327.558655 347.958435,327.228668 
	C348.023987,327.471497 347.817749,327.759979 347.330627,328.087891 
z"/>
<path fill="#36AFC9" opacity="1.000000" stroke="none" 
	d="
M389.188965,106.491760 
	C388.947540,106.621048 388.615845,106.484535 388.182190,106.086258 
	C388.419708,105.958313 388.759186,106.092133 389.188965,106.491760 
z"/>
<path fill="#36AFC9" opacity="1.000000" stroke="none" 
	d="
M401.297577,297.040222 
	C401.245697,296.816956 401.464630,296.539398 401.952026,296.206696 
	C402.003113,296.429688 401.785736,296.707794 401.297577,297.040222 
z"/>
<path fill="#EDF6F6" opacity="1.000000" stroke="none" 
	d="
M261.711792,81.956039 
	C268.507233,82.702843 273.044647,85.863098 275.045563,92.451241 
	C275.508698,93.975998 276.978241,95.545410 278.403320,96.375374 
	C301.700684,109.943581 325.036041,123.447876 348.476562,136.766342 
	C350.159698,137.722672 352.896057,137.723557 354.845154,137.152664 
	C362.002716,135.056229 368.748688,137.432693 371.944366,143.635193 
	C374.981781,149.530487 373.006958,156.504593 367.542419,161.008072 
	C366.030151,162.254379 364.666168,164.692581 364.653320,166.593521 
	C364.481110,192.066788 364.596100,217.541855 364.531189,243.016174 
	C364.523438,246.053513 365.156769,248.116837 367.905792,250.040863 
	C373.423523,253.902740 374.865082,261.311798 371.858734,266.999420 
	C368.700958,272.973389 361.927826,275.365906 355.129608,273.460907 
	C353.073944,272.884949 350.208923,273.049377 348.396942,274.077332 
	C325.090485,287.299377 301.884216,300.699280 278.745026,314.212341 
	C277.159210,315.138428 275.500244,317.210297 275.255463,318.944183 
	C274.125336,326.947998 270.847107,330.635651 262.355194,332.139221 
	C259.033661,331.083557 256.097382,329.940399 253.419952,328.435974 
	C257.182312,328.751404 260.685852,329.428070 263.339355,329.940552 
	C262.465790,326.602081 261.131653,323.800049 261.126556,320.995575 
	C261.116608,315.516418 261.849274,310.035919 262.361053,303.440369 
	C260.829010,304.536499 259.782440,305.128265 258.931610,305.928223 
	C257.388031,307.379608 256.160767,309.270752 254.418533,310.373138 
	C253.149384,311.176208 251.264954,311.006927 249.654816,311.271118 
	C249.614594,309.715637 249.574387,308.160187 249.868927,306.704041 
	C255.013184,308.679901 256.777039,307.563171 258.150085,301.967499 
	C258.629669,301.986603 258.821564,301.992706 259.406097,301.901428 
	C260.199158,299.156281 260.923492,296.511139 260.945679,293.860138 
	C261.061676,279.986053 261.044281,266.110046 260.913147,252.236237 
	C260.902863,251.148514 259.667328,250.072372 258.714172,249.004730 
	C258.235809,249.028717 258.044495,249.038818 257.717468,248.800293 
	C259.100555,246.727859 260.619385,244.904053 262.454895,242.977173 
	C268.177551,238.549072 273.583588,234.224014 279.338928,229.657013 
	C279.871094,228.623016 280.214172,227.830872 280.213654,227.038971 
	C280.198792,204.032089 280.149597,181.025208 280.419464,157.755630 
	C283.500671,157.275879 286.268402,157.058838 289.020325,156.896118 
	C289.004578,156.950455 289.115204,156.974152 289.082916,157.443176 
	C288.992584,183.242233 288.934540,208.572250 288.908142,233.956253 
	C288.939789,234.010239 288.905121,233.890259 288.613159,233.997467 
	C287.486816,235.007370 286.652466,235.910049 285.870789,236.857178 
	C285.923492,236.901627 285.876587,236.771957 285.563477,236.799286 
	C284.807983,237.210220 284.365601,237.593826 283.731323,238.095718 
	C283.283936,238.389496 283.096832,238.620422 282.719299,238.980408 
	C282.255371,239.335388 282.050262,239.616714 281.894775,239.888580 
	C281.944366,239.879135 281.859772,239.824020 281.565521,239.890656 
	C280.753296,240.527267 280.235321,241.097244 279.705688,241.722855 
	C279.694031,241.778488 279.771423,241.695206 279.475403,241.734741 
	C278.742737,242.164337 278.306030,242.554398 277.557739,243.063385 
	C274.489532,245.332947 271.595734,247.335083 269.035767,249.698730 
	C267.807068,250.833176 266.452820,252.645630 266.442047,254.160156 
	C266.326111,270.486786 266.399384,286.816010 266.585907,303.142639 
	C266.631134,307.099579 269.594391,308.772095 272.956177,306.866211 
	C285.995361,299.473663 299.012787,292.039520 311.904968,284.395935 
	C313.259155,283.593079 314.491302,281.308838 314.499939,279.705017 
	C314.614441,258.379150 314.445923,237.051910 314.492981,215.725342 
	C314.501434,211.899002 313.922607,209.159241 310.366760,206.540665 
	C303.485931,201.473541 303.517853,191.975998 309.648651,185.963562 
	C315.267944,180.452759 324.665588,180.881165 329.709656,186.878052 
	C334.927094,193.081009 334.070770,203.018845 327.346649,207.146881 
	C324.156555,209.105316 323.724670,211.245209 323.738770,214.415222 
	C323.823975,233.577850 323.767883,252.741058 323.781525,271.904083 
	C323.782654,273.478577 323.951477,275.052917 324.087036,277.400818 
	C331.501984,273.175018 338.318024,269.435883 344.931000,265.366669 
	C345.935181,264.748810 346.363373,262.614166 346.425781,261.154053 
	C346.622620,256.550079 347.998962,252.456314 351.958923,249.994370 
	C354.624908,248.336899 355.324341,246.419983 355.314209,243.490723 
	C355.225159,217.829453 355.324066,192.167313 355.134125,166.507141 
	C355.120087,164.609924 353.319427,162.713028 352.307098,160.838837 
	C350.399353,157.307022 347.468567,153.957947 346.842590,150.218277 
	C346.322632,147.112091 345.349915,145.567917 342.883667,144.152145 
	C321.650146,131.963089 300.388336,119.820045 279.307922,107.370392 
	C275.046844,104.853874 271.719330,103.435410 267.655487,107.493073 
	C266.439301,108.707443 263.932587,108.629333 261.640686,109.055405 
	C258.507477,107.653267 255.750687,106.339088 253.402924,105.018082 
	C256.669525,105.626106 259.527100,106.240959 263.788422,107.157845 
	C259.081787,101.495354 260.748383,96.502541 262.159912,91.782959 
	C263.302032,87.964279 262.209381,85.219315 259.798523,82.564354 
	C260.346741,82.398468 260.894989,82.232590 261.711792,81.956039 
z"/>
<path fill="#EAF2F2" opacity="1.000000" stroke="none" 
	d="
M249.534164,306.604706 
	C249.574387,308.160187 249.614594,309.715637 249.654816,311.271118 
	C251.264954,311.006927 253.149384,311.176208 254.418533,310.373138 
	C256.160767,309.270752 257.388031,307.379608 258.931610,305.928223 
	C259.782440,305.128265 260.829010,304.536499 262.361053,303.440369 
	C261.849274,310.035919 261.116608,315.516418 261.126556,320.995575 
	C261.131653,323.800049 262.465790,326.602081 263.339355,329.940552 
	C260.685852,329.428070 257.182312,328.751404 253.255096,328.127258 
	C252.831421,328.179779 252.854736,328.143494 252.898605,327.764771 
	C251.423752,323.572876 249.905045,319.759674 248.386337,315.946503 
	C226.472702,303.355103 204.559082,290.763672 182.151581,277.832336 
	C181.114761,277.296326 180.571823,277.100281 180.028900,276.904236 
	C180.028900,276.904205 180.023071,276.982544 179.888977,276.706573 
	C179.197830,276.221039 178.640778,276.011475 178.083725,275.801910 
	C178.083725,275.801910 178.074799,275.895569 177.957596,275.615051 
	C177.277130,275.123962 176.713882,274.913391 176.150620,274.702820 
	C176.150620,274.702820 176.117752,274.819214 175.991943,274.529602 
	C174.935776,273.785339 174.005432,273.330750 173.075089,272.876129 
	C173.075089,272.876129 173.015656,272.965393 172.878754,272.670288 
	C171.980530,272.509888 171.219223,272.644531 170.457901,272.779205 
	C170.457901,272.779205 170.189621,272.750885 169.787567,272.888397 
	C169.057907,273.285248 168.730316,273.544586 168.402725,273.803925 
	C168.402725,273.803925 168.223907,273.683044 167.680481,273.730530 
	C164.458145,273.754181 161.779221,273.730316 159.100311,273.706482 
	C159.100311,273.706451 159.109726,273.824097 158.958588,273.538757 
	C157.646423,272.697235 156.485367,272.141052 155.324326,271.584869 
	C155.324326,271.584869 155.176270,271.727173 155.180939,271.444397 
	C154.893021,270.989655 154.600449,270.817657 154.307861,270.645691 
	C154.307861,270.645691 154.176544,270.848846 154.185089,270.517700 
	C153.901642,270.005341 153.609650,269.824127 153.317657,269.642944 
	C153.317657,269.642944 153.196365,269.871674 153.212860,269.528687 
	C152.957657,268.994080 152.685944,268.802490 152.414230,268.610931 
	C152.414230,268.610931 152.403152,268.821930 152.402283,268.435608 
	C152.033218,267.618011 151.665024,267.186737 151.296814,266.755463 
	C151.296814,266.755463 151.283401,266.949097 151.307587,266.544037 
	C151.157883,265.758667 150.983978,265.378357 150.810089,264.998047 
	C150.729568,264.240234 150.649048,263.482452 150.566040,261.975861 
	C151.756439,257.856903 152.949356,254.486755 154.142273,251.116592 
	C154.142288,251.116592 154.056305,251.046112 154.328796,251.018005 
	C154.791031,250.694489 154.980789,250.399094 155.170547,250.103699 
	C155.170547,250.103699 155.082138,250.087418 155.357727,250.076233 
	C155.852448,249.790527 156.071579,249.516037 156.290680,249.241547 
	C156.290680,249.241531 156.165161,249.219604 156.531219,249.209259 
	C157.730789,248.790543 158.564316,248.382172 159.751419,247.838776 
	C160.402054,246.807816 160.957047,245.912323 160.958679,245.015823 
	C161.006638,218.772400 161.017670,192.528839 160.936707,166.285599 
	C160.933350,165.198776 159.986252,164.114853 159.248932,162.770569 
	C158.003448,162.011490 156.987839,161.511398 155.972244,161.011307 
	C155.972244,161.011307 155.813278,160.807892 155.523926,160.524002 
	C154.568634,159.636871 153.902679,159.033646 153.236740,158.430405 
	C153.236740,158.430405 153.193665,158.135071 152.958923,157.690033 
	C152.250153,152.892258 151.776138,148.539536 151.302124,144.186813 
	C151.302139,144.186813 151.194565,144.125183 151.432205,144.055206 
	C151.759201,143.666595 151.848541,143.347946 151.937897,143.029312 
	C151.937897,143.029312 152.178207,142.830124 152.464752,142.506088 
	C153.197708,141.471481 153.644135,140.760910 154.090546,140.050323 
	C154.090546,140.050323 154.021942,140.016418 154.289001,139.977020 
	C154.772995,139.656921 154.989944,139.376205 155.206894,139.095505 
	C156.597656,138.437637 157.988419,137.779770 160.003052,137.386826 
	C162.659241,138.093018 165.048203,138.004379 166.651337,139.083344 
	C170.245834,141.502579 175.958176,140.099518 177.946121,135.842117 
	C178.385239,135.486359 178.824371,135.130600 179.750793,135.026825 
	C183.260223,135.054138 186.282333,134.829437 189.331680,134.602722 
	C188.859848,132.975922 188.428116,131.487350 187.996384,129.998779 
	C187.996384,129.998779 188.145248,129.788223 188.675980,129.853638 
	C190.759003,128.850220 192.311310,127.781395 193.863602,126.712570 
	C193.863602,126.712570 193.888229,126.826218 194.231995,126.874298 
	C196.429642,127.543007 198.283539,128.163620 200.550064,128.922379 
	C199.887543,126.918045 199.370453,125.353752 198.853378,123.789459 
	C198.853378,123.789459 198.936691,123.872665 199.273376,123.903717 
	C203.739227,123.622368 207.868393,123.309967 211.998779,122.998779 
	C212.000000,123.000000 212.002304,123.002342 211.943329,123.344223 
	C210.603668,125.148582 209.322998,126.611053 208.026794,128.038071 
	C208.011261,128.002609 208.074997,128.046585 207.751678,128.067932 
	C206.978485,128.488647 206.528610,128.888016 205.872528,129.546417 
	C197.177612,134.701630 188.633682,139.506668 180.253738,144.582413 
	C178.833923,145.442398 177.258316,147.452774 177.234253,148.955338 
	C177.149597,154.244385 175.032349,158.218781 170.598755,161.428131 
	C169.541275,163.346634 168.229401,165.171143 168.219345,167.002792 
	C168.087296,191.050323 168.360519,215.102280 167.989868,239.144775 
	C167.896469,245.203201 168.960175,249.701889 174.749939,252.255341 
	C174.790619,252.193893 174.643616,252.183395 174.680756,252.491150 
	C175.106522,253.250916 175.495178,253.702927 175.896942,254.104370 
	C175.910049,254.053818 175.820572,254.107712 175.879852,254.511261 
	C176.306396,257.282257 176.479446,259.703705 177.117020,261.995972 
	C177.473984,263.279358 178.600754,264.348663 179.440735,265.520447 
	C179.500809,265.526459 179.609726,265.474365 179.712280,265.721741 
	C180.146683,266.085938 180.478546,266.202759 180.834915,266.257233 
	C180.859421,266.194885 180.726105,266.208160 180.850983,266.452820 
	C181.314911,266.812836 181.653976,266.928162 182.158890,267.282990 
	C182.856384,267.733856 183.388046,267.945190 184.084442,268.394775 
	C184.785309,268.826263 185.321442,269.019592 185.883347,269.168579 
	C185.909119,269.124237 185.807907,269.107483 185.907501,269.356750 
	C186.332443,269.720764 186.657791,269.835571 187.083130,270.067993 
	C187.183136,270.185638 187.488251,270.137909 187.667786,270.389832 
	C188.227921,270.778351 188.608505,270.914978 188.991364,271.023987 
	C188.993637,270.996368 188.948044,271.027863 189.113434,271.282654 
	C189.840012,271.739014 190.401169,271.940582 190.958679,272.100891 
	C190.955032,272.059601 190.876694,272.086792 191.038300,272.351746 
	C191.768890,272.829498 192.337891,273.042267 192.914337,273.183289 
	C192.921768,273.111511 192.779114,273.133453 192.891281,273.382935 
	C193.335739,273.761414 193.668015,273.890442 194.160477,274.266022 
	C194.865555,274.703796 195.410461,274.895020 196.136780,275.348114 
	C197.085876,275.905121 197.853561,276.200256 198.679077,276.468475 
	C198.736893,276.441559 198.638763,276.360046 198.736450,276.624146 
	C199.180206,277.012360 199.526306,277.136444 199.880386,277.208557 
	C199.888382,277.156616 199.789658,277.192810 199.950958,277.456909 
	C200.679520,277.937714 201.246765,278.154388 201.830048,278.311768 
	C201.846085,278.252502 201.732849,278.300018 201.887558,278.561249 
	C202.593430,279.041443 203.144577,279.260376 203.743622,279.424377 
	C203.791519,279.369446 203.646240,279.357391 203.766968,279.608765 
	C204.236359,279.966492 204.585007,280.072815 204.925995,280.131714 
	C204.918335,280.084290 204.833115,280.128723 204.937439,280.358521 
	C205.394821,280.938629 205.747864,281.288940 206.092896,281.953125 
	C206.713455,282.545807 207.342056,282.824677 208.285706,283.067261 
	C208.913315,282.606689 209.225876,282.182373 209.594421,281.551666 
	C209.650421,281.345276 209.878128,280.983215 210.240173,280.932220 
	C210.943771,280.554840 211.584137,280.228760 211.584427,279.902069 
	C211.610092,251.178223 211.596802,222.454300 211.488327,193.730759 
	C211.486267,193.186691 210.318115,192.647018 209.504120,192.040161 
	C209.074646,191.811279 208.947906,191.584488 208.758087,190.966644 
	C207.877258,190.463501 207.172272,190.288406 206.155685,190.090179 
	C204.625290,189.307175 203.406494,188.547287 202.141174,187.822479 
	C202.094620,187.857559 202.210983,187.864441 202.126129,187.598358 
	C201.728516,187.150848 201.415771,186.969406 201.093460,186.846924 
	C201.083908,186.905899 201.202423,186.890594 201.098358,186.636169 
	C200.670349,186.216858 200.346420,186.051971 199.987030,185.653412 
	C199.951569,185.419724 199.744415,184.994812 199.758163,184.751953 
	C199.638062,184.173813 199.392075,183.983704 199.020264,183.969604 
	C199.006577,184.000473 199.061249,183.960846 199.002777,183.579834 
	C198.674423,178.459946 198.404510,173.721039 198.198486,168.892624 
	C198.262375,168.803101 198.133850,168.624603 198.401230,168.435242 
	C198.797653,167.835861 198.926697,167.425842 199.026520,167.012115 
	C198.997314,167.008408 199.033890,167.054565 199.287537,166.889343 
	C199.764252,166.173004 199.987335,165.621902 200.145248,165.065613 
	C200.080078,165.060410 200.096939,165.190063 200.352539,165.088226 
	C200.767624,164.666504 200.927124,164.346619 201.050919,164.021454 
	C201.015228,164.016205 201.030350,164.086746 201.282104,164.001068 
	C201.707016,163.615860 201.880157,163.316315 202.027084,163.008041 
	C202.000885,162.999298 202.025482,163.048752 202.309326,162.956985 
	C203.128922,162.300705 203.664688,161.736191 204.150269,161.149551 
	C204.100082,161.127426 204.098984,161.237122 204.403107,161.208084 
	C205.166382,160.803253 205.625534,160.427460 206.051758,160.034943 
	C206.018799,160.018234 206.018234,160.092117 206.345581,160.079041 
	C207.226044,159.749664 207.779190,159.433365 208.716431,159.111923 
	C223.739746,156.742142 233.946533,166.906662 229.837372,180.246857 
	C229.420105,181.124710 229.293457,181.802856 229.178833,182.645950 
	C229.190842,182.810898 228.946823,183.034180 228.592239,183.068542 
	C227.506592,184.425751 226.775528,185.748611 225.934921,187.353485 
	C225.170471,188.074997 224.515564,188.514496 223.470871,188.964371 
	C217.860733,189.001801 216.954224,192.266357 216.965149,196.647690 
	C217.036880,225.399612 216.982071,254.151840 217.055908,282.903778 
	C217.060196,284.574066 217.827454,286.242401 218.496933,288.102783 
	C219.488480,288.699249 220.222748,289.104614 221.174927,289.738708 
	C227.891907,293.898407 234.390976,297.829346 241.102997,302.054169 
	C241.755188,302.532227 242.194412,302.716431 242.722244,302.842529 
	C242.810837,302.784485 242.974319,302.919220 243.158417,303.177246 
	C243.730621,303.590607 244.118698,303.745911 244.663940,303.875671 
	C244.821075,303.850128 245.021103,304.097870 245.159271,304.301208 
	C245.542145,304.746277 245.835861,304.882019 246.115814,304.920776 
	C246.053055,304.929779 246.059021,304.803131 246.202988,305.088257 
	C246.934799,305.557251 247.522644,305.741180 248.073303,305.943665 
	C248.036102,305.962250 248.043442,305.879425 248.173599,306.128601 
	C248.646591,306.494843 248.989410,306.611877 249.369537,306.676422 
	C249.406830,306.623932 249.534164,306.604706 249.534164,306.604706 
M222.008148,173.887573 
	C220.387405,167.112808 212.949783,165.798401 209.252792,169.106873 
	C206.451859,171.613464 205.040375,174.644196 206.761810,178.383041 
	C208.371307,181.878784 211.158737,183.979492 215.015030,183.335236 
	C219.635620,182.563293 222.264801,179.646255 222.008148,173.887573 
z"/>
<path fill="#EAF2F2" opacity="1.000000" stroke="none" 
	d="
M259.596649,82.531189 
	C262.209381,85.219315 263.302032,87.964279 262.159912,91.782959 
	C260.748383,96.502541 259.081787,101.495354 263.788422,107.157845 
	C259.527100,106.240959 256.669525,105.626106 253.402252,105.007561 
	C252.992584,105.003868 252.975235,105.005051 252.971649,104.775482 
	C252.636414,104.377892 252.304794,104.209869 251.609299,104.049850 
	C246.597488,106.405609 241.949524,108.753342 236.921051,111.079292 
	C235.703964,111.725288 234.867386,112.393059 234.018951,113.030212 
	C234.007095,112.999580 234.062012,113.035614 233.749146,113.053772 
	C232.973099,113.434273 232.509918,113.796616 232.049408,114.114029 
	C232.052094,114.069084 232.137497,114.097656 231.811829,114.097046 
	C231.016144,114.475327 230.546127,114.854218 230.077087,115.173630 
	C230.078079,115.114159 230.190384,115.153419 229.789551,115.107666 
	C227.963348,116.102470 226.537964,117.143028 225.093903,118.137833 
	C225.075195,118.092072 225.173782,118.084595 224.938934,118.145447 
	C224.398010,118.347954 224.172653,118.571121 223.916443,119.007034 
	C223.804871,119.138275 223.460632,119.124588 223.023590,119.093117 
	C220.311478,118.742981 218.036423,118.424309 215.242569,118.032974 
	C215.849030,119.583885 216.174545,120.416344 216.619675,121.554718 
	C215.001511,122.062035 213.501907,122.532188 212.002304,123.002342 
	C212.002304,123.002342 212.000000,123.000000 211.957520,122.635712 
	C211.117340,120.698868 210.319626,119.126312 209.521912,117.553757 
	C209.521912,117.553757 209.650513,117.564651 209.939972,117.623024 
	C210.464142,117.395462 210.698837,117.109528 210.933548,116.823601 
	C210.933548,116.823601 210.931442,116.915375 211.262115,116.930656 
	C212.668274,116.180435 213.743759,115.414932 214.819260,114.649429 
	C214.819260,114.649437 214.885788,114.804710 215.076965,114.764641 
	C215.500015,114.449509 215.731903,114.174446 215.963791,113.899384 
	C215.963791,113.899384 215.973175,113.979164 216.328934,113.969612 
	C219.118866,113.134888 222.593002,113.889450 222.916183,109.857689 
	C222.916183,109.857689 222.965790,109.942863 223.242218,109.926384 
	C223.990967,109.538719 224.463272,109.167534 224.935577,108.796356 
	C224.935577,108.796356 224.928528,108.903625 225.248032,108.919739 
	C226.370987,108.276436 227.174454,107.617020 227.977905,106.957603 
	C227.977905,106.957603 227.993256,107.004951 228.280914,106.969452 
	C229.034180,106.588486 229.499771,106.243019 229.965363,105.897552 
	C229.965363,105.897552 229.979874,105.978989 230.266052,105.945663 
	C231.004639,105.526329 231.457031,105.140335 231.909424,104.754333 
	C231.909424,104.754333 231.932053,104.896049 232.116211,104.829552 
	C232.535034,104.514359 232.769699,104.265671 233.004364,104.016983 
	C233.004364,104.016983 233.002258,103.996964 233.370285,104.006882 
	C234.879852,105.053001 236.021408,106.089203 236.328201,106.367683 
	C239.282532,103.838211 241.757416,100.851608 244.928513,99.209396 
	C249.578613,96.801254 251.630905,93.591774 250.876511,88.494720 
	C250.876511,88.494720 250.867294,88.171913 251.411438,88.084198 
	C256.595917,89.338417 256.961914,84.854424 259.085236,82.765671 
	C259.085236,82.765671 259.394775,82.498016 259.596649,82.531189 
z"/>
<path fill="#218CB1" opacity="1.000000" stroke="none" 
	d="
M159.397858,247.973785 
	C158.564316,248.382172 157.730789,248.790543 156.556351,249.267792 
	C156.814224,246.497681 157.915405,243.661713 157.932449,240.819214 
	C158.071808,217.607010 158.083771,194.393051 157.918610,171.181168 
	C157.896347,168.052490 156.673279,164.932343 155.989227,161.409775 
	C156.987839,161.511398 158.003448,162.011490 159.190796,163.232895 
	C159.374313,191.960739 159.386078,219.967270 159.397858,247.973785 
z"/>
<path fill="#EDF6F6" opacity="1.000000" stroke="none" 
	d="
M250.582596,88.737190 
	C251.630905,93.591774 249.578613,96.801254 244.928513,99.209396 
	C241.757416,100.851608 239.282532,103.838211 236.328201,106.367683 
	C236.021408,106.089203 234.879852,105.053001 233.379028,104.012993 
	C235.550781,102.437622 238.011826,100.736389 240.628586,99.323555 
	C245.037415,96.943184 249.378433,94.589523 250.582596,88.737190 
z"/>
<path fill="#EDF6F6" opacity="1.000000" stroke="none" 
	d="
M177.597885,135.910553 
	C175.958176,140.099518 170.245834,141.502579 166.651337,139.083344 
	C165.048203,138.004379 162.659241,138.093018 160.334808,137.401917 
	C162.470551,137.053940 165.319504,136.097427 167.237534,137.038422 
	C171.090820,138.928879 174.104767,138.112015 177.597885,135.910553 
z"/>
<path fill="#EDF6F6" opacity="1.000000" stroke="none" 
	d="
M209.195633,117.630951 
	C210.319626,119.126312 211.117340,120.698868 211.956299,122.634491 
	C207.868393,123.309967 203.739227,123.622368 199.214966,123.896271 
	C202.169708,121.807892 205.519531,119.758011 209.195633,117.630951 
z"/>
<path fill="#EDF6F6" opacity="1.000000" stroke="none" 
	d="
M187.655945,130.055374 
	C188.428116,131.487350 188.859848,132.975922 189.331680,134.602722 
	C186.282333,134.829437 183.260223,135.054138 180.040405,134.985550 
	C182.333649,133.165512 184.824570,131.638748 187.655945,130.055374 
z"/>
<path fill="#218CB1" opacity="1.000000" stroke="none" 
	d="
M150.915726,144.288971 
	C151.776138,148.539536 152.250153,152.892258 152.834076,157.608246 
	C148.911636,155.641022 147.744888,149.079132 150.915726,144.288971 
z"/>
<path fill="#EDF6F6" opacity="1.000000" stroke="none" 
	d="
M248.394165,316.347290 
	C249.905045,319.759674 251.423752,323.572876 252.908112,327.779266 
	C248.802872,325.374329 248.629517,321.050598 248.394165,316.347290 
z"/>
<path fill="#EDF6F6" opacity="1.000000" stroke="none" 
	d="
M258.706146,82.763863 
	C256.961914,84.854424 256.595917,89.338417 251.547211,87.996788 
	C253.534897,86.252075 255.930984,84.507065 258.706146,82.763863 
z"/>
<path fill="#218CB1" opacity="1.000000" stroke="none" 
	d="
M153.769470,251.112366 
	C152.949356,254.486755 151.756439,257.856903 150.416672,261.623291 
	C148.423706,258.204437 149.630768,253.992310 153.769470,251.112366 
z"/>
<path fill="#EDF6F6" opacity="1.000000" stroke="none" 
	d="
M198.521454,123.846436 
	C199.370453,125.353752 199.887543,126.918045 200.550064,128.922379 
	C198.283539,128.163620 196.429642,127.543007 194.175934,126.858826 
	C195.247269,125.831314 196.718414,124.867371 198.521454,123.846436 
z"/>
<path fill="#EDF6F6" opacity="1.000000" stroke="none" 
	d="
M222.573975,109.919174 
	C222.593002,113.889450 219.118866,113.134888 216.294586,113.948792 
	C218.013580,112.618561 220.122681,111.299606 222.573975,109.919174 
z"/>
<path fill="#218CB1" opacity="1.000000" stroke="none" 
	d="
M159.311829,274.053955 
	C161.779221,273.730316 164.458145,273.754181 167.589935,273.789246 
	C165.202988,274.000793 162.363159,274.201141 159.311829,274.053955 
z"/>
<path fill="#EDF6F6" opacity="1.000000" stroke="none" 
	d="
M193.514435,126.758560 
	C192.311310,127.781395 190.759003,128.850220 188.800018,129.888824 
	C189.983963,128.840591 191.574615,127.822563 193.514435,126.758560 
z"/>
<path fill="#218CB1" opacity="1.000000" stroke="none" 
	d="
M155.346222,271.961792 
	C156.485367,272.141052 157.646423,272.697235 159.008514,273.507263 
	C157.929077,273.286957 156.648605,272.812805 155.346222,271.961792 
z"/>
<path fill="#EDF6F6" opacity="1.000000" stroke="none" 
	d="
M214.485626,114.686874 
	C213.743759,115.414932 212.668274,116.180435 211.218964,116.915001 
	C211.947433,116.164146 213.049713,115.444229 214.485626,114.686874 
z"/>
<path fill="#218CB1" opacity="1.000000" stroke="none" 
	d="
M173.106125,273.244019 
	C174.005432,273.330750 174.935776,273.785339 176.044250,274.499268 
	C175.193970,274.376312 174.165573,273.994110 173.106125,273.244019 
z"/>
<path fill="#EDF6F6" opacity="1.000000" stroke="none" 
	d="
M227.659790,106.991173 
	C227.174454,107.617020 226.370987,108.276436 225.197937,108.900238 
	C225.666122,108.251328 226.503906,107.638031 227.659790,106.991173 
z"/>
<path fill="#218CB1" opacity="1.000000" stroke="none" 
	d="
M153.207123,158.842438 
	C153.902679,159.033646 154.568634,159.636871 155.395935,160.540771 
	C154.764008,160.312469 153.970749,159.783478 153.207123,158.842438 
z"/>
<path fill="#218CB1" opacity="1.000000" stroke="none" 
	d="
M153.723328,140.090134 
	C153.644135,140.760910 153.197708,141.471481 152.476669,142.350479 
	C152.586731,141.722580 152.971420,140.926270 153.723328,140.090134 
z"/>
<path fill="#EDF6F6" opacity="1.000000" stroke="none" 
	d="
M231.603622,104.786316 
	C231.457031,105.140335 231.004639,105.526329 230.231903,105.922318 
	C230.373657,105.560974 230.835739,105.189629 231.603622,104.786316 
z"/>
<path fill="#218CB1" opacity="1.000000" stroke="none" 
	d="
M170.897858,272.842499 
	C171.219223,272.644531 171.980530,272.509888 172.926163,272.645264 
	C172.519577,272.912140 171.928696,272.908966 170.897858,272.842499 
z"/>
<path fill="#218CB1" opacity="1.000000" stroke="none" 
	d="
M180.172424,277.168365 
	C180.571823,277.100281 181.114761,277.296326 181.813629,277.743225 
	C181.418350,277.806854 180.867157,277.619690 180.172424,277.168365 
z"/>
<path fill="#218CB1" opacity="1.000000" stroke="none" 
	d="
M176.259949,275.012665 
	C176.713882,274.913391 177.277130,275.123962 178.000549,275.595856 
	C177.563568,275.678955 176.966431,275.500732 176.259949,275.012665 
z"/>
<path fill="#218CB1" opacity="1.000000" stroke="none" 
	d="
M178.210876,276.094971 
	C178.640778,276.011475 179.197830,276.221039 179.921249,276.684174 
	C179.504410,276.754517 178.921204,276.571289 178.210876,276.094971 
z"/>
<path fill="#EDF6F6" opacity="1.000000" stroke="none" 
	d="
M224.627441,108.828735 
	C224.463272,109.167534 223.990967,109.538719 223.195221,109.911621 
	C223.354279,109.562592 223.836792,109.211853 224.627441,108.828735 
z"/>
<path fill="#EDF6F6" opacity="1.000000" stroke="none" 
	d="
M229.665176,105.919601 
	C229.499771,106.243019 229.034180,106.588486 228.261566,106.953674 
	C228.424683,106.629486 228.894836,106.285568 229.665176,105.919601 
z"/>
<path fill="#218CB1" opacity="1.000000" stroke="none" 
	d="
M151.230438,267.095947 
	C151.665024,267.186737 152.033218,267.618011 152.443817,268.338470 
	C152.045502,268.230591 151.604782,267.833527 151.230438,267.095947 
z"/>
<path fill="#218CB1" opacity="1.000000" stroke="none" 
	d="
M150.612640,265.184143 
	C150.983978,265.378357 151.157883,265.758667 151.341949,266.453278 
	C151.039825,266.301788 150.727509,265.836029 150.612640,265.184143 
z"/>
<path fill="#218CB1" opacity="1.000000" stroke="none" 
	d="
M154.940292,139.163467 
	C154.989944,139.376205 154.772995,139.656921 154.294678,140.014862 
	C154.246750,139.805206 154.460220,139.518326 154.940292,139.163467 
z"/>
<path fill="#EDF6F6" opacity="1.000000" stroke="none" 
	d="
M210.652161,116.858940 
	C210.698837,117.109528 210.464142,117.395462 209.939133,117.687553 
	C209.889481,117.427231 210.130127,117.160759 210.652161,116.858940 
z"/>
<path fill="#EDF6F6" opacity="1.000000" stroke="none" 
	d="
M215.684921,113.944687 
	C215.731903,114.174446 215.500015,114.449509 214.992767,114.771515 
	C214.946976,114.542305 215.176514,114.266151 215.684921,113.944687 
z"/>
<path fill="#218CB1" opacity="1.000000" stroke="none" 
	d="
M152.396973,268.906921 
	C152.685944,268.802490 152.957657,268.994080 153.299438,269.432434 
	C153.039581,269.520447 152.709656,269.361664 152.396973,268.906921 
z"/>
<path fill="#EDF6F6" opacity="1.000000" stroke="none" 
	d="
M232.731583,104.049255 
	C232.769699,104.265671 232.535034,104.514359 232.044647,104.824417 
	C232.012207,104.617699 232.235504,104.349609 232.731583,104.049255 
z"/>
<path fill="#218CB1" opacity="1.000000" stroke="none" 
	d="
M156.008850,249.266251 
	C156.071579,249.516037 155.852448,249.790527 155.365982,250.120392 
	C155.308090,249.880829 155.517548,249.585892 156.008850,249.266251 
z"/>
<path fill="#218CB1" opacity="1.000000" stroke="none" 
	d="
M154.906601,250.176651 
	C154.980789,250.399094 154.791031,250.694489 154.343750,251.071548 
	C154.271713,250.852005 154.457184,250.550797 154.906601,250.176651 
z"/>
<path fill="#218CB1" opacity="1.000000" stroke="none" 
	d="
M153.335205,269.937714 
	C153.609650,269.824127 153.901642,270.005341 154.275909,270.437836 
	C154.023056,270.536896 153.687897,270.384674 153.335205,269.937714 
z"/>
<path fill="#218CB1" opacity="1.000000" stroke="none" 
	d="
M154.329163,270.939941 
	C154.600449,270.817657 154.893021,270.989655 155.276062,271.405762 
	C155.027847,271.511353 154.689163,271.372772 154.329163,270.939941 
z"/>
<path fill="#218CB1" opacity="1.000000" stroke="none" 
	d="
M168.729370,273.791290 
	C168.730316,273.544586 169.057907,273.285248 169.704315,272.994537 
	C169.700775,273.234985 169.378403,273.506836 168.729370,273.791290 
z"/>
<path fill="#218CB1" opacity="1.000000" stroke="none" 
	d="
M151.720856,143.162018 
	C151.848541,143.347946 151.759201,143.666595 151.450928,144.114319 
	C151.322617,143.927155 151.413208,143.610931 151.720856,143.162018 
z"/>
<path fill="#048FC3" opacity="1.000000" stroke="none" 
	d="
M223.460632,119.124588 
	C223.460632,119.124588 223.804871,119.138275 224.169403,118.982956 
	C224.747208,118.579948 224.960495,118.332268 225.173782,118.084595 
	C225.173782,118.084595 225.075195,118.092072 225.427612,118.087219 
	C227.250168,117.106056 228.720276,116.129745 230.190384,115.153427 
	C230.190384,115.153419 230.078079,115.114159 230.386536,115.143097 
	C231.175827,114.813911 231.656662,114.455788 232.137497,114.097656 
	C232.137497,114.097656 232.052094,114.069084 232.354095,114.089241 
	C233.124725,113.751472 233.593369,113.393539 234.062012,113.035614 
	C234.062012,113.035614 234.007095,112.999580 234.339264,112.973862 
	C235.548141,112.332451 236.424850,111.716759 237.301575,111.101074 
	C241.949524,108.753342 246.597488,106.405609 251.689728,104.286102 
	C252.342377,104.801430 252.622787,104.964996 252.975235,105.005051 
	C252.975235,105.005051 252.992584,105.003868 252.993240,105.014389 
	C255.750687,106.339088 258.507477,107.653267 261.635193,109.513733 
	C262.050140,154.400101 262.094177,198.740189 262.138214,243.080261 
	C260.619385,244.904053 259.100555,246.727859 257.619507,249.257294 
	C257.725647,267.293427 257.794037,284.623962 257.862427,301.954498 
	C256.777039,307.563171 255.013184,308.679901 249.868927,306.704041 
	C249.534164,306.604706 249.406830,306.623932 249.250702,306.421509 
	C248.744186,306.105835 248.393814,305.992615 248.043442,305.879425 
	C248.043442,305.879425 248.036102,305.962250 247.901657,305.688629 
	C247.197815,305.211060 246.628418,305.007080 246.059021,304.803131 
	C246.059021,304.803131 246.053055,304.929779 246.013992,304.680115 
	C245.656982,304.319611 245.339050,304.208740 245.021103,304.097870 
	C245.021103,304.097870 244.821075,303.850128 244.478165,303.614807 
	C243.748276,303.226074 243.361298,303.072662 242.974319,302.919250 
	C242.974319,302.919220 242.810837,302.784485 242.518707,302.539307 
	C241.781082,302.116180 241.335571,301.938232 240.890060,301.760284 
	C234.390976,297.829346 227.891907,293.898407 221.191956,289.268921 
	C220.662292,284.949768 220.066208,281.330505 220.047089,277.708252 
	C219.895798,249.071396 219.854477,220.433960 219.811768,191.809784 
	C219.844193,191.822876 219.867264,191.888901 220.193665,191.897308 
	C220.995926,191.531830 221.471802,191.157928 222.088776,190.550903 
	C222.773483,189.863190 223.317062,189.408585 223.860657,188.953995 
	C224.515564,188.514496 225.170471,188.074997 226.222488,187.206024 
	C227.395340,185.529099 228.171082,184.281631 228.946823,183.034180 
	C228.946823,183.034180 229.190842,182.810898 229.425415,182.407043 
	C229.816010,181.351181 229.972015,180.699173 230.128006,180.047165 
	C233.946533,166.906662 223.739746,156.742142 208.373810,159.091324 
	C207.104126,159.414612 206.561172,159.753372 206.018234,160.092117 
	C206.018234,160.092117 206.018799,160.018234 205.730255,160.041992 
	C204.994141,160.456207 204.546570,160.846664 204.098984,161.237122 
	C204.098984,161.237122 204.100082,161.127426 203.806946,161.128601 
	C203.017700,161.769424 202.521591,162.409088 202.025482,163.048752 
	C202.025482,163.048752 202.000885,162.999298 201.790405,163.114410 
	C201.396729,163.515259 201.213531,163.800995 201.030334,164.086746 
	C201.030350,164.086746 201.015228,164.016205 200.804733,164.135284 
	C200.428482,164.566284 200.262711,164.878174 200.096939,165.190063 
	C200.096939,165.190063 200.080078,165.060410 199.854645,165.193634 
	C199.430786,165.902756 199.232346,166.478668 199.033890,167.054565 
	C199.033890,167.054565 198.997314,167.008408 198.762405,167.203308 
	C198.396286,167.806992 198.265060,168.215805 198.133850,168.624603 
	C198.133850,168.624603 198.262375,168.803101 197.793976,168.976013 
	C194.674835,174.126617 195.495178,181.127258 199.061249,183.960846 
	C199.061249,183.960846 199.006577,184.000473 199.075836,184.182831 
	C199.274216,184.642288 199.473999,184.852173 199.744415,184.994812 
	C199.744415,184.994812 199.951569,185.419724 200.101395,185.904053 
	C200.568283,186.555801 200.885361,186.723190 201.202423,186.890594 
	C201.202423,186.890594 201.083908,186.905899 201.177155,187.115540 
	C201.583939,187.504929 201.897461,187.684692 202.210983,187.864441 
	C202.210983,187.864441 202.094620,187.857559 202.112244,188.194977 
	C210.128281,193.459717 207.877411,201.392166 207.994537,208.615387 
	C208.053696,212.263260 208.004898,215.912903 208.004883,219.561737 
	C208.004837,238.137619 208.001755,256.713501 208.008560,275.289398 
	C208.009415,277.614288 208.448547,280.192230 204.833115,280.128723 
	C204.833115,280.128723 204.918335,280.084290 204.809647,279.867432 
	C204.349380,279.552826 203.997818,279.455109 203.646240,279.357391 
	C203.646240,279.357391 203.791519,279.369446 203.697952,279.073853 
	C202.980545,278.618835 202.356689,278.459442 201.732849,278.300018 
	C201.732849,278.300018 201.846085,278.252502 201.739563,277.981934 
	C201.018585,277.538513 200.404129,277.365662 199.789658,277.192810 
	C199.789658,277.192810 199.888382,277.156616 199.793350,276.925232 
	C199.345139,276.582550 198.991943,276.471313 198.638763,276.360046 
	C198.638763,276.360046 198.736893,276.441559 198.714218,276.126038 
	C197.779495,275.569061 196.867432,275.327637 195.955368,275.086212 
	C195.410461,274.895020 194.865555,274.703796 194.029053,274.033081 
	C193.418015,273.413513 193.098557,273.273499 192.779114,273.133453 
	C192.779114,273.133453 192.921768,273.111511 192.789276,272.881378 
	C192.063431,272.463104 191.470062,272.274963 190.876694,272.086792 
	C190.876694,272.086792 190.955032,272.059601 190.815735,271.821960 
	C190.100311,271.398834 189.524185,271.213348 188.948044,271.027863 
	C188.948044,271.027863 188.993637,270.996368 188.817444,270.767548 
	C188.256927,270.405121 187.872589,270.271515 187.488251,270.137909 
	C187.488251,270.137909 187.183136,270.185638 186.953568,269.848419 
	C186.418640,269.376617 186.113281,269.242035 185.807907,269.107483 
	C185.807907,269.107483 185.909119,269.124237 185.901947,268.851196 
	C185.236420,268.437622 184.578049,268.297089 183.919693,268.156555 
	C183.388046,267.945190 182.856384,267.733856 182.022934,267.047302 
	C181.389450,266.450806 181.057785,266.329498 180.726105,266.208160 
	C180.726105,266.208160 180.859421,266.194885 180.764740,265.966675 
	C180.316605,265.650452 179.963165,265.562408 179.609726,265.474365 
	C179.609726,265.474365 179.500809,265.526459 179.611725,265.105469 
	C179.422058,262.769684 179.397171,260.753754 178.742462,258.968842 
	C178.103104,257.225739 176.820694,255.718491 175.820572,254.107712 
	C175.820572,254.107712 175.910049,254.053818 175.909363,253.768951 
	C175.486984,253.050507 175.065308,252.616959 174.643616,252.183395 
	C174.643616,252.183395 174.790619,252.193893 174.817673,251.881897 
	C174.505768,250.839172 174.360291,249.717285 173.797546,249.438858 
	C168.781494,246.957260 168.966919,242.498245 168.985901,237.894836 
	C169.066025,218.455017 168.869614,199.012848 169.108444,179.575638 
	C169.183228,173.489639 170.306244,167.416489 170.949463,161.337463 
	C175.032349,158.218781 177.149597,154.244385 177.234253,148.955338 
	C177.258316,147.452774 178.833923,145.442398 180.253738,144.582413 
	C188.633682,139.506668 197.177612,134.701630 206.172882,129.486633 
	C207.144623,128.794052 207.609818,128.420319 208.074997,128.046585 
	C208.074997,128.046585 208.011261,128.002609 208.375061,127.976669 
	C213.646103,125.008675 218.553375,122.066635 223.460632,119.124588 
z"/>
<path fill="#2AB1DA" opacity="1.000000" stroke="none" 
	d="
M262.454895,242.977188 
	C262.094177,198.740189 262.050140,154.400101 262.011597,109.601692 
	C263.932587,108.629333 266.439301,108.707443 267.655487,107.493073 
	C271.719330,103.435410 275.046844,104.853874 279.307922,107.370392 
	C300.388336,119.820045 321.650146,131.963089 342.883667,144.152145 
	C345.349915,145.567917 346.322632,147.112091 346.842590,150.218277 
	C347.468567,153.957947 350.399353,157.307022 352.307098,160.838837 
	C353.319427,162.713028 355.120087,164.609924 355.134125,166.507141 
	C355.324066,192.167313 355.225159,217.829453 355.314209,243.490723 
	C355.324341,246.419983 354.624908,248.336899 351.958923,249.994370 
	C347.998962,252.456314 346.622620,256.550079 346.425781,261.154053 
	C346.363373,262.614166 345.935181,264.748810 344.931000,265.366669 
	C338.318024,269.435883 331.501984,273.175018 324.087036,277.400818 
	C323.951477,275.052917 323.782654,273.478577 323.781525,271.904083 
	C323.767883,252.741058 323.823975,233.577850 323.738770,214.415222 
	C323.724670,211.245209 324.156555,209.105316 327.346649,207.146881 
	C334.070770,203.018845 334.927094,193.081009 329.709656,186.878052 
	C324.665588,180.881165 315.267944,180.452759 309.648651,185.963562 
	C303.517853,191.975998 303.485931,201.473541 310.366760,206.540665 
	C313.922607,209.159241 314.501434,211.899002 314.492981,215.725342 
	C314.445923,237.051910 314.614441,258.379150 314.499939,279.705017 
	C314.491302,281.308838 313.259155,283.593079 311.904968,284.395935 
	C299.012787,292.039520 285.995361,299.473663 272.956177,306.866211 
	C269.594391,308.772095 266.631134,307.099579 266.585907,303.142639 
	C266.399384,286.816010 266.326111,270.486786 266.442047,254.160156 
	C266.452820,252.645630 267.807068,250.833176 269.035767,249.698730 
	C271.595734,247.335083 274.489532,245.332947 277.884491,243.064514 
	C278.939026,242.529572 279.355225,242.112381 279.771423,241.695206 
	C279.771423,241.695206 279.694031,241.778488 280.057831,241.791168 
	C280.901001,241.143906 281.380371,240.483963 281.859772,239.824020 
	C281.859772,239.824020 281.944366,239.879135 282.154968,239.818146 
	C282.569733,239.473694 282.773926,239.190216 282.978149,238.906738 
	C283.096832,238.620422 283.283936,238.389496 284.048889,238.076569 
	C284.997742,237.550079 285.437164,237.161011 285.876587,236.771957 
	C285.876587,236.771957 285.923492,236.901627 286.231201,236.886414 
	C287.327637,235.877563 288.116394,234.883911 288.905121,233.890259 
	C288.905121,233.890259 288.939789,234.010239 289.291016,233.979584 
	C290.231903,233.249557 291.317230,232.556671 291.326477,231.849670 
	C291.369781,228.540588 290.995758,225.227829 290.989288,221.915970 
	C290.950348,201.936920 291.015472,181.957458 290.891663,161.979095 
	C290.881317,160.307175 289.734192,158.642303 289.115204,156.974152 
	C289.115204,156.974152 289.004578,156.950455 288.915741,156.533234 
	C285.118378,154.453934 281.557159,153.569534 278.994476,158.447754 
	C278.990204,182.578186 278.989929,206.238586 278.989624,229.898987 
	C273.583588,234.224014 268.177551,238.549072 262.454895,242.977188 
z"/>
<path fill="#49B2CC" opacity="1.000000" stroke="none" 
	d="
M289.082916,157.443176 
	C289.734192,158.642303 290.881317,160.307175 290.891663,161.979095 
	C291.015472,181.957458 290.950348,201.936920 290.989288,221.915970 
	C290.995758,225.227829 291.369781,228.540588 291.326477,231.849670 
	C291.317230,232.556671 290.231903,233.249557 289.259399,233.925598 
	C288.934540,208.572250 288.992584,183.242233 289.082916,157.443176 
z"/>
<path fill="#EAF2F2" opacity="1.000000" stroke="none" 
	d="
M259.001221,248.990845 
	C259.667328,250.072372 260.902863,251.148514 260.913147,252.236237 
	C261.044281,266.110046 261.061676,279.986053 260.945679,293.860138 
	C260.923492,296.511139 260.199158,299.156281 259.402618,301.432922 
	C259.004730,283.704803 259.002991,266.347809 259.001221,248.990845 
z"/>
<path fill="#35A7BF" opacity="1.000000" stroke="none" 
	d="
M279.338928,229.657013 
	C278.989929,206.238586 278.990204,182.578186 279.271301,158.459290 
	C279.736694,158.006622 279.921326,158.012482 280.105957,158.018341 
	C280.149597,181.025208 280.198792,204.032089 280.213654,227.038971 
	C280.214172,227.830872 279.871094,228.623016 279.338928,229.657013 
z"/>
<path fill="#F7F9F7" opacity="1.000000" stroke="none" 
	d="
M258.714172,249.004730 
	C259.002991,266.347809 259.004730,283.704803 259.009949,301.530273 
	C258.821564,301.992706 258.629669,301.986603 258.150116,301.967499 
	C257.794037,284.623962 257.725647,267.293427 257.755249,249.505905 
	C258.044495,249.038818 258.235809,249.028717 258.714172,249.004730 
z"/>
<path fill="#49B2CC" opacity="1.000000" stroke="none" 
	d="
M280.419434,157.755630 
	C279.921326,158.012482 279.736694,158.006622 279.275269,157.989243 
	C281.557159,153.569534 285.118378,154.453934 288.931519,156.478897 
	C286.268402,157.058838 283.500671,157.275879 280.419434,157.755630 
z"/>
<path fill="#49B2CC" opacity="1.000000" stroke="none" 
	d="
M288.613159,233.997467 
	C288.116394,234.883911 287.327637,235.877563 286.178497,236.841965 
	C286.652466,235.910049 287.486816,235.007370 288.613159,233.997467 
z"/>
<path fill="#49B2CC" opacity="1.000000" stroke="none" 
	d="
M281.565521,239.890656 
	C281.380371,240.483963 280.901001,241.143906 280.069519,241.735535 
	C280.235321,241.097244 280.753296,240.527267 281.565521,239.890656 
z"/>
<path fill="#49B2CC" opacity="1.000000" stroke="none" 
	d="
M285.563477,236.799286 
	C285.437164,237.161011 284.997742,237.550079 284.240753,237.958282 
	C284.365601,237.593826 284.807983,237.210220 285.563477,236.799286 
z"/>
<path fill="#49B2CC" opacity="1.000000" stroke="none" 
	d="
M279.475403,241.734741 
	C279.355225,242.112381 278.939026,242.529572 278.196106,242.945618 
	C278.306030,242.554398 278.742737,242.164337 279.475403,241.734741 
z"/>
<path fill="#49B2CC" opacity="1.000000" stroke="none" 
	d="
M282.719299,238.980408 
	C282.773926,239.190216 282.569733,239.473694 282.105347,239.827606 
	C282.050262,239.616714 282.255371,239.335388 282.719299,238.980408 
z"/>
<path fill="#1090BE" opacity="1.000000" stroke="none" 
	d="
M222.045105,174.288422 
	C222.264801,179.646255 219.635620,182.563293 215.015030,183.335236 
	C211.158737,183.979492 208.371307,181.878784 206.761810,178.383041 
	C205.040375,174.644196 206.451859,171.613464 209.252792,169.106873 
	C212.949783,165.798401 220.387405,167.112808 222.045105,174.288422 
z"/>
<path fill="#1088B1" opacity="1.000000" stroke="none" 
	d="
M204.937439,280.358521 
	C208.448547,280.192230 208.009415,277.614288 208.008560,275.289398 
	C208.001755,256.713501 208.004837,238.137619 208.004883,219.561737 
	C208.004898,215.912903 208.053696,212.263260 207.994537,208.615387 
	C207.877411,201.392166 210.128281,193.459717 202.158783,188.159912 
	C203.406494,188.547287 204.625290,189.307175 206.392776,190.355133 
	C207.605637,190.860352 208.269791,191.077499 208.933945,191.294662 
	C208.947906,191.584488 209.074646,191.811279 209.486115,192.501007 
	C209.655563,197.025925 209.641113,201.024918 209.652481,205.023849 
	C209.724503,230.343643 209.802261,255.663422 209.878128,280.983215 
	C209.878128,280.983215 209.650421,281.345276 209.301697,281.608093 
	C208.570663,281.984589 208.188339,282.098267 207.525681,282.104156 
	C206.863892,281.877319 206.482407,281.758301 206.100922,281.639282 
	C205.747864,281.288940 205.394821,280.938629 204.937439,280.358521 
z"/>
<path fill="#0A85AA" opacity="1.000000" stroke="none" 
	d="
M219.779327,191.796707 
	C219.854477,220.433960 219.895798,249.071396 220.047089,277.708252 
	C220.066208,281.330505 220.662292,284.949768 220.974045,289.040161 
	C220.222748,289.104614 219.488480,288.699249 218.534470,287.642517 
	C218.322784,257.030487 218.306396,227.069748 218.400436,197.109360 
	C218.405991,195.337051 219.299194,193.567520 219.779327,191.796707 
z"/>
<path fill="#E5FDFE" opacity="1.000000" stroke="none" 
	d="
M159.751434,247.838776 
	C159.386078,219.967270 159.374313,191.960739 159.420685,163.491898 
	C159.986252,164.114853 160.933350,165.198776 160.936707,166.285599 
	C161.017670,192.528839 161.006638,218.772400 160.958679,245.015823 
	C160.957047,245.912323 160.402054,246.807816 159.751434,247.838776 
z"/>
<path fill="#1088B1" opacity="1.000000" stroke="none" 
	d="
M170.598755,161.428131 
	C170.306244,167.416489 169.183228,173.489639 169.108444,179.575638 
	C168.869614,199.012848 169.066025,218.455017 168.985901,237.894836 
	C168.966919,242.498245 168.781494,246.957260 173.797546,249.438858 
	C174.360291,249.717285 174.505768,250.839172 174.777008,251.943344 
	C168.960175,249.701889 167.896469,245.203201 167.989868,239.144775 
	C168.360519,215.102280 168.087296,191.050323 168.219345,167.002792 
	C168.229401,165.171143 169.541275,163.346634 170.598755,161.428131 
z"/>
<path fill="#E0FAFD" opacity="1.000000" stroke="none" 
	d="
M219.811768,191.809784 
	C219.299194,193.567520 218.405991,195.337051 218.400436,197.109360 
	C218.306396,227.069748 218.322784,257.030487 218.277176,287.451416 
	C217.827454,286.242401 217.060196,284.574066 217.055908,282.903778 
	C216.982071,254.151840 217.036880,225.399612 216.965149,196.647690 
	C216.954224,192.266357 217.860733,189.001801 223.470856,188.964371 
	C223.317062,189.408585 222.773483,189.863190 221.778503,190.589508 
	C220.840500,191.203796 220.353867,191.546341 219.867249,191.888885 
	C219.867264,191.888901 219.844193,191.822876 219.811768,191.809784 
z"/>
<path fill="#E4FAFE" opacity="1.000000" stroke="none" 
	d="
M210.240173,280.932220 
	C209.802261,255.663422 209.724503,230.343643 209.652481,205.023849 
	C209.641113,201.024918 209.655563,197.025925 209.676056,192.566132 
	C210.318115,192.647018 211.486267,193.186691 211.488327,193.730759 
	C211.596802,222.454300 211.610092,251.178223 211.584427,279.902069 
	C211.584137,280.228760 210.943771,280.554840 210.240173,280.932220 
z"/>
<path fill="#EDF6F6" opacity="1.000000" stroke="none" 
	d="
M223.023590,119.093117 
	C218.553375,122.066635 213.646103,125.008675 208.390594,128.012131 
	C209.322998,126.611053 210.603668,125.148582 211.943329,123.344223 
	C213.501907,122.532188 215.001511,122.062035 216.619675,121.554718 
	C216.174545,120.416344 215.849030,119.583885 215.242569,118.032974 
	C218.036423,118.424309 220.311478,118.742981 223.023590,119.093117 
z"/>
<path fill="#1088B1" opacity="1.000000" stroke="none" 
	d="
M175.879852,254.511261 
	C176.820694,255.718491 178.103104,257.225739 178.742462,258.968842 
	C179.397171,260.753754 179.422058,262.769684 179.551636,265.099487 
	C178.600754,264.348663 177.473984,263.279358 177.117020,261.995972 
	C176.479446,259.703705 176.306396,257.282257 175.879852,254.511261 
z"/>
<path fill="#1088B1" opacity="1.000000" stroke="none" 
	d="
M199.002777,183.579834 
	C195.495178,181.127258 194.674835,174.126617 197.730103,169.065552 
	C198.404510,173.721039 198.674423,178.459946 199.002777,183.579834 
z"/>
<path fill="#E0FAFD" opacity="1.000000" stroke="none" 
	d="
M228.592239,183.068542 
	C228.171082,184.281631 227.395340,185.529099 226.332031,186.924011 
	C226.775528,185.748611 227.506592,184.425751 228.592239,183.068542 
z"/>
<path fill="#1088B1" opacity="1.000000" stroke="none" 
	d="
M196.136780,275.348114 
	C196.867432,275.327637 197.779495,275.569061 198.656403,276.152954 
	C197.853561,276.200256 197.085876,275.905121 196.136780,275.348114 
z"/>
<path fill="#1088B1" opacity="1.000000" stroke="none" 
	d="
M184.084442,268.394775 
	C184.578049,268.297089 185.236420,268.437622 185.876175,268.895569 
	C185.321442,269.019592 184.785309,268.826263 184.084442,268.394775 
z"/>
<path fill="#E4FAFE" opacity="1.000000" stroke="none" 
	d="
M206.092896,281.953125 
	C206.482407,281.758301 206.863892,281.877319 207.553467,282.329529 
	C207.861557,282.662689 207.970657,283.103546 207.970657,283.103546 
	C207.342056,282.824677 206.713455,282.545807 206.092896,281.953125 
z"/>
<path fill="#1088B1" opacity="1.000000" stroke="none" 
	d="
M202.309311,162.956985 
	C202.521591,162.409088 203.017700,161.769424 203.857147,161.150726 
	C203.664688,161.736191 203.128922,162.300705 202.309311,162.956985 
z"/>
<path fill="#1088B1" opacity="1.000000" stroke="none" 
	d="
M191.038300,272.351746 
	C191.470062,272.274963 192.063431,272.463104 192.781845,272.953156 
	C192.337891,273.042267 191.768890,272.829498 191.038300,272.351746 
z"/>
<path fill="#EDF6F6" opacity="1.000000" stroke="none" 
	d="
M207.751678,128.067932 
	C207.609818,128.420319 207.144623,128.794052 206.379089,129.227585 
	C206.528610,128.888016 206.978485,128.488647 207.751678,128.067932 
z"/>
<path fill="#1088B1" opacity="1.000000" stroke="none" 
	d="
M201.887558,278.561249 
	C202.356689,278.459442 202.980545,278.618835 203.650055,279.128784 
	C203.144577,279.260376 202.593430,279.041443 201.887558,278.561249 
z"/>
<path fill="#EDF6F6" opacity="1.000000" stroke="none" 
	d="
M246.202988,305.088257 
	C246.628418,305.007080 247.197815,305.211060 247.938843,305.670044 
	C247.522644,305.741180 246.934799,305.557251 246.202988,305.088257 
z"/>
<path fill="#1088B1" opacity="1.000000" stroke="none" 
	d="
M189.113434,271.282654 
	C189.524185,271.213348 190.100311,271.398834 190.819397,271.863251 
	C190.401169,271.940582 189.840012,271.739014 189.113434,271.282654 
z"/>
<path fill="#1088B1" opacity="1.000000" stroke="none" 
	d="
M199.950958,277.456909 
	C200.404129,277.365662 201.018585,277.538513 201.723541,278.041199 
	C201.246765,278.154388 200.679520,277.937714 199.950958,277.456909 
z"/>
<path fill="#1088B1" opacity="1.000000" stroke="none" 
	d="
M204.403107,161.208084 
	C204.546570,160.846664 204.994141,160.456207 205.763214,160.058716 
	C205.625534,160.427460 205.166382,160.803253 204.403107,161.208084 
z"/>
<path fill="#1088B1" opacity="1.000000" stroke="none" 
	d="
M206.345581,160.079041 
	C206.561172,159.753372 207.104126,159.414612 207.989685,159.096466 
	C207.779190,159.433365 207.226044,159.749664 206.345581,160.079041 
z"/>
<path fill="#E4FAFE" opacity="1.000000" stroke="none" 
	d="
M208.758087,190.966644 
	C208.269791,191.077499 207.605637,190.860352 206.704391,190.378265 
	C207.172272,190.288406 207.877258,190.463501 208.758087,190.966644 
z"/>
<path fill="#E0FAFD" opacity="1.000000" stroke="none" 
	d="
M229.837372,180.246857 
	C229.972015,180.699173 229.816010,181.351181 229.413406,182.242096 
	C229.293457,181.802856 229.420105,181.124710 229.837372,180.246857 
z"/>
<path fill="#1088B1" opacity="1.000000" stroke="none" 
	d="
M199.287537,166.889343 
	C199.232346,166.478668 199.430786,165.902756 199.919830,165.198822 
	C199.987335,165.621902 199.764252,166.173004 199.287537,166.889343 
z"/>
<path fill="#1088B1" opacity="1.000000" stroke="none" 
	d="
M174.680756,252.491150 
	C175.065308,252.616959 175.486984,253.050507 175.896240,253.819489 
	C175.495178,253.702927 175.106522,253.250916 174.680756,252.491150 
z"/>
<path fill="#71B9CE" opacity="1.000000" stroke="none" 
	d="
M208.285706,283.067261 
	C207.970657,283.103546 207.861557,282.662689 207.833771,282.437317 
	C208.188339,282.098267 208.570663,281.984589 209.245712,281.814484 
	C209.225876,282.182373 208.913315,282.606689 208.285706,283.067261 
z"/>
<path fill="#EDF6F6" opacity="1.000000" stroke="none" 
	d="
M241.102997,302.054169 
	C241.335571,301.938232 241.781082,302.116180 242.430115,302.597351 
	C242.194412,302.716431 241.755188,302.532227 241.102997,302.054169 
z"/>
<path fill="#EDF6F6" opacity="1.000000" stroke="none" 
	d="
M243.158417,303.177277 
	C243.361298,303.072662 243.748276,303.226074 244.321014,303.640381 
	C244.118698,303.745911 243.730621,303.590607 243.158417,303.177277 
z"/>
<path fill="#EDF6F6" opacity="1.000000" stroke="none" 
	d="
M245.159271,304.301208 
	C245.339050,304.208740 245.656982,304.319611 246.076752,304.671112 
	C245.835861,304.882019 245.542145,304.746277 245.159271,304.301208 
z"/>
<path fill="#EDF6F6" opacity="1.000000" stroke="none" 
	d="
M248.173599,306.128601 
	C248.393814,305.992615 248.744186,306.105835 249.213409,306.473999 
	C248.989410,306.611877 248.646591,306.494843 248.173599,306.128601 
z"/>
<path fill="#1088B1" opacity="1.000000" stroke="none" 
	d="
M192.891281,273.382935 
	C193.098557,273.273499 193.418015,273.413513 193.868881,273.786499 
	C193.668015,273.890442 193.335739,273.761414 192.891281,273.382935 
z"/>
<path fill="#1088B1" opacity="1.000000" stroke="none" 
	d="
M201.098358,186.636169 
	C200.885361,186.723190 200.568283,186.555801 200.136856,186.137756 
	C200.346420,186.051971 200.670349,186.216858 201.098358,186.636169 
z"/>
<path fill="#1088B1" opacity="1.000000" stroke="none" 
	d="
M199.758163,184.751953 
	C199.473999,184.852173 199.274216,184.642288 199.089508,184.151962 
	C199.392075,183.983704 199.638062,184.173813 199.758163,184.751953 
z"/>
<path fill="#1088B1" opacity="1.000000" stroke="none" 
	d="
M198.401230,168.435242 
	C198.265060,168.215805 198.396286,167.806992 198.791611,167.207016 
	C198.926697,167.425842 198.797653,167.835861 198.401230,168.435242 
z"/>
<path fill="#1088B1" opacity="1.000000" stroke="none" 
	d="
M200.352539,165.088226 
	C200.262711,164.878174 200.428482,164.566284 200.840424,164.140549 
	C200.927124,164.346619 200.767624,164.666504 200.352539,165.088226 
z"/>
<path fill="#1088B1" opacity="1.000000" stroke="none" 
	d="
M179.712280,265.721741 
	C179.963165,265.562408 180.316605,265.650452 180.740234,266.029053 
	C180.478546,266.202759 180.146683,266.085938 179.712280,265.721741 
z"/>
<path fill="#1088B1" opacity="1.000000" stroke="none" 
	d="
M180.850983,266.452820 
	C181.057785,266.329498 181.389450,266.450806 181.857086,266.807800 
	C181.653976,266.928162 181.314911,266.812836 180.850983,266.452820 
z"/>
<path fill="#1088B1" opacity="1.000000" stroke="none" 
	d="
M185.907501,269.356750 
	C186.113281,269.242035 186.418640,269.376617 186.853577,269.730774 
	C186.657791,269.835571 186.332443,269.720764 185.907501,269.356750 
z"/>
<path fill="#1088B1" opacity="1.000000" stroke="none" 
	d="
M187.667786,270.389832 
	C187.872589,270.271515 188.256927,270.405121 188.815186,270.795166 
	C188.608505,270.914978 188.227921,270.778351 187.667786,270.389832 
z"/>
<path fill="#1088B1" opacity="1.000000" stroke="none" 
	d="
M201.282104,164.001068 
	C201.213531,163.800995 201.396729,163.515259 201.816589,163.123154 
	C201.880157,163.316315 201.707016,163.615860 201.282104,164.001068 
z"/>
<path fill="#1088B1" opacity="1.000000" stroke="none" 
	d="
M202.126129,187.598358 
	C201.897461,187.684692 201.583939,187.504929 201.186707,187.056564 
	C201.415771,186.969406 201.728516,187.150848 202.126129,187.598358 
z"/>
<path fill="#1088B1" opacity="1.000000" stroke="none" 
	d="
M198.736450,276.624146 
	C198.991943,276.471313 199.345139,276.582550 199.785355,276.977173 
	C199.526306,277.136444 199.180206,277.012360 198.736450,276.624146 
z"/>
<path fill="#1088B1" opacity="1.000000" stroke="none" 
	d="
M203.766968,279.608765 
	C203.997818,279.455109 204.349380,279.552826 204.817307,279.914856 
	C204.585007,280.072815 204.236359,279.966492 203.766968,279.608765 
z"/>
<path fill="#EDF6F6" opacity="1.000000" stroke="none" 
	d="
M229.789551,115.107666 
	C228.720276,116.129745 227.250168,117.106056 225.446320,118.132980 
	C226.537964,117.143028 227.963348,116.102470 229.789551,115.107666 
z"/>
<path fill="#EDF6F6" opacity="1.000000" stroke="none" 
	d="
M236.921051,111.079292 
	C236.424850,111.716759 235.548141,112.332451 234.351120,113.004486 
	C234.867386,112.393059 235.703964,111.725288 236.921051,111.079292 
z"/>
<path fill="#EDF6F6" opacity="1.000000" stroke="none" 
	d="
M231.811829,114.097046 
	C231.656662,114.455788 231.175827,114.813911 230.385559,115.202576 
	C230.546127,114.854218 231.016144,114.475327 231.811829,114.097046 
z"/>
<path fill="#EDF6F6" opacity="1.000000" stroke="none" 
	d="
M252.971649,104.775482 
	C252.622787,104.964996 252.342377,104.801430 252.053589,104.278091 
	C252.304794,104.209869 252.636414,104.377892 252.971649,104.775482 
z"/>
<path fill="#EDF6F6" opacity="1.000000" stroke="none" 
	d="
M233.749146,113.053764 
	C233.593369,113.393539 233.124725,113.751472 232.351410,114.134186 
	C232.509918,113.796616 232.973099,113.434273 233.749146,113.053764 
z"/>
<path fill="#EDF6F6" opacity="1.000000" stroke="none" 
	d="
M224.938934,118.145447 
	C224.960495,118.332268 224.747208,118.579948 224.280975,118.851715 
	C224.172653,118.571121 224.398010,118.347954 224.938934,118.145447 
z"/>
<path fill="#0A85AA" opacity="1.000000" stroke="none" 
	d="
M220.193649,191.897308 
	C220.353867,191.546341 220.840500,191.203796 221.637390,190.822647 
	C221.471802,191.157928 220.995926,191.531830 220.193649,191.897308 
z"/>
</svg>